<?xml version="1.0" encoding="utf-8"?>
<!-- Generator: Adobe Illustrator 21.0.2, SVG Export Plug-In . SVG Version: 6.00 Build 0)  -->
<svg version="1.1" id="Layer_1" xmlns="http://www.w3.org/2000/svg" xmlns:xlink="http://www.w3.org/1999/xlink" x="0px" y="0px"
	 viewBox="0 0 189.1 203.2" style="enable-background:new 0 0 189.1 203.2;" xml:space="preserve"><g>
	<style>
	 	#left-eye,
	 	#right-eye {
	 		animation: 2.4s blink linear forwards infinite;
	 		transform-origin: center;
		 	transform-box: fill-box;
	 	}

	 	@keyframes blink {
	 		90% {
	 			transform: none;
	 			animation-timing-function: ease-in;
	 		}
	 		93% {
	 			transform: translateY(1px) scaleY(0);
	 		}
	 		100% {
	 			animation-timing-function: ease-out;
	 		}
	 	}
	 </style>
	<g>
		<g>
			<defs>
				<circle id="SVGID_1_" cx="94.8" cy="94.7" r="94.4"/>
			</defs>
			<clipPath id="SVGID_2_">
				<use xlink:href="#SVGID_1_"  style="overflow:visible;"/>
			</clipPath>
			<g style="clip-path:url(#SVGID_2_);">
				<circle style="fill:#B3D146;" cx="94.8" cy="94.7" r="94.4"/>
				<g>
					<path style="fill:#DB1D46;" d="M26.9,167.8c0,0-3.6-29.3,8.6-39.4c12.2-10.1,41.2-25.5,59.1-26.8s54.1,19.1,57.3,21.6
						c3.4,2.5,16.4,16.5,12.4,43.7C164.2,166.9,100,221.8,26.9,167.8z"/>
					<path style="fill:#FFFFFF;" d="M69.3,102.6c0,0-14.2,37.2-16.2,48.7c-1.8,11.5-4.1,32.2-4.1,32.2s44,18.7,84.6,2.2
						c0,0,0.5-24.4-4.1-37.6c-4.7-13.1-15.8-44.8-15.8-44.8L69.3,102.6z"/>
					<line style="fill:none;stroke:#E6E6E6;stroke-width:0.6761;stroke-miterlimit:10;" x1="96.6" y1="145.7" x2="97" y2="182.9"/>
					<path style="fill:#F4BA92;" d="M79,94.5c0,0-0.7,36.7,17.8,47.3c0,0,19.2-15.5,15.8-46.9L79,94.5z"/>
					<path style="fill:none;" d="M168.5,170.7"/>
					<path style="fill:none;" d="M50.4,167.7"/>
					<ellipse style="fill:#DBA783;" cx="90" cy="83.7" rx="26.1" ry="42.1"/>
					
						<ellipse style="fill:#F4BA92;stroke:#DBA783;stroke-width:0.5077;stroke-miterlimit:10;" cx="95" cy="73.9" rx="27" ry="40.4"/>
					<path d="M126.1,115.5c-2.7,14.2,12.2,57,12.2,57c-13.1-1.6-17.8-17.1-17.3-11.9c11.9,0.5-13.8,38.1-13.8,38.1s-8.6-80.3,2-92.6
						c12.4-14.2,11.9-41.3,10.6-42.4c-1.4-1.1-14-19.4-17.8-22.5C97.9,37.9,76,39.7,76,39.7c0.4,6.8-13.5,24.1-13.5,24.1
						s1.3,26.1,10.1,39.9c12,18.7,0,80.7-13.7,89.9c-1.4,4.3-2.9-32.5-0.7-35.2c2.2-2.7,1.6-21.2,1.6-21.2
						c-0.5,18.5-17.4,23.2-17.4,23.2s9.7-16,5.4-66.1C49.2,41,75.1,24.2,75.1,24.2s23.4-6.6,34.7-0.9c0,0,19.8,10.8,24.1,58.9"/>
					<path style="fill:#1A1A1A;" d="M128.4,115.5c-2.5,14.2,11.5,57,11.5,57c-11,2.5-16.7-17.1-16.4-11.9
						c4.1,7.2-12.6,25.2-12.6,25.2s-8.6-67.4,1.3-79.6c11.7-14.2,11.3-41.3,10.1-42.4c-1.3-1.1-13.3-19.4-16.9-22.5
						c-3.6-3.2-24.3-1.4-24.3-1.4C81.5,46.7,68.4,64,68.4,64s0.5,12.8,3.8,25.2c4.7,18.2,6.1,37.2,3.2,55.7
						c-3.1,19.9-14.7,43.1-16.5,48.7c-1.4,4.3,3.4-32.4,5.4-35s1.4-21.2,1.4-21.2c-0.4,18.3-16.4,30.2-16.4,30.2s8.6-25.3,5.2-73.3
						C56,41,80.4,24.2,80.4,24.2s22.1-6.6,32.9-0.9c0,0,18.7,10.8,22.6,58.9"/>
					<circle id="left-eye" style="fill:#6B5451;" cx="83.3" cy="69.2" r="2.5"/>
					<circle id="right-eye" style="fill:#6B5451;" cx="106.7" cy="69.2" r="2.5"/>
					<path style="fill:#4D4D4D;" d="M73.6,64.1c0,0,4.3-5.8,16.9,0.2"/>
					<path style="fill:#FFFFFF;" d="M103.8,94c0,1.4-4.9,3.8-10.2,3.8s-10.1-2.9-10.1-4.3c0-1.4,4.7-0.9,10.1-0.9
						S103.8,92.5,103.8,94z"/>
					<path style="fill:#4D4D4D;" d="M98.6,64.1c0,0,4.3-5.8,16.9,0.2"/>
					<polygon style="fill:#DBA783;" points="90,81 98.6,81 94.3,85.9 					"/>
					<path style="fill:#DBA783;" d="M83.3,92.7c0,0,7.7-4.5,9.5-2c1.8,2.3,2.3-0.7,4.5-0.5c2.2,0.2,8.1,3.2,8.1,3.2"/>
					<path style="fill:#DBA783;" d="M89.4,107.6c0,0,3.8-2.7,9,0"/>
					<path style="fill:#DBA783;" d="M82.6,92.4c0,0,12.2,10.2,22.8,0c0,0-6.1,9.3-11.5,9.3S82.6,92.4,82.6,92.4z"/>
				</g>
			</g>
		</g>
	</g>
</g>
<g>
	<g>
		<path style="fill:#FFC107;" d="M160.2,161.5c11.1-0.3,20.1-9.5,20.1-20.7v-15.3h-18.5v-7h-47.7v7H95.6v15.3
			c0,11.2,8.9,20.3,20.1,20.7c2.9,7.5,9.4,13.2,17.4,14.8v7.4c-5,1.5-9,5.1-11,9.8h31.8c-2-4.7-6.1-8.4-11-9.8v-7.4
			C150.8,174.6,157.3,169,160.2,161.5z M171.3,134.5v6.3c0,5.7-4.1,10.4-9.5,11.5v-17.8H171.3z M104.7,140.8v-6.3h9.5v17.8
			C108.7,151.2,104.7,146.5,104.7,140.8z"/>
		<rect x="114.5" y="193.5" style="fill:#FFC107;" width="47" height="9.6"/>
	</g>
	<polygon style="fill:#FF5722;" points="130.1,152.5 130.2,148.5 125,141.7 133.2,139.3 136.5,134.5 138.1,132.2 139.6,134.5 
		142.9,139.3 151.1,141.7 145.9,148.5 146,152.5 146.1,157.1 138.1,154.2 130,157.1 	"/>
	<path style="opacity:0.1;enable-background:new    ;" d="M104.7,140.8v-6.3h9.5v17.8C108.7,151.2,104.7,146.5,104.7,140.8z
		 M122.1,193.6h8.3c-1.2-3.9,5.6-9.8,5.6-9.8v-7.5c-23.4-8.3-13.7-57.8-13.7-57.8h-8.1v7H95.7v15.3c0,11.2,8.9,20.3,20.1,20.7
		c2.9,7.5,9.4,13.2,17.4,14.8v7.4C128.1,185.2,124.1,188.9,122.1,193.6"/>
	<g style="opacity:0.1;">
		<polygon points="114.5,203.2 114.5,193.5 130.4,193.5 130.4,203.2 		"/>
	</g>
</g>
</svg>
