<?xml version="1.0" encoding="utf-8"?>
<!-- Generator: Adobe Illustrator 21.0.2, SVG Export Plug-In . SVG Version: 6.00 Build 0)  -->
<svg version="1.1" id="Layer_1" xmlns="http://www.w3.org/2000/svg" xmlns:xlink="http://www.w3.org/1999/xlink" x="0px" y="0px"
	 viewBox="0 0 189.1 203.2" style="enable-background:new 0 0 189.1 203.2;" xml:space="preserve">
<g>
	<circle style="fill:#B3D146;" cx="94.6" cy="94.6" r="94.6"/>
	<g>
		<g>
			<defs>
				<circle id="SVGID_1_" cx="94.6" cy="94.6" r="94.6"/>
			</defs>
			<clipPath id="SVGID_2_">
				<use xlink:href="#SVGID_1_"  style="overflow:visible;"/>
			</clipPath>
			<g style="clip-path:url(#SVGID_2_);">
				<path style="fill:#DB1D46;" d="M26.4,167.7c0,0-3.6-29.3,8.6-39.4s41.3-25.6,59.3-26.7s54.1,19,57.5,21.6
					c3.4,2.6,16.4,16.6,12.3,43.8C164,166.9,99.8,221.8,26.4,167.7z"/>
				<path style="fill:#FFFFFF;" d="M69,102.4c0,0-16.1,37.3-18,48.8c-1.9,11.5-2.4,32.7-2.4,32.7s44.2,19.7,84.8,3.1
					c0,0,0.5-25.9-4.1-39c-4.6-13.1-15.8-44.8-15.8-44.8L69,102.4z"/>
				
					<line style="fill:#FFFFFF;stroke:#E6E6E6;stroke-width:0.6771;stroke-miterlimit:10;" x1="96.3" y1="145.6" x2="96.6" y2="182.9"/>
				<path style="fill:#F4BA92;" d="M78.7,94.4c0,0-0.8,36.7,17.8,47.4c0,0,19.3-15.4,15.8-47L78.7,94.4z"/>
				<path style="fill:none;" d="M168.3,170.6"/>
				<path style="fill:none;" d="M50.1,167.6"/>
				<ellipse style="fill:#DBA783;" cx="89.7" cy="83.6" rx="26.2" ry="42.2"/>
				
					<ellipse style="fill:#F4BA92;stroke:#DBA783;stroke-width:0.4951;stroke-miterlimit:10;" cx="93.8" cy="74.6" rx="26.2" ry="39.6"/>
				<path d="M125.8,115.4c-2.6,14.3,12.2,57.1,12.2,57.1c-13.1-1.7-17.7-17.2-17.4-11.9c0.4,5.1-13.3,25.1-13.3,25.1
					s-9.2-67.6,1.4-79.7c12.4-14.3,11.9-41.4,10.6-42.5c-1.4-1-14.1-19.4-17.9-22.6s-25.7-1.5-25.7-1.5c0.4,6.8-13.5,24.1-13.5,24.1
					s1.2,26.1,10,39.9c12,18.8-3.8,70-7.2,80.1c-1.4,4.3-9.4-22.8-7.2-25.4c2.2-2.6,1.6-21.3,1.6-21.3
					c-0.4,18.8-17.4,37.9-17.4,37.9s4-29.5,5.5-80.6c1.5-53.3,27.4-70,27.4-70s23.5-6.6,34.8-0.8c0,0,19.8,10.8,24.1,59.1"/>
				<path style="fill:#1A1A1A;" d="M128.2,115.4c-2.5,14.3,11.5,57.1,11.5,57.1c-12.4-1.7-16.8-17.2-16.4-11.9
					c0.3,5.1-12.6,25.1-12.6,25.1s-8.7-67.6,1.3-79.7c11.7-14.3,11.3-41.4,10-42.5c-1.3-1-13.3-19.4-16.9-22.6
					c-3.6-3.2-24.3-1.5-24.3-1.5C81.2,46.2,68,63.5,68,63.5s1.1,26.1,9.5,39.9c11.3,18.8-3.6,70-6.8,80.1
					c-1.4,4.3-8.9-22.8-6.8-25.4s1.5-21.3,1.5-21.3c-0.4,18.8-16.4,37.9-16.4,37.9s3.8-29.5,5.2-80.6c1.4-53.3,25.9-70,25.9-70
					s22.2-6.6,32.9-0.8c0,0,18.7,10.8,22.7,59.1"/>
				<circle style="fill:#6B5451;" cx="82.9" cy="69" r="2.6"/>
				<circle style="fill:#6B5451;" cx="106.5" cy="69" r="2.6"/>
				<path style="fill:#4D4D4D;" d="M73.3,63.9c0,0,4.2-5.7,16.9,0.2"/>
				<path style="fill:#FFFFFF;" d="M103.5,93.8c0,1.4-4.9,3.7-10.2,3.7s-10-2.9-10-4.3s4.7-0.9,10-0.9S103.5,92.3,103.5,93.8z"/>
				<path style="fill:#4D4D4D;" d="M98.3,63.9c0,0,4.2-5.7,16.9,0.2"/>
				<polygon style="fill:#DBA783;" points="89.6,80.9 98.4,80.9 94,85.8 				"/>
				<path style="fill:#DBA783;" d="M82.9,92.4c0,0,7.7-4.4,9.5-2c1.8,2.4,2.3-0.7,4.4-0.5c2.2,0.2,8.1,3.3,8.1,3.3"/>
				<path style="fill:#DBA783;" d="M89.1,107.4c0,0,3.8-2.7,9,0"/>
				<path style="fill:#DBA783;" d="M82.3,92.1c0,0,12.3,10.2,22.9,0c0,0-6.1,9.4-11.5,9.4S82.3,92.1,82.3,92.1z"/>
			</g>
		</g>
		<g>
			<g>
				<path style="fill:#FFC107;" d="M160.2,161.5c11.1-0.3,20.1-9.5,20.1-20.7v-15.3h-18.5v-7h-47.7v7H95.6v15.3
					c0,11.2,8.9,20.3,20.1,20.7c2.9,7.5,9.4,13.2,17.4,14.8v7.4c-5,1.5-9,5.1-11,9.8h31.8c-2-4.7-6.1-8.4-11-9.8v-7.4
					C150.8,174.6,157.3,169,160.2,161.5z M171.3,134.5v6.3c0,5.7-4.1,10.4-9.5,11.5v-17.8H171.3z M104.7,140.8v-6.3h9.5v17.8
					C108.7,151.2,104.7,146.5,104.7,140.8z"/>
				<rect x="114.5" y="193.5" style="fill:#FFC107;" width="47" height="9.6"/>
			</g>
			<polygon style="fill:#FF5722;" points="130.1,152.5 130.2,148.5 125,141.7 133.2,139.3 136.5,134.5 138.1,132.2 139.6,134.5 
				142.9,139.3 151.1,141.7 145.9,148.5 146,152.5 146.1,157.1 138.1,154.2 130,157.1 			"/>
			<path style="opacity:0.1;enable-background:new    ;" d="M104.7,140.8v-6.3h9.5v17.8C108.7,151.2,104.7,146.5,104.7,140.8z
				 M122.1,193.6h8.3c-1.2-3.9,5.6-9.8,5.6-9.8v-7.5c-23.4-8.3-13.7-57.8-13.7-57.8h-8.1v7H95.7v15.3c0,11.2,8.9,20.3,20.1,20.7
				c2.9,7.5,9.4,13.2,17.4,14.8v7.4C128.1,185.2,124.1,188.9,122.1,193.6"/>
			<g style="opacity:0.1;">
				<polygon points="114.5,203.2 114.5,193.5 130.4,193.5 130.4,203.2 				"/>
			</g>
		</g>
	</g>
</g>
</svg>
