<?xml version="1.0" encoding="utf-8"?>
<!-- Generator: Adobe Illustrator 21.0.2, SVG Export Plug-In . SVG Version: 6.00 Build 0)  -->
<svg version="1.1" id="hotairballoon" xmlns="http://www.w3.org/2000/svg" xmlns:xlink="http://www.w3.org/1999/xlink" x="0px"
	 y="0px" viewBox="0 0 111 177.4" style="enable-background:new 0 0 111 177.4;" xml:space="preserve">
<style type="text/css">
	.st0{fill:#7C3119;}
	.st1{opacity:0.2;enable-background:new    ;}
	.st2{fill:#EE4638;}
	.st3{fill:#FABF17;}
	.st4{fill:#FFFFFF;}
	.st5{fill:#9C1F60;}
	.st6{fill:#F1B59A;}
	.st7{fill:#333333;}
	.st8{fill:none;stroke:#A43E23;stroke-width:0.7565;stroke-miterlimit:10;}
	.st9{fill:none;stroke:#FABF17;stroke-width:0.7565;stroke-miterlimit:10;}
	.st10{fill:#EA2725;}
</style>
<g>
	<polygon class="st0" points="66.2,108.8 68.7,107.9 74.1,139.1 71.7,140 	"/>
	<polygon class="st0" points="39.2,139 43.8,98 45.8,99.1 41.3,140.1 	"/>
	<polygon class="st1" points="39.2,139 43.8,98 45.8,99.1 41.3,140.1 	"/>
	<g>
		<path class="st2" d="M55.6,7.4c23.3,0,33.1,21.5,33.1,41c0,26.6-16,43.6-23.6,57H46.3C38.8,92,22.7,75,22.7,48.4
			C22.6,28.9,32.4,7.4,55.6,7.4C22.1,7.4,6.8,29.1,6.8,49.3c0,21.3,14.5,36.2,26,48.3c3.6,3.7,6.8,7.1,9.2,10.2
			c0.2,0.3,4.7,7.6,5.1,7.6h16.6c0.4,0,4.9-7.2,5.1-7.6c2.4-3.1,5.8-6.6,9.2-10.2c11.6-12,26-27,26-48.3
			C104.3,29.1,89.1,7.4,55.6,7.4z"/>
		<path class="st3" d="M55.6,7.4c-31.7,0-45.1,21.5-45.1,41c0,26.6,21.9,43.6,32.3,57h25.6c10.4-13.4,32.3-30.4,32.3-57
			C100.6,28.9,87.3,7.4,55.6,7.4z"/>
		<path class="st4" d="M22.6,48.4c0,26.6,16,43.6,23.6,57h18.7C72.5,92,88.5,75,88.5,48.4c0-19.5-9.8-41-33.1-41
			C32.4,7.4,22.6,28.9,22.6,48.4z"/>
		<path class="st2" d="M15.2,48.4c0,26.6,19.7,43.6,29,57h23c9.3-13.4,29-30.4,29-57c0-19.5-12-41-40.6-41
			C27.2,7.4,15.2,28.9,15.2,48.4z"/>
		<path class="st3" d="M22.6,48.4c0,26.6,16,43.6,23.6,57h18.7C72.5,92,88.5,75,88.5,48.4c0-19.5-9.8-41-33.1-41
			C32.4,7.4,22.6,28.9,22.6,48.4z"/>
		<path class="st2" d="M61.7,105.4C66.7,92,78.9,75,78.9,47.7c0-19.1-6.9-40.3-23.3-40.3S32.3,28.5,32.3,47.7
			c0,27.2,12.2,44.3,17.3,57.5L61.7,105.4z"/>
		<path class="st3" d="M57.9,105.4C59.8,92,64.2,75,64.2,47.7c0-19.1-2.6-40.3-8.6-40.3S47,28.5,47,47.7c0,27.2,4.5,44.3,6.3,57.5
			L57.9,105.4z"/>
	</g>
	<g>
		<rect x="48.8" y="136.3" class="st5" width="13.7" height="16.4"/>
		<path class="st6" d="M56.3,120.7c3.2,2.2,5.2,5.2,6.2,8c-0.6,3.5-3.7,5.8-7,5.8c-3,0-5.7-2-6.7-4.7
			C50.4,126.3,52.7,122.5,56.3,120.7z"/>
		<g>
			<circle class="st7" cx="52.9" cy="128.1" r="1"/>
		</g>
		<g>
			<circle class="st7" cx="58.2" cy="128.1" r="1"/>
		</g>
		<g>
			<path class="st7" d="M57.7,131.5c-0.2-0.2-0.4-0.4-0.8-0.2c0,0-0.6,0.4-1.4,0.4c-0.8,0-1.4-0.4-1.4-0.4c-0.2-0.2-0.6,0-0.8,0.2
				s0,0.6,0.2,0.8c0,0,0.8,0.4,2,0.4s1.8-0.4,2-0.4C57.7,132.1,57.9,132,57.7,131.5z"/>
		</g>
		<path class="st7" d="M66.4,141.8c0,0-1.4-5-1-9.9c0-0.6,0.2-1,0.2-1.6c0.6-7.2-0.8-15.1-10.5-13.5c-10.9,1.8-10.1,15.1-7.5,22.4
			l0,0c0.2,0.4,0.2,0.6,0.4,1s0.4,0.8,0.6,1.2c-1,2.4-1.4,5.5-1.4,8.7h2.4c0-2.2,0.4-4.5,0.8-6.2c1.4,1.6,2.7,2.4,2.7,2.4
			s-2.2-6.7,1.4-8.7c0.4-0.2,1-0.4,1.4-0.4c0.8,0,1.6,0.4,2.2,0.8c3.7,3,0,10.9,0,10.9s2-1,3.7-4.2c0.4,1.6,0.6,3.5,0.6,5.2h2.4
			c0-1.2,0-2.4-0.2-3.7c-0.2-2.2-0.2-4.7,0-6.9C65.4,141.2,66.4,141.8,66.4,141.8z M56.2,120.6c3.2,2.2,5.2,5.2,6.2,8
			c-0.6,3.5-3.7,5.8-7,5.8c-3,0-5.7-2-6.7-4.7C50.4,126.3,52.7,122.4,56.2,120.6z"/>
	</g>
	<rect x="33.7" y="139.3" class="st0" width="44.3" height="2.2"/>
	<rect x="33.7" y="139.3" class="st1" width="22.1" height="2.2"/>
	<polygon class="st0" points="72.1,169.1 39.6,169.1 35.9,139.3 75.9,139.3 	"/>
	<line class="st8" x1="37" y1="150.4" x2="74.7" y2="150.4"/>
	<line class="st8" x1="37.8" y1="156.8" x2="73.9" y2="156.8"/>
	<line class="st8" x1="38.6" y1="163.7" x2="73" y2="163.7"/>
	<path class="st9" d="M34,139.5c7.8,11.9,14.6,0,14.6,0"/>
	<path class="st1" d="M55.6,7.5C22.1,7.5,6.8,29.2,6.8,49.4c0,21.3,14.5,36.2,26,48.3c3.6,3.7,6.8,7.1,9.2,10.2
		c0.2,0.3,4.7,7.6,5.1,7.6h8.5V7.5"/>
	<path class="st9" d="M63.1,139.5c0,0-6.8,11.9-14.6,0"/>
	<path class="st9" d="M63.1,139.5c7.8,11.9,14.6,0,14.6,0"/>
	<path class="st10" d="M48.5,139.4c0,0-4.6,7.1,0,7.1S48.5,139.4,48.5,139.4z"/>
	<path class="st10" d="M34.2,139.3c0,0-4.6,7.1,0,7.1S34.2,139.3,34.2,139.3z"/>
	<path class="st10" d="M63.1,139.5c0,0-4.6,7.1,0,7.1S63.1,139.5,63.1,139.5z"/>
	<path class="st10" d="M77.7,139.4c0,0-4.6,7.1,0,7.1C82.3,146.6,77.7,139.4,77.7,139.4z"/>
	<polyline class="st1" points="76.3,139.3 35.9,139.3 39.6,169.1 55.9,169.1 55.8,139.3 35.9,139.3 	"/>
</g>
</svg>
