<?xml version="1.0" encoding="utf-8"?>
<!-- Generator: Adobe Illustrator 21.0.2, SVG Export Plug-In . SVG Version: 6.00 Build 0)  -->
<svg version="1.1" id="Layer_1" xmlns="http://www.w3.org/2000/svg" xmlns:xlink="http://www.w3.org/1999/xlink" x="0px" y="0px"
	 viewBox="0 0 123.8 124.4" style="enable-background:new 0 0 123.8 124.4;" xml:space="preserve">
<path d="M17.3,102.2c-0.6,0.5-0.6,1.4-0.1,2c0.3,0.3,0.6,0.4,1,0.4c0.3,0,0.7-0.1,1-0.4c0.6-0.5,0.6-1.4,0.1-2
	C18.7,101.7,17.8,101.7,17.3,102.2z"/>
<path d="M29.7,111c-0.6-0.4-1.5-0.2-1.9,0.4c-0.4,0.7-0.2,1.5,0.4,2c0.2,0.2,0.5,0.2,0.8,0.2c0.5,0,0.9-0.2,1.2-0.6
	C30.5,112.3,30.3,111.5,29.7,111z"/>
<path d="M81.9,117c-0.7,0.3-1.1,1.1-0.8,1.8c0.2,0.6,0.8,0.9,1.3,0.9c0.2,0,0.3,0,0.5-0.1c0.7-0.3,1.1-1.1,0.8-1.8
	C83.5,117.1,82.7,116.8,81.9,117z"/>
<path d="M9.2,90.9c-0.7,0.4-0.9,1.3-0.5,1.9c0.3,0.5,0.7,0.7,1.2,0.7c0.2,0,0.5-0.1,0.7-0.2c0.7-0.4,0.9-1.2,0.5-1.9
	S9.9,90.5,9.2,90.9z"/>
<path d="M94.1,110.9c-0.7,0.4-0.8,1.3-0.4,2c0.3,0.4,0.7,0.6,1.2,0.6c0.3,0,0.5-0.1,0.8-0.2c0.6-0.4,0.8-1.3,0.4-2
	C95.6,110.7,94.7,110.5,94.1,110.9z"/>
<path d="M3.3,65.6c0-0.8-0.7-1.4-1.5-1.3c-0.8,0-1.4,0.7-1.3,1.4c0,0.8,0.7,1.3,1.4,1.3H2C2.8,67,3.4,66.3,3.3,65.6z"/>
<path d="M3.9,78c-0.8,0.2-1.2,1-1,1.8l0,0c0.2,0.6,0.7,1,1.3,1c0.1,0,0.3,0,0.4-0.1c0.8-0.2,1.2-1,0.9-1.8C5.5,78.2,4.7,77.8,3.9,78
	z"/>
<path d="M61.6,3.4L61.6,3.4h0.2c0.8,0,1.4-0.6,1.4-1.4s-0.6-1.4-1.4-1.4h-0.1h-0.1c-0.8,0-1.4,0.6-1.4,1.4
	C60.2,2.8,60.8,3.4,61.6,3.4z"/>
<path d="M116.9,39.6c0.2,0,0.4,0,0.6-0.1c0.7-0.3,1-1.1,0.7-1.9c-0.3-0.7-1.1-1-1.9-0.7c-0.7,0.3-1,1.1-0.7,1.9
	C115.8,39.3,116.3,39.6,116.9,39.6z"/>
<path d="M99.4,17.1c0.3,0.2,0.6,0.3,0.9,0.3c0.4,0,0.8-0.2,1.1-0.5c0.5-0.6,0.4-1.5-0.2-2s-1.5-0.4-2,0.2
	C98.8,15.7,98.8,16.6,99.4,17.1L99.4,17.1z"/>
<path d="M68.7,120.2c-0.8,0.1-1.3,0.8-1.2,1.6c0.1,0.7,0.7,1.2,1.4,1.2c0.1,0,0.1,0,0.2,0c0.8-0.1,1.3-0.8,1.2-1.6
	C70.2,120.6,69.5,120.1,68.7,120.2z"/>
<path d="M75.3,5c0.1,0,0.2,0,0.3,0c0.6,0,1.2-0.4,1.4-1.1c0.2-0.8-0.3-1.5-1-1.7c-0.8-0.2-1.5,0.3-1.7,1C74.1,4,74.5,4.8,75.3,5z"/>
<path d="M120.9,52.9c0.1,0,0.2,0,0.2,0c0.8-0.1,1.3-0.9,1.2-1.6c-0.1-0.8-0.9-1.3-1.6-1.1c-0.8,0.1-1.3,0.9-1.1,1.6
	C119.6,52.5,120.2,52.9,120.9,52.9z"/>
<path d="M2.4,53.1c0.1,0,0.2,0,0.2,0c0.7,0,1.3-0.5,1.4-1.2l0,0c0.1-0.8-0.4-1.5-1.2-1.6s-1.5,0.4-1.6,1.2S1.7,53,2.4,53.1z"/>
<path d="M41.9,117.1c-0.7-0.3-1.5,0.1-1.8,0.9c-0.3,0.7,0.1,1.5,0.8,1.8c0.2,0.1,0.3,0.1,0.5,0.1c0.6,0,1.1-0.4,1.3-0.9
	C43,118.2,42.6,117.4,41.9,117.1z"/>
<path d="M55.1,120.2c-0.8-0.1-1.5,0.5-1.6,1.2c-0.1,0.8,0.5,1.5,1.2,1.6c0,0,0.1,0,0.2,0c0.7,0,1.3-0.5,1.4-1.2
	C56.4,121,55.9,120.3,55.1,120.2z"/>
<path d="M47.8,5.1c0.1,0,0.2,0,0.3,0c0.8-0.2,1.2-0.9,1-1.7s-0.9-1.2-1.7-1s-1.2,0.9-1,1.7C46.5,4.6,47.1,5.1,47.8,5.1z"/>
<path d="M104.5,102.1c-0.5,0.6-0.5,1.5,0.1,2c0.3,0.2,0.6,0.4,1,0.4s0.8-0.2,1-0.5c0.5-0.6,0.5-1.5-0.1-2S105,101.6,104.5,102.1z"/>
<path d="M23.1,17.6c0.3,0,0.6-0.1,0.9-0.3c0.6-0.5,0.7-1.4,0.2-2s-1.4-0.7-2-0.2s-0.7,1.4-0.2,2C22.3,17.4,22.7,17.6,23.1,17.6z"/>
<path d="M88.1,9.6L88.1,9.6c0.2,0.1,0.4,0.2,0.6,0.2c0.5,0,1-0.3,1.3-0.8c0.4-0.7,0.1-1.6-0.6-1.9S87.9,7,87.5,7.7
	S87.4,9.3,88.1,9.6z"/>
<path d="M114.5,90.7c-0.7-0.4-1.5-0.2-1.9,0.5l0,0c-0.4,0.7-0.2,1.5,0.5,1.9c0.2,0.1,0.5,0.2,0.7,0.2c0.5,0,1-0.2,1.2-0.7
	C115.4,92,115.2,91.1,114.5,90.7z"/>
<path d="M34.7,9.9c0.2,0,0.4,0,0.6-0.1c0.7-0.4,1-1.2,0.6-1.9s-1.2-1-1.9-0.6s-1,1.2-0.6,1.9C33.7,9.6,34.2,9.9,34.7,9.9z"/>
<path d="M119.7,77.8c-0.8-0.2-1.5,0.2-1.8,1l0,0c-0.2,0.8,0.2,1.5,1,1.8c0.1,0,0.3,0.1,0.4,0.1c0.6,0,1.2-0.4,1.4-1
	C120.9,78.8,120.5,78,119.7,77.8z"/>
<path d="M121.8,64c-0.8,0-1.4,0.5-1.5,1.3c0,0.8,0.6,1.5,1.3,1.5h0.1c0.8,0,1.4-0.6,1.4-1.3C123.2,64.7,122.6,64.1,121.8,64z"/>
<path d="M109.9,27.6c0.3,0,0.6-0.1,0.8-0.3c0.6-0.5,0.8-1.4,0.3-2s-1.4-0.8-2-0.3s-0.8,1.3-0.3,2C109.1,27.4,109.5,27.6,109.9,27.6z
	"/>
<path d="M6.1,39.7c0.2,0.1,0.4,0.1,0.6,0.1c0.5,0,1.1-0.3,1.3-0.9c0.3-0.7,0-1.6-0.7-1.9c-0.7-0.3-1.5,0-1.9,0.7
	C5,38.5,5.3,39.4,6.1,39.7z"/>
<path d="M13.6,27.7c0.4,0,0.9-0.2,1.1-0.6c0.5-0.6,0.3-1.5-0.3-2s-1.5-0.3-2,0.3c-0.5,0.6-0.3,1.5,0.3,2
	C13,27.6,13.3,27.7,13.6,27.7z"/>
<path d="M50.7,114.6c-0.7-0.1-1.4,0.3-1.5,1s0.3,1.4,1,1.5c0.1,0,0.2,0,0.3,0c0.6,0,1.1-0.4,1.3-1C51.9,115.4,51.4,114.7,50.7,114.6
	z"/>
<path d="M79,11.1c0.1,0.1,0.3,0.1,0.4,0.1c0.5,0,1-0.3,1.2-0.9c0.2-0.7-0.1-1.4-0.8-1.6c-0.7-0.2-1.4,0.1-1.6,0.8
	C77.9,10.1,78.3,10.9,79,11.1z"/>
<path d="M63.1,115.7c-0.7,0-1.3,0.6-1.3,1.3s0.6,1.3,1.3,1.3l0,0c0.7,0,1.3-0.6,1.3-1.3C64.5,116.2,63.9,115.7,63.1,115.7z"/>
<path d="M41.6,12.1c0.1,0,0.3,0,0.5-0.1c0.7-0.3,1-1,0.7-1.7s-1-1-1.7-0.7s-1,1-0.7,1.7C40.6,11.8,41.1,12.1,41.6,12.1z"/>
<path d="M108.8,34.7c0.2,0,0.5-0.1,0.7-0.2c0.6-0.4,0.8-1.2,0.4-1.8s-1.2-0.8-1.8-0.4c-0.6,0.4-0.8,1.2-0.4,1.8
	C107.9,34.4,108.3,34.7,108.8,34.7z"/>
<path d="M100,22.4c-0.5,0.5-0.5,1.3,0,1.8c0.2,0.2,0.6,0.4,0.9,0.4s0.7-0.1,0.9-0.4c0.5-0.5,0.5-1.3,0-1.8l0,0
	C101.3,21.9,100.5,21.9,100,22.4z"/>
<path d="M54,8.8c0.1,0,0.1,0,0.2,0h0.1h0.1c0.7-0.1,1.2-0.8,1.1-1.5c-0.1-0.7-0.8-1.2-1.5-1.1h-0.1h-0.1c-0.7,0.1-1.2,0.8-1.1,1.5
	C52.8,8.4,53.3,8.8,54,8.8z"/>
<path d="M9.2,72.7c-0.1-0.7-0.8-1.2-1.5-1c-0.7,0.1-1.1,0.8-1,1.5c0.1,0.6,0.7,1,1.3,1c0.1,0,0.2,0,0.3,0
	C8.9,74.1,9.3,73.4,9.2,72.7z"/>
<path d="M6.8,61.5c0.7,0,1.3-0.6,1.3-1.3s-0.5-1.3-1.2-1.3s-1.3,0.5-1.3,1.2C5.5,60.9,6.1,61.5,6.8,61.5L6.8,61.5z"/>
<path d="M7.5,47.2c-0.2,0.7,0.2,1.4,0.9,1.6c0.1,0,0.2,0,0.3,0c0.6,0,1.1-0.4,1.2-1c0.2-0.7-0.2-1.4-0.9-1.6
	C8.4,46.2,7.6,46.6,7.5,47.2z"/>
<path d="M20.8,26.6c0.4,0,0.7-0.1,1-0.4c0.5-0.5,0.4-1.4-0.1-1.8c-0.5-0.5-1.4-0.4-1.8,0.1c-0.5,0.5-0.4,1.4,0.1,1.8
	C20.2,26.5,20.5,26.6,20.8,26.6z"/>
<path d="M14.1,34.6c-0.6-0.3-1.4-0.1-1.8,0.5c-0.3,0.6-0.1,1.4,0.5,1.8C13,37,13.2,37,13.5,37c0.5,0,0.9-0.2,1.1-0.7
	C14.9,35.7,14.7,34.9,14.1,34.6z"/>
<path d="M17.7,94.9c-0.6,0.5-0.7,1.3-0.2,1.8c0.3,0.3,0.6,0.5,1,0.5c0.3,0,0.6-0.1,0.8-0.3c0.6-0.4,0.7-1.3,0.2-1.8
	C19.1,94.6,18.3,94.5,17.7,94.9z"/>
<path d="M11.3,83.9c-0.6,0.3-0.9,1.1-0.6,1.7c0.2,0.5,0.7,0.8,1.2,0.8c0.2,0,0.4,0,0.5-0.1c0.6-0.3,0.9-1.1,0.6-1.7
	C12.7,83.9,12,83.6,11.3,83.9z"/>
<path d="M28.5,105.8c0.4-0.6,0.3-1.4-0.2-1.8c-0.6-0.4-1.4-0.4-1.8,0.2s-0.4,1.4,0.2,1.8c0.2,0.2,0.5,0.3,0.8,0.3
	C27.9,106.3,28.3,106.1,28.5,105.8z"/>
<path d="M90.2,16.4c0.2,0.1,0.5,0.2,0.7,0.2c0.4,0,0.9-0.2,1.1-0.6c0.4-0.6,0.2-1.4-0.4-1.8c-0.6-0.4-1.4-0.2-1.8,0.4
	C89.5,15.3,89.6,16.1,90.2,16.4z"/>
<path d="M30.4,18.1c0.3,0,0.5-0.1,0.7-0.2c0.6-0.4,0.7-1.2,0.3-1.8c-0.4-0.6-1.2-0.7-1.8-0.3c-0.6,0.4-0.7,1.2-0.3,1.8
	C29.6,17.9,30,18.1,30.4,18.1z"/>
<path d="M38.9,110.6c-0.6-0.3-1.4,0-1.7,0.6s0,1.4,0.6,1.7c0.2,0.1,0.4,0.1,0.5,0.1c0.5,0,1-0.3,1.2-0.7
	C39.8,111.7,39.6,110.9,38.9,110.6z"/>
<path d="M97.3,102.3c-0.5,0.5-0.6,1.3-0.1,1.8c0.2,0.3,0.6,0.4,1,0.4c0.3,0,0.6-0.1,0.9-0.3c0.5-0.5,0.6-1.3,0.1-1.8
	C98.7,101.9,97.9,101.8,97.3,102.3z"/>
<path d="M75.5,113.9c-0.7,0.2-1.1,0.9-0.9,1.6c0.2,0.6,0.7,1,1.2,1c0.1,0,0.2,0,0.3,0c0.7-0.2,1.1-0.9,0.9-1.6
	C76.9,114.2,76.2,113.8,75.5,113.9z"/>
<path d="M66.8,8.5L66.8,8.5c0.8,0,1.3-0.5,1.4-1.2C68.3,6.6,67.7,6,67,5.9s-1.3,0.5-1.4,1.2S66.1,8.4,66.8,8.5z"/>
<path d="M114.1,46.2c0.1,0,0.3,0,0.4-0.1c0.7-0.2,1-1,0.8-1.6c-0.2-0.7-1-1.1-1.6-0.8c-0.7,0.2-1,0.9-0.8,1.6
	C113,45.9,113.6,46.2,114.1,46.2z"/>
<path d="M105.6,93c-0.4,0.6-0.3,1.4,0.3,1.8c0.2,0.2,0.5,0.2,0.8,0.2c0.4,0,0.8-0.2,1.1-0.5c0.4-0.6,0.3-1.4-0.3-1.8
	C106.9,92.3,106.1,92.4,105.6,93z"/>
<path d="M87.1,109.4c-0.6,0.3-0.9,1.1-0.5,1.8c0.2,0.4,0.7,0.7,1.2,0.7c0.2,0,0.4,0,0.6-0.2c0.6-0.3,0.9-1.1,0.5-1.8
	C88.5,109.3,87.7,109.1,87.1,109.4z"/>
<path d="M114,83L114,83c0.3-0.7-0.1-1.4-0.7-1.7c-0.7-0.3-1.4,0-1.7,0.7c-0.3,0.7,0,1.4,0.7,1.7c0.2,0.1,0.3,0.1,0.5,0.1
	C113.3,83.8,113.8,83.5,114,83z"/>
<path d="M116.4,69c-0.7-0.1-1.4,0.4-1.5,1.1s0.4,1.4,1.1,1.5c0.1,0,0.1,0,0.2,0c0.6,0,1.2-0.5,1.3-1.1
	C117.6,69.7,117.1,69.1,116.4,69z"/>
<path d="M116.5,56.2c-0.7,0.1-1.2,0.7-1.2,1.4c0.1,0.7,0.6,1.2,1.3,1.2h0.1c0.7,0,1.2-0.7,1.2-1.4C117.8,56.6,117.2,56.1,116.5,56.2
	z"/>
<path d="M13.6,75.3c-0.6,0.2-1,0.8-0.8,1.5c0.1,0.5,0.6,0.8,1.1,0.8c0.1,0,0.2,0,0.3,0c0.6-0.2,1-0.8,0.8-1.5S14.2,75.1,13.6,75.3z"
	/>
<path d="M39.2,18.6c0.2,0,0.4,0,0.5-0.1c0.6-0.3,0.8-1,0.5-1.6s-1-0.8-1.6-0.5s-0.8,1-0.5,1.6C38.4,18.3,38.8,18.6,39.2,18.6z"/>
<path d="M88.7,102.8c-0.5,0.3-0.7,1.1-0.3,1.6c0.2,0.3,0.6,0.5,1,0.5c0.2,0,0.5-0.1,0.7-0.2c0.5-0.4,0.7-1.1,0.3-1.6
	C90,102.5,89.2,102.4,88.7,102.8z"/>
<path d="M16.9,42.8c0.3-0.6,0-1.3-0.6-1.6s-1.3,0-1.5,0.6c-0.3,0.6,0,1.3,0.6,1.5c0.1,0.1,0.3,0.1,0.5,0.1
	C16.3,43.5,16.7,43.2,16.9,42.8z"/>
<path d="M35,102.8c-0.5-0.4-1.3-0.2-1.6,0.3c-0.4,0.5-0.2,1.3,0.3,1.6c0.2,0.1,0.4,0.2,0.6,0.2c0.4,0,0.8-0.2,1-0.5
	C35.8,103.9,35.6,103.2,35,102.8z"/>
<path d="M45.2,107.9c-0.6-0.2-1.3,0.1-1.5,0.7s0.1,1.3,0.7,1.5c0.1,0,0.3,0.1,0.4,0.1c0.5,0,0.9-0.3,1.1-0.8
	C46.1,108.8,45.8,108.1,45.2,107.9z"/>
<path d="M26.4,95.6c-0.5-0.5-1.2-0.5-1.7,0c-0.5,0.4-0.5,1.2,0,1.7c0.2,0.2,0.5,0.4,0.9,0.4c0.3,0,0.6-0.1,0.8-0.3
	C26.8,96.8,26.8,96,26.4,95.6z"/>
<path d="M78.6,107.9c-0.6,0.2-0.9,0.9-0.7,1.5c0.2,0.5,0.6,0.8,1.1,0.8c0.1,0,0.3,0,0.4-0.1c0.6-0.2,0.9-0.9,0.7-1.5
	C79.9,108,79.2,107.6,78.6,107.9z"/>
<path d="M11.9,66.2L11.9,66.2c0.7,0,1.2-0.6,1.2-1.2c0-0.7-0.6-1.2-1.2-1.1c-0.6,0.1-1.1,0.6-1.1,1.2C10.8,65.7,11.3,66.2,11.9,66.2
	z"/>
<path d="M104.5,88c0.2,0.1,0.4,0.2,0.6,0.2c0.4,0,0.8-0.2,1-0.6c0.3-0.6,0.1-1.3-0.4-1.6c-0.6-0.3-1.3-0.1-1.6,0.4
	S104,87.6,104.5,88z"/>
<path d="M20.7,31.6c-0.4,0.5-0.3,1.3,0.2,1.6c0.2,0.2,0.5,0.2,0.7,0.2c0.4,0,0.7-0.2,1-0.5c0.4-0.5,0.3-1.3-0.2-1.6
	C21.8,30.9,21,31,20.7,31.6z"/>
<path d="M18,86.1c-0.6,0.3-0.8,1-0.4,1.6c0.2,0.4,0.6,0.6,1,0.6c0.2,0,0.4-0.1,0.6-0.2c0.6-0.3,0.8-1.1,0.4-1.6S18.5,85.8,18,86.1z"
	/>
<path d="M97.4,97.1c0.2,0.2,0.5,0.3,0.8,0.3s0.6-0.1,0.9-0.4c0.5-0.5,0.4-1.2,0-1.7c-0.5-0.5-1.2-0.4-1.7,0l0,0
	C96.9,95.9,96.9,96.7,97.4,97.1z"/>
<path d="M110.1,75.2c-0.6-0.2-1.3,0.2-1.5,0.8c-0.2,0.6,0.2,1.3,0.8,1.5c0.1,0,0.2,0,0.3,0c0.5,0,1-0.3,1.1-0.8
	C111,76,110.7,75.3,110.1,75.2z"/>
<path d="M108.8,41.7c-0.3-0.6-1-0.9-1.5-0.6c-0.6,0.3-0.9,1-0.6,1.6c0.2,0.4,0.6,0.7,1.1,0.7c0.1,0,0.3,0,0.5-0.1
	C108.8,43,109,42.3,108.8,41.7z"/>
<path d="M49,13.6c0.1,0.5,0.6,0.9,1.1,0.9c0.1,0,0.2,0,0.3,0c0.6-0.2,1-0.8,0.9-1.4c-0.2-0.6-0.8-1-1.4-0.9
	C49.2,12.4,48.8,13,49,13.6z"/>
<path d="M29.5,25c0.3,0,0.5-0.1,0.8-0.3c0.5-0.4,0.6-1.2,0.1-1.6c-0.4-0.5-1.2-0.6-1.7-0.1c-0.5,0.4-0.5,1.2-0.1,1.6
	C28.9,24.8,29.2,25,29.5,25z"/>
<path d="M83.7,18.3c0.2,0.1,0.3,0.1,0.5,0.1c0.4,0,0.9-0.2,1.1-0.7c0.3-0.6,0.1-1.3-0.5-1.6s-1.3-0.1-1.6,0.5
	C82.9,17.4,83.1,18.1,83.7,18.3z"/>
<path d="M12.3,54.6c0.1,0,0.1,0,0.2,0c0.6,0,1.1-0.4,1.2-1c0.1-0.6-0.3-1.2-1-1.4c-0.6-0.1-1.2,0.3-1.4,1
	C11.3,53.9,11.7,54.5,12.3,54.6z"/>
<path d="M61.6,13.2C61.6,13.2,61.7,13.2,61.6,13.2c0.1,0,0.1,0,0.2,0c0.6,0,1.2-0.5,1.2-1.2s-0.5-1.2-1.2-1.2h-0.1h-0.1
	c-0.6,0-1.2,0.5-1.2,1.2C60.4,12.6,61,13.2,61.6,13.2z"/>
<path d="M56.2,110.5c-0.6-0.1-1.2,0.4-1.3,1s0.4,1.2,1,1.3H56c0.6,0,1.1-0.4,1.2-1C57.3,111.2,56.9,110.6,56.2,110.5z"/>
<path d="M109.9,53.5c0.1,0.6,0.6,1,1.2,1c0.1,0,0.1,0,0.2,0c0.6-0.1,1.1-0.7,1-1.4c-0.1-0.6-0.7-1.1-1.4-1
	C110.2,52.2,109.8,52.8,109.9,53.5z"/>
<path d="M93.9,24.9c0.3,0,0.7-0.1,0.9-0.4c0.4-0.5,0.3-1.2-0.2-1.6S93.4,22.5,93,23s-0.4,1.2,0.1,1.7C93.4,24.8,93.7,24.9,93.9,24.9
	z"/>
<path d="M101.2,31.2c-0.5,0.4-0.6,1.1-0.2,1.6c0.2,0.3,0.6,0.5,0.9,0.5c0.2,0,0.5-0.1,0.7-0.2c0.5-0.4,0.6-1.1,0.2-1.6
	S101.7,30.8,101.2,31.2z"/>
<path d="M73.1,14.5c0.1,0,0.2,0,0.3,0c0.5,0,1-0.4,1.1-0.9c0.2-0.6-0.2-1.3-0.9-1.4c-0.6-0.1-1.3,0.2-1.4,0.9
	C72,13.7,72.4,14.3,73.1,14.5z"/>
<path d="M67.8,112.8c0.6-0.1,1.1-0.7,1-1.3c-0.1-0.6-0.7-1.1-1.3-1c-0.6,0.1-1.1,0.7-1,1.3c0.1,0.6,0.6,1,1.2,1H67.8z"/>
<path d="M110.5,64.8c0,0.6,0.5,1.2,1.1,1.2h0.1c0.6,0,1.1-0.5,1.2-1.1c0-0.6-0.5-1.2-1.1-1.2C111.1,63.6,110.6,64.1,110.5,64.8z"/>
<path d="M43.1,101.8c-0.5-0.2-1.2,0-1.4,0.5s0,1.2,0.5,1.4c0.1,0.1,0.3,0.1,0.4,0.1c0.4,0,0.8-0.2,1-0.6
	C43.8,102.6,43.6,102,43.1,101.8z"/>
<path d="M90.9,95c-0.4,0.4-0.5,1.1-0.1,1.5c0.2,0.2,0.5,0.4,0.8,0.4c0.2,0,0.5-0.1,0.7-0.3c0.4-0.4,0.5-1.1,0.1-1.5
	C92,94.6,91.3,94.6,90.9,95z"/>
<path d="M105.3,68.6c-0.1,0.6,0.3,1.1,0.9,1.2c0.1,0,0.1,0,0.2,0c0.5,0,1-0.4,1-0.9c0.1-0.6-0.3-1.1-0.9-1.2S105.3,68,105.3,68.6z"
	/>
<path d="M17.7,72c0.1,0,0.1,0,0.2,0c0.6-0.1,0.9-0.7,0.8-1.2c-0.1-0.6-0.7-0.9-1.2-0.8c-0.6,0.1-0.9,0.7-0.8,1.2
	C16.8,71.7,17.2,72,17.7,72z"/>
<path d="M16.8,61.6c0.6,0,1-0.4,1.1-1c0-0.6-0.4-1.1-1-1.1s-1.1,0.4-1.1,1C15.7,61.1,16.2,61.6,16.8,61.6L16.8,61.6z"/>
<path d="M55.3,16.4L55.3,16.4c-0.7,0.1-1.1,0.6-1,1.2c0.1,0.5,0.5,0.9,1,0.9c0.1,0,0.1,0,0.2,0c0,0,0,0,0.1,0c0,0,0,0,0.1,0
	c0.6-0.1,1-0.6,0.9-1.2C56.5,16.7,56,16.3,55.3,16.4C55.4,16.4,55.3,16.4,55.3,16.4z"/>
<path d="M28.3,33c0.3,0,0.6-0.1,0.8-0.4c0.4-0.4,0.4-1.1-0.1-1.5c-0.4-0.4-1.1-0.4-1.5,0.1c-0.4,0.4-0.4,1.1,0.1,1.5
	C27.8,32.9,28,33,28.3,33z"/>
<path d="M93.8,31.4c0.3,0,0.5-0.1,0.7-0.3c0.4-0.4,0.4-1.1,0-1.5s-1.1-0.4-1.5,0s-0.4,1.1,0,1.5C93.2,31.3,93.5,31.4,93.8,31.4z"/>
<path d="M18.1,51.2c0.1,0,0.2,0,0.3,0c0.5,0,0.9-0.3,1-0.8c0.2-0.6-0.2-1.1-0.7-1.3c-0.6-0.1-1.1,0.2-1.3,0.7
	C17.2,50.5,17.5,51.1,18.1,51.2z"/>
<path d="M101.1,38c-0.3-0.5-1-0.7-1.5-0.4S99,38.5,99.3,39c0.2,0.3,0.5,0.5,0.9,0.5c0.2,0,0.4-0.1,0.5-0.2
	C101.3,39.2,101.5,38.5,101.1,38z"/>
<path d="M104.5,79.2c0.2-0.5,0-1.2-0.6-1.4c-0.6-0.2-1.2,0-1.4,0.6c-0.2,0.5,0,1.2,0.6,1.4c0.1,0,0.3,0.1,0.4,0.1
	C104,79.9,104.4,79.6,104.5,79.2z"/>
<path d="M22.8,39.6c-0.5-0.3-1.2-0.1-1.4,0.4c-0.3,0.5-0.1,1.2,0.4,1.4c0.2,0.1,0.3,0.1,0.5,0.1c0.4,0,0.7-0.2,0.9-0.6l0,0
	C23.5,40.5,23.3,39.9,22.8,39.6z"/>
<path d="M104.6,49.1c0.1,0,0.2,0,0.3,0c0.6-0.2,0.9-0.8,0.7-1.3l0,0c-0.2-0.6-0.8-0.9-1.3-0.7s-0.9,0.8-0.7,1.3
	C103.7,48.8,104.1,49.1,104.6,49.1z"/>
<path d="M25.7,89c-0.5,0.3-0.5,1-0.2,1.5c0.2,0.3,0.5,0.4,0.8,0.4c0.2,0,0.5-0.1,0.6-0.2c0.5-0.4,0.5-1,0.2-1.5
	C26.9,88.7,26.2,88.6,25.7,89z"/>
<path d="M73,104.5c-0.6,0.1-0.9,0.7-0.8,1.3c0.1,0.5,0.5,0.8,1,0.8c0.1,0,0.2,0,0.3,0c0.6-0.1,0.9-0.7,0.8-1.3
	C74.1,104.7,73.6,104.3,73,104.5z"/>
<path d="M52.7,105c-0.6-0.1-1.1,0.2-1.2,0.8c-0.1,0.6,0.2,1.1,0.8,1.2c0.1,0,0.1,0,0.2,0c0.5,0,0.9-0.3,1-0.8
	C53.7,105.7,53.3,105.1,52.7,105z"/>
<path d="M97.7,87.4c-0.3,0.5-0.2,1.1,0.2,1.5c0.2,0.1,0.4,0.2,0.6,0.2c0.3,0,0.7-0.2,0.9-0.5c0.3-0.5,0.2-1.1-0.2-1.5
	C98.7,86.8,98,86.9,97.7,87.4z"/>
<path d="M45.3,21.2c0.1,0,0.3,0,0.4-0.1c0.6-0.2,0.8-0.8,0.6-1.4c-0.2-0.5-0.8-0.8-1.4-0.6c-0.5,0.2-0.8,0.8-0.6,1.4
	C44.5,20.9,44.9,21.2,45.3,21.2z"/>
<path d="M34.6,97.8c0.4-0.5,0.3-1.1-0.2-1.5s-1.1-0.3-1.5,0.2s-0.3,1.1,0.2,1.5c0.2,0.2,0.4,0.2,0.7,0.2S34.4,98.1,34.6,97.8z"/>
<path d="M35.2,25.7c0.2,0.3,0.5,0.5,0.9,0.5c0.2,0,0.4-0.1,0.6-0.2c0.5-0.3,0.6-1,0.3-1.5s-1-0.6-1.5-0.3
	C35,24.5,34.9,25.2,35.2,25.7z"/>
<path d="M82.5,100.8c-0.5,0.3-0.7,0.9-0.4,1.4c0.2,0.4,0.6,0.6,0.9,0.6c0.2,0,0.3,0,0.5-0.1l0,0c0.5-0.3,0.7-0.9,0.4-1.4
	C83.6,100.7,83,100.5,82.5,100.8z"/>
<path d="M84.7,23.3c-0.3,0.5-0.2,1.1,0.3,1.5c0.2,0.1,0.4,0.2,0.6,0.2c0.4,0,0.7-0.2,0.9-0.5c0.3-0.5,0.2-1.1-0.3-1.5
	S85,22.8,84.7,23.3z"/>
<path d="M65.9,18.2C65.9,18.2,66,18.2,65.9,18.2c0.6,0,1.1-0.4,1.1-1c0.1-0.6-0.4-1.1-1-1.1c-0.6-0.1-1.1,0.4-1.2,0.9
	C64.9,17.7,65.3,18.2,65.9,18.2z"/>
<path d="M62.9,108L62.9,108c0.6,0,1.1-0.5,1.1-1.1s-0.5-1-1.1-1s-1,0.5-1,1.1S62.4,108,62.9,108z"/>
<path d="M20.5,79.9c-0.5,0.2-0.8,0.9-0.5,1.4c0.2,0.4,0.6,0.6,1,0.6c0.1,0,0.3,0,0.4-0.1c0.5-0.2,0.8-0.9,0.5-1.4
	C21.7,79.9,21,79.7,20.5,79.9z"/>
<path d="M76.5,18.3c-0.6-0.2-1.2,0.1-1.3,0.7c-0.2,0.6,0.1,1.2,0.7,1.4c0.1,0,0.2,0,0.3,0c0.4,0,0.8-0.3,1-0.7
	C77.4,19.1,77.1,18.5,76.5,18.3z"/>
<path d="M107.7,58.2c0-0.6-0.6-1-1.2-1c-0.6,0.1-1,0.6-1,1.1c0,0.6,0.5,1,1,1h0.1C107.3,59.3,107.8,58.8,107.7,58.2z"/>
<path d="M28.9,37.6c-0.3,0.4-0.2,1,0.2,1.3c0.2,0.1,0.4,0.2,0.6,0.2c0.3,0,0.6-0.1,0.8-0.4c0.3-0.4,0.2-1-0.2-1.3
	C29.8,37.1,29.2,37.2,28.9,37.6z"/>
<path d="M70.8,24c0.1,0,0.2,0,0.2,0c0.4,0,0.8-0.3,0.9-0.7c0.1-0.5-0.2-1-0.7-1.1s-1,0.2-1.1,0.7C70,23.4,70.3,23.9,70.8,24z"/>
<path d="M48.5,98.7c-0.5-0.2-1,0.1-1.2,0.6s0.1,1,0.6,1.2c0.1,0,0.2,0,0.3,0c0.4,0,0.8-0.2,0.9-0.6C49.2,99.5,49,98.9,48.5,98.7z"/>
<path d="M66.6,102.7c0.5-0.1,0.9-0.5,0.8-1.1c-0.1-0.5-0.5-0.9-1.1-0.8c-0.5,0.1-0.9,0.5-0.8,1s0.5,0.8,0.9,0.8
	C66.5,102.7,66.6,102.7,66.6,102.7z"/>
<path d="M28,81.6c-0.3-0.4-0.8-0.6-1.3-0.3c-0.5,0.3-0.6,0.8-0.3,1.3c0.2,0.3,0.5,0.5,0.8,0.5c0.2,0,0.3,0,0.5-0.1
	C28.1,82.6,28.3,82.1,28,81.6z"/>
<path d="M42.9,26.7c0.2,0.3,0.5,0.5,0.8,0.5c0.1,0,0.3,0,0.4-0.1c0.5-0.2,0.6-0.8,0.4-1.3c-0.2-0.5-0.8-0.6-1.3-0.4
	C42.8,25.7,42.6,26.3,42.9,26.7z"/>
<path d="M101.2,56c0.1,0,0.1,0,0.2,0c0.5-0.1,0.9-0.6,0.8-1.1s-0.6-0.9-1.1-0.8c-0.5,0.1-0.9,0.6-0.8,1.1
	C100.3,55.6,100.7,56,101.2,56z"/>
<path d="M90.9,90.3c0.2,0,0.5-0.1,0.7-0.3c0.3-0.4,0.3-1-0.1-1.3c-0.4-0.4-1-0.3-1.3,0c-0.4,0.4-0.3,1,0,1.3S90.7,90.3,90.9,90.3z"
	/>
<path d="M24.1,45.9c-0.2,0.5,0,1,0.5,1.2c0.1,0.1,0.2,0.1,0.4,0.1c0.4,0,0.7-0.2,0.9-0.6c0.2-0.5,0-1-0.5-1.2S24.4,45.4,24.1,45.9z"
	/>
<path d="M36,32.4c0.2,0,0.4-0.1,0.6-0.2c0.4-0.3,0.5-0.9,0.1-1.3c-0.3-0.4-0.9-0.4-1.3-0.1C35,31,34.9,31.6,35.3,32
	C35.5,32.3,35.7,32.4,36,32.4z"/>
<path d="M100.4,72.5c-0.5-0.2-1,0.1-1.2,0.6s0.1,1,0.6,1.2c0.1,0,0.2,0,0.3,0c0.4,0,0.8-0.3,0.9-0.7
	C101.2,73.2,100.9,72.7,100.4,72.5z"/>
<path d="M24.4,73.3c-0.1-0.5-0.7-0.8-1.2-0.6c-0.5,0.1-0.8,0.7-0.6,1.2c0.1,0.4,0.5,0.7,0.9,0.7c0.1,0,0.2,0,0.3,0
	C24.3,74.3,24.5,73.8,24.4,73.3z"/>
<path d="M86.9,32.1c0.2,0.1,0.4,0.2,0.6,0.2c0.3,0,0.5-0.1,0.7-0.3c0.3-0.4,0.3-1-0.1-1.3s-1-0.3-1.3,0.1
	C86.4,31.1,86.5,31.7,86.9,32.1z"/>
<path d="M61.8,21.1L61.8,21.1C61.7,21.1,61.7,21.1,61.8,21.1c-0.6,0-1,0.4-1,0.9s0.4,0.9,0.9,0.9h0.1c0,0,0,0,0.1,0
	c0.5,0,0.9-0.4,0.9-0.9S62.3,21.1,61.8,21.1z"/>
<path d="M52.4,24c0.1,0,0.1,0,0.2,0c0.5-0.1,0.8-0.6,0.7-1.1s-0.6-0.8-1.1-0.7c-0.5,0.1-0.8,0.6-0.7,1.1C51.6,23.7,52,24,52.4,24z"
	/>
<path d="M79.3,27.1c0.1,0.1,0.3,0.1,0.4,0.1c0.3,0,0.7-0.2,0.8-0.5c0.2-0.5,0-1-0.4-1.3c-0.5-0.2-1-0.1-1.3,0.4
	C78.7,26.3,78.9,26.8,79.3,27.1z"/>
<path d="M21.9,65.4L21.9,65.4c0.6,0,1-0.5,0.9-1c0-0.5-0.5-0.9-1-0.9s-0.9,0.5-0.9,1C21,65,21.4,65.4,21.9,65.4z"/>
<path d="M57.3,100.8c-0.5-0.1-1,0.3-1,0.8c-0.1,0.5,0.3,1,0.8,1h0.1c0.5,0,0.9-0.3,0.9-0.8C58.2,101.3,57.8,100.9,57.3,100.8z"/>
<path d="M83.3,94.6c-0.4,0.3-0.5,0.9-0.3,1.3c0.2,0.3,0.5,0.4,0.8,0.4c0.2,0,0.4,0,0.5-0.2c0.4-0.3,0.5-0.9,0.3-1.3
	C84.3,94.4,83.8,94.3,83.3,94.6z"/>
<path d="M33.4,90.2c0.4-0.3,0.4-0.9,0-1.3s-1-0.4-1.3,0c-0.4,0.4-0.4,1,0,1.3c0.2,0.2,0.4,0.3,0.7,0.3C33,90.5,33.2,90.4,33.4,90.2z
	"/>
<path d="M23.3,55.3c0.1-0.5-0.3-1-0.8-1.1s-1,0.2-1.1,0.8c-0.1,0.5,0.3,1,0.8,1.1c0.1,0,0.1,0,0.2,0C22.8,56.1,23.2,55.8,23.3,55.3z
	"/>
<path d="M40.4,94.7c-0.4-0.3-1-0.2-1.3,0.3c-0.3,0.4-0.2,1,0.3,1.3c0.2,0.1,0.3,0.2,0.5,0.2c0.3,0,0.6-0.2,0.8-0.4
	C41,95.5,40.8,95,40.4,94.7z"/>
<path d="M98.5,47.1c0.1,0,0.2,0,0.4-0.1c0.5-0.2,0.7-0.8,0.5-1.2l0,0c-0.2-0.5-0.8-0.7-1.2-0.5c-0.5,0.2-0.7,0.8-0.5,1.2
	C97.8,46.9,98.2,47.1,98.5,47.1z"/>
<path d="M97.3,82.4L97.3,82.4c0.3-0.5,0.1-1-0.3-1.3s-1-0.1-1.3,0.4l0,0c-0.3,0.4-0.1,1,0.3,1.3c0.1,0.1,0.3,0.1,0.5,0.1
	C96.8,82.9,97.1,82.7,97.3,82.4z"/>
<path d="M94.4,38.8c0.4-0.3,0.5-0.9,0.2-1.3c-0.3-0.4-0.9-0.5-1.3-0.2s-0.5,0.9-0.2,1.3c0.2,0.2,0.5,0.4,0.8,0.4
	C94.1,39,94.3,39,94.4,38.8z"/>
<path d="M102.7,64.3c0-0.5-0.4-1-0.9-1s-1,0.4-1,0.9l0,0c0,0.5,0.4,1,0.9,1c0,0,0,0,0.1,0C102.2,65.2,102.6,64.8,102.7,64.3
	L102.7,64.3z"/>
<path d="M75.5,100.5c0.1,0,0.2,0,0.3-0.1c0.5-0.2,0.7-0.7,0.6-1.2c-0.2-0.5-0.7-0.7-1.2-0.6c-0.5,0.2-0.7,0.7-0.6,1.2
	C74.8,100.3,75.2,100.5,75.5,100.5z"/>
<path d="M90.4,83c0.3,0,0.5-0.1,0.7-0.4c0.3-0.4,0.2-0.9-0.2-1.1c-0.4-0.3-0.9-0.2-1.1,0.2c-0.3,0.4-0.2,0.9,0.2,1.2
	C90,83,90.2,83,90.4,83z"/>
<path d="M73.3,28c-0.4-0.1-0.9,0.1-1,0.5s0.1,0.9,0.5,1c0.1,0,0.2,0,0.3,0c0.3,0,0.7-0.2,0.8-0.6C73.9,28.7,73.7,28.2,73.3,28z"/>
<path d="M41.3,32.6c-0.4,0.3-0.5,0.8-0.2,1.1c0.2,0.2,0.4,0.4,0.7,0.4c0.2,0,0.3,0,0.5-0.1c0.4-0.3,0.5-0.8,0.2-1.1
	C42.2,32.4,41.7,32.3,41.3,32.6z"/>
<path d="M79.6,31.9c-0.2,0.4-0.1,0.9,0.3,1.1c0.1,0.1,0.3,0.1,0.4,0.1c0.3,0,0.5-0.1,0.7-0.4c0.2-0.4,0.1-0.9-0.3-1.1
	C80.4,31.4,79.9,31.5,79.6,31.9z"/>
<path d="M65,28L65,28c0.5,0,0.9-0.3,0.9-0.7c0-0.5-0.3-0.9-0.7-0.9s-0.8,0.3-0.9,0.7C64.2,27.5,64.5,27.9,65,28z"/>
<path d="M49.7,29.1c-0.2-0.4-0.6-0.6-1.1-0.5c-0.4,0.2-0.6,0.7-0.5,1.1c0.1,0.3,0.4,0.5,0.8,0.5c0.1,0,0.2,0,0.3-0.1
	C49.7,30,49.9,29.5,49.7,29.1z"/>
<path d="M86.7,38.2c0.2,0,0.4-0.1,0.6-0.2c0.3-0.3,0.3-0.8,0-1.2c-0.3-0.3-0.8-0.3-1.2,0c-0.3,0.3-0.3,0.8,0,1.2
	C86.3,38.1,86.5,38.2,86.7,38.2z"/>
<path d="M54.4,97.1c0,0,0.1,0,0.2,0c0.4,0,0.7-0.3,0.8-0.7c0.1-0.5-0.2-0.9-0.6-1c-0.4-0.1-0.9,0.2-1,0.6C53.7,96.5,54,97,54.4,97.1
	z"/>
<path d="M56,27.5c0.1,0.4,0.4,0.7,0.8,0.7h0.1l0,0c0,0,0,0,0.1,0c0.5-0.1,0.8-0.5,0.7-0.9c-0.1-0.5-0.5-0.8-0.9-0.7l0,0
	c0,0,0,0-0.1,0c0,0,0,0-0.1,0C56.2,26.6,55.9,27,56,27.5z"/>
<path d="M40,90.2c0.2,0,0.5-0.1,0.6-0.3c0.3-0.3,0.2-0.9-0.1-1.2c-0.4-0.3-0.9-0.2-1.2,0.1c-0.3,0.4-0.2,0.9,0.1,1.2
	C39.6,90.1,39.8,90.2,40,90.2z"/>
<path d="M47.6,94c0.2-0.4,0-0.9-0.4-1.1s-0.9,0-1.1,0.4c-0.2,0.4,0,0.9,0.4,1.1c0.1,0,0.2,0.1,0.4,0.1C47.2,94.5,47.5,94.3,47.6,94z
	"/>
<path d="M31.8,45.7c0.2-0.4,0.1-0.9-0.3-1.1s-0.9-0.1-1.1,0.3s-0.1,0.9,0.3,1.1c0.1,0.1,0.3,0.1,0.4,0.1
	C31.3,46.1,31.6,46,31.8,45.7z"/>
<path d="M91.3,43.1c-0.4,0.2-0.5,0.8-0.3,1.1c0.2,0.2,0.4,0.4,0.7,0.4c0.1,0,0.3,0,0.4-0.1c0.4-0.2,0.5-0.7,0.3-1.1
	C92.2,43,91.6,42.8,91.3,43.1z"/>
<path d="M26.8,61.7L26.8,61.7c0.5,0,0.8-0.4,0.8-0.8c0-0.4-0.3-0.8-0.8-0.8s-0.8,0.3-0.9,0.8C26,61.3,26.3,61.7,26.8,61.7z"/>
<path d="M27.8,53.6c0.1,0,0.1,0,0.2,0c0.4,0,0.7-0.2,0.8-0.6c0.1-0.4-0.1-0.9-0.6-1c-0.4-0.1-0.9,0.1-1,0.6
	C27.1,53,27.4,53.5,27.8,53.6z"/>
<path d="M29.7,75.9c-0.4,0.2-0.6,0.7-0.4,1.1c0.1,0.3,0.4,0.5,0.8,0.5c0.1,0,0.2,0,0.3-0.1c0.4-0.2,0.6-0.7,0.4-1.1
	C30.6,75.9,30.1,75.7,29.7,75.9z"/>
<path d="M94.3,51.4c0.1,0.4,0.4,0.6,0.8,0.6c0.1,0,0.2,0,0.2,0c0.4-0.1,0.7-0.6,0.5-1c-0.1-0.4-0.6-0.7-1-0.5
	C94.4,50.5,94.2,51,94.3,51.4z"/>
<path d="M27.3,68.1c-0.5,0.1-0.7,0.5-0.6,1c0.1,0.4,0.4,0.7,0.8,0.7c0,0,0.1,0,0.2,0c0.5-0.1,0.7-0.5,0.7-1
	C28.2,68.3,27.8,68.1,27.3,68.1z"/>
<path d="M78.7,93.6c0.4-0.2,0.6-0.7,0.3-1.1c-0.2-0.4-0.7-0.5-1.1-0.3s-0.5,0.7-0.3,1.1c0.2,0.3,0.4,0.4,0.7,0.4
	C78.4,93.7,78.5,93.7,78.7,93.6z"/>
<path d="M84.4,87.6c-0.3,0.3-0.4,0.8-0.1,1.2c0.2,0.2,0.4,0.3,0.6,0.3s0.4-0.1,0.5-0.2c0.3-0.3,0.4-0.8,0.1-1.2
	C85.3,87.4,84.8,87.3,84.4,87.6z"/>
<path d="M94,75.8c0.1,0,0.2,0.1,0.3,0.1c0.3,0,0.6-0.2,0.8-0.5c0.2-0.4,0-0.9-0.5-1.1s-0.9,0-1.1,0.5S93.5,75.7,94,75.8z"/>
<path d="M62.7,97.8L62.7,97.8c0.5,0,0.8-0.4,0.8-0.8c0-0.5-0.4-0.8-0.8-0.8c-0.5,0-0.8,0.4-0.8,0.8C61.9,97.5,62.2,97.8,62.7,97.8z"
	/>
<path d="M70.5,95L70.5,95c-0.5,0.1-0.7,0.6-0.6,1s0.4,0.6,0.8,0.6c0.1,0,0.1,0,0.2,0c0.4-0.1,0.7-0.6,0.6-1S71,94.9,70.5,95z"/>
<path d="M95.6,67.1c-0.1,0.4,0.2,0.9,0.7,0.9h0.1c0.4,0,0.8-0.3,0.8-0.7c0.1-0.4-0.2-0.9-0.7-0.9C96.1,66.4,95.7,66.7,95.6,67.1z"/>
<path d="M96.7,59.9L96.7,59.9c0.5,0,0.9-0.4,0.8-0.9c0-0.5-0.4-0.8-0.9-0.8s-0.8,0.4-0.8,0.9C95.9,59.6,96.3,59.9,96.7,59.9z"/>
<path d="M33.6,84.1c0.2,0.2,0.4,0.3,0.6,0.3c0.2,0,0.4,0,0.5-0.2c0.4-0.3,0.4-0.8,0.1-1.2c-0.3-0.4-0.8-0.4-1.1-0.1
	C33.4,83.2,33.3,83.8,33.6,84.1z"/>
<path d="M35.7,39.5c0.2,0,0.5-0.1,0.6-0.3c0.3-0.3,0.3-0.9-0.1-1.2c-0.3-0.3-0.9-0.3-1.2,0.1c-0.3,0.3-0.3,0.9,0.1,1.2
	C35.3,39.4,35.5,39.5,35.7,39.5z"/>
<path d="M77.7,87.4c0.1,0.2,0.4,0.3,0.6,0.3c0.1,0,0.3,0,0.4-0.1c0.3-0.2,0.4-0.7,0.2-1c-0.2-0.3-0.7-0.4-1-0.2
	C77.6,86.7,77.5,87.1,77.7,87.4z"/>
<path d="M89.9,70.4c-0.1,0.4,0.1,0.8,0.5,0.9c0.1,0,0.1,0,0.2,0c0.3,0,0.6-0.2,0.7-0.5l0,0c0.1-0.4-0.1-0.8-0.5-0.9
	C90.4,69.8,90,70,89.9,70.4z"/>
<path d="M32.4,70.9c0.1,0.3,0.4,0.5,0.7,0.5c0.1,0,0.1,0,0.2,0c0.4-0.1,0.6-0.5,0.5-0.9s-0.5-0.6-0.9-0.5S32.3,70.5,32.4,70.9z"/>
<path d="M83.2,83.1c0.1,0.1,0.3,0.2,0.5,0.2s0.4-0.1,0.5-0.2c0.3-0.3,0.2-0.7,0-1c-0.3-0.3-0.7-0.3-1,0l0,0
	C82.9,82.4,82.9,82.8,83.2,83.1z"/>
<path d="M91.3,57.5L91.3,57.5c0.5-0.1,0.7-0.4,0.7-0.8c-0.1-0.4-0.4-0.6-0.8-0.6s-0.6,0.4-0.6,0.8C90.7,57.2,91,57.5,91.3,57.5z"/>
<path d="M54.6,32.1c-0.4,0.1-0.6,0.5-0.5,0.9c0.1,0.3,0.4,0.5,0.7,0.5c0.1,0,0.1,0,0.2,0c0.4-0.1,0.6-0.5,0.5-0.9
	C55.4,32.3,55,32,54.6,32.1z"/>
<path d="M58.4,91.1c-0.4,0-0.7,0.2-0.8,0.6c0,0.4,0.2,0.7,0.6,0.8h0.1c0.4,0,0.6-0.3,0.7-0.6C59.1,91.5,58.8,91.1,58.4,91.1z"/>
<path d="M80.5,38.6c-0.2,0.3-0.2,0.7,0.1,1c0.1,0.1,0.3,0.2,0.4,0.2c0.2,0,0.4-0.1,0.6-0.2c0.2-0.3,0.2-0.8-0.1-1
	C81.2,38.2,80.8,38.3,80.5,38.6z"/>
<path d="M72.8,89.9c-0.1-0.4-0.5-0.6-0.9-0.4c-0.4,0.1-0.5,0.5-0.4,0.9c0.1,0.3,0.4,0.5,0.7,0.5c0.1,0,0.2,0,0.2,0
	C72.7,90.7,72.9,90.3,72.8,89.9z"/>
<path d="M61.8,31.3L61.8,31.3L61.8,31.3C61.7,31.3,61.7,31.3,61.8,31.3L61.8,31.3c-0.5,0-0.8,0.3-0.8,0.7s0.3,0.7,0.7,0.7
	c0,0,0,0,0.1,0l0,0c0.4,0,0.7-0.3,0.7-0.7C62.5,31.6,62.2,31.3,61.8,31.3z"/>
<path d="M37.3,44.7c0.1,0.1,0.3,0.1,0.4,0.1c0.2,0,0.4-0.1,0.6-0.3c0.2-0.3,0.2-0.8-0.2-1c-0.3-0.2-0.8-0.2-1,0.1
	C36.9,44,36.9,44.5,37.3,44.7z"/>
<path d="M92.5,63.7C92.5,63.8,92.5,63.8,92.5,63.7C92.5,63.8,92.5,63.8,92.5,63.7C92.5,63.8,92.5,63.8,92.5,63.7z"/>
<path d="M34.9,50.5c0.2-0.4,0-0.8-0.4-0.9c-0.4-0.2-0.8,0-0.9,0.4c-0.2,0.4,0,0.8,0.4,0.9c0.1,0,0.2,0.1,0.3,0.1
	C34.5,50.9,34.8,50.7,34.9,50.5z"/>
<path d="M39.5,82.1c-0.3,0.3-0.3,0.7,0,1c0.1,0.1,0.3,0.2,0.5,0.2s0.3-0.1,0.5-0.2c0.3-0.3,0.3-0.7,0-1
	C40.3,81.9,39.8,81.8,39.5,82.1z"/>
<path d="M75.6,34.5c-0.4-0.2-0.8,0-1,0.3s0,0.8,0.3,0.9c0.1,0,0.2,0.1,0.3,0.1c0.3,0,0.5-0.1,0.6-0.4C76.1,35.1,75.9,34.7,75.6,34.5
	z"/>
<path d="M66,91.7c0-0.4-0.4-0.7-0.8-0.6c-0.4,0-0.7,0.4-0.6,0.8c0,0.4,0.3,0.6,0.7,0.6c0,0,0,0,0.1,0l0,0
	C65.8,92.5,66.1,92.1,66,91.7z"/>
<path d="M89.1,49.4c-0.3,0.1-0.5,0.6-0.4,0.9l0,0c0.1,0.3,0.4,0.4,0.6,0.4c0.1,0,0.2,0,0.3-0.1c0.3-0.1,0.5-0.6,0.4-0.9
	C89.8,49.5,89.4,49.3,89.1,49.4z"/>
<path d="M68,32.6c-0.1,0.4,0.1,0.8,0.5,0.9c0.1,0,0.1,0,0.2,0c0.3,0,0.6-0.2,0.7-0.5c0.1-0.4-0.1-0.8-0.5-0.9S68.1,32.3,68,32.6z"/>
<path d="M50.9,90c-0.1,0.4,0.1,0.8,0.4,0.9c0.1,0,0.2,0,0.2,0c0.3,0,0.6-0.2,0.7-0.5c0.1-0.4-0.1-0.8-0.4-0.9l0,0
	C51.5,89.4,51.1,89.6,50.9,90z"/>
<path d="M48.2,35.9c0.1,0,0.2,0,0.3-0.1c0.3-0.2,0.5-0.6,0.3-1c-0.2-0.3-0.6-0.5-1-0.3s-0.5,0.6-0.3,1C47.7,35.8,48,35.9,48.2,35.9z
	"/>
<path d="M42,38.5c-0.3,0.2-0.3,0.7-0.1,1c0.1,0.2,0.3,0.2,0.5,0.2s0.3,0,0.5-0.2c0.3-0.2,0.3-0.7,0.1-1C42.7,38.3,42.3,38.3,42,38.5
	z"/>
<path d="M31.9,64.5c0.4,0,0.7-0.3,0.7-0.7c0-0.4-0.4-0.7-0.8-0.7c-0.4,0-0.7,0.3-0.7,0.7C31.2,64.2,31.5,64.5,31.9,64.5L31.9,64.5z"
	/>
<path d="M45.8,86.5c-0.3-0.2-0.8-0.1-1,0.2c-0.2,0.3-0.1,0.8,0.2,1c0.1,0.1,0.2,0.1,0.4,0.1s0.5-0.1,0.6-0.3
	C46.2,87.2,46.1,86.7,45.8,86.5z"/>
<path d="M85.3,44.5L85.3,44.5c0.1,0.2,0.3,0.3,0.6,0.3c0.1,0,0.3,0,0.4-0.1c0.3-0.2,0.4-0.7,0.1-1c-0.2-0.3-0.7-0.4-1-0.1
	C85.1,43.7,85.1,44.2,85.3,44.5z"/>
<path d="M31.5,56.7c-0.1,0.4,0.2,0.8,0.6,0.8h0.1c0.3,0,0.6-0.2,0.7-0.6c0.1-0.4-0.2-0.8-0.6-0.8C32,56.1,31.6,56.4,31.5,56.7z"/>
<path d="M92.5,63.8c0-0.4-0.3-0.7-0.7-0.7c-0.4,0-0.7,0.3-0.7,0.7c0,0.4,0.3,0.7,0.7,0.7l0,0C92.1,64.4,92.4,64.1,92.5,63.8z"/>
<path d="M87.5,77.6c0.1,0.1,0.2,0.1,0.3,0.1c0.2,0,0.5-0.1,0.6-0.4c0.2-0.3,0.1-0.8-0.3-1c-0.3-0.2-0.8-0.1-1,0.3
	C87,77,87.1,77.4,87.5,77.6z"/>
<path d="M35.5,76.5c-0.3,0.2-0.4,0.6-0.2,1c0.1,0.2,0.4,0.4,0.6,0.4c0.1,0,0.2,0,0.4-0.1c0.3-0.2,0.5-0.6,0.3-1
	C36.3,76.4,35.8,76.3,35.5,76.5z"/>
<path d="M69.2,38.1c-0.1,0.3,0.1,0.6,0.4,0.8c0.1,0,0.1,0,0.2,0c0.2,0,0.5-0.2,0.6-0.4c0.1-0.3-0.1-0.7-0.4-0.8
	C69.7,37.6,69.3,37.8,69.2,38.1z"/>
<path d="M37.4,67.5c0.3-0.1,0.5-0.4,0.5-0.7c-0.1-0.3-0.4-0.5-0.7-0.5c-0.3,0.1-0.5,0.4-0.5,0.7c0.1,0.3,0.3,0.5,0.6,0.5
	C37.3,67.6,37.4,67.6,37.4,67.5z"/>
<path d="M85.2,70.8c-0.3-0.1-0.6,0-0.8,0.3c-0.1,0.3,0,0.6,0.3,0.8c0.1,0,0.2,0,0.2,0c0.2,0,0.5-0.1,0.5-0.4
	C85.7,71.3,85.5,70.9,85.2,70.8z"/>
<path d="M67.6,86.3c0.1,0.3,0.3,0.4,0.6,0.4h0.1c0.3-0.1,0.5-0.4,0.4-0.7c-0.1-0.3-0.4-0.5-0.7-0.4C67.7,85.7,67.5,86,67.6,86.3z"/>
<path d="M50.6,84.4c-0.1,0.3,0,0.6,0.3,0.8c0.1,0,0.2,0.1,0.2,0.1c0.2,0,0.4-0.1,0.5-0.3c0.1-0.3,0-0.7-0.3-0.8
	C51.1,84,50.8,84.1,50.6,84.4z"/>
<path d="M58.2,37.8C58.3,37.8,58.3,37.8,58.2,37.8C58.3,37.8,58.3,37.8,58.2,37.8L58.2,37.8c0.4,0,0.6-0.3,0.6-0.7
	c0-0.3-0.3-0.5-0.7-0.5l0,0l0,0c-0.3,0-0.5,0.4-0.5,0.7C57.7,37.6,57.9,37.8,58.2,37.8z"/>
<path d="M73.6,84.6c0.1,0,0.2,0,0.3-0.1c0.3-0.2,0.4-0.5,0.2-0.8c-0.2-0.3-0.5-0.4-0.8-0.2c-0.3,0.1-0.4,0.5-0.2,0.8
	C73.2,84.5,73.4,84.6,73.6,84.6z"/>
<path d="M62.4,87.6L62.4,87.6c0.3,0,0.6-0.3,0.6-0.6c0-0.3-0.3-0.6-0.6-0.6s-0.6,0.3-0.6,0.6C61.8,87.3,62.1,87.6,62.4,87.6z"/>
<path d="M86.1,54.1c-0.1-0.3-0.4-0.5-0.7-0.4c-0.3,0.1-0.5,0.4-0.4,0.7c0.1,0.2,0.3,0.4,0.6,0.4c0.1,0,0.1,0,0.2,0
	C86.1,54.7,86.2,54.4,86.1,54.1z"/>
<path d="M37.7,56c0.3,0,0.5-0.2,0.6-0.4c0.1-0.3-0.1-0.6-0.4-0.7c-0.3-0.1-0.6,0.1-0.7,0.4c-0.1,0.3,0.1,0.6,0.4,0.7
	C37.6,56,37.6,56,37.7,56z"/>
<path d="M86.5,66.3c0.3,0,0.5-0.2,0.6-0.5s-0.2-0.6-0.5-0.7s-0.6,0.2-0.7,0.5C85.9,66,86.1,66.3,86.5,66.3L86.5,66.3z"/>
<path d="M83.1,49.6c0.1,0,0.2,0,0.3-0.1c0.3-0.2,0.4-0.5,0.2-0.8c-0.2-0.3-0.5-0.4-0.8-0.2s-0.4,0.5-0.2,0.8
	C82.8,49.5,83,49.6,83.1,49.6z"/>
<path d="M64.1,37.7L64.1,37.7c0.4,0,0.6-0.2,0.6-0.5s-0.2-0.6-0.5-0.6c-0.3,0-0.6,0.2-0.6,0.5C63.5,37.4,63.8,37.7,64.1,37.7z"/>
<path d="M36.8,61.8L36.8,61.8c0.3,0,0.6-0.2,0.6-0.6c0-0.3-0.2-0.6-0.6-0.6c-0.3,0-0.6,0.2-0.6,0.6C36.2,61.5,36.5,61.8,36.8,61.8z"
	/>
<path d="M81.7,76.1c-0.2,0.3-0.1,0.6,0.1,0.8C82,77,82.1,77,82.2,77c0.2,0,0.4-0.1,0.5-0.2c0.2-0.3,0.1-0.6-0.1-0.8
	C82.3,75.8,81.9,75.8,81.7,76.1z"/>
<path d="M40.1,49.5c-0.3-0.2-0.6,0-0.8,0.2c-0.2,0.3,0,0.6,0.2,0.8c0.1,0.1,0.2,0.1,0.3,0.1c0.2,0,0.4-0.1,0.5-0.3
	C40.5,50.1,40.4,49.7,40.1,49.5z"/>
<path d="M86.7,60.5C86.7,60.5,86.8,60.5,86.7,60.5c0.4,0,0.6-0.3,0.6-0.6s-0.3-0.6-0.6-0.5c-0.3,0-0.6,0.3-0.5,0.6
	C86.2,60.3,86.4,60.5,86.7,60.5z"/>
<path d="M42.1,78c0.1,0,0.3,0,0.4-0.1c0.2-0.2,0.3-0.6,0.1-0.8c-0.2-0.2-0.6-0.3-0.8-0.1c-0.3,0.2-0.3,0.6-0.1,0.8
	C41.8,77.9,42,78,42.1,78z"/>
<path d="M75.4,40.3c-0.3-0.2-0.6-0.1-0.8,0.2c-0.2,0.3-0.1,0.6,0.2,0.8c0.1,0.1,0.2,0.1,0.3,0.1c0.2,0,0.4-0.1,0.5-0.3
	C75.7,40.8,75.6,40.5,75.4,40.3z"/>
<path d="M80,44c-0.2-0.2-0.6-0.2-0.8,0c-0.2,0.2-0.2,0.6,0,0.8c0.1,0.1,0.3,0.2,0.4,0.2s0.3-0.1,0.4-0.2C80.2,44.6,80.2,44.2,80,44z
	"/>
<path d="M52.6,39.3c0.1,0,0.1,0,0.2,0c0.3-0.1,0.5-0.5,0.3-0.8c-0.1-0.3-0.5-0.5-0.8-0.3C52,38.3,51.8,38.7,52,39
	C52.2,39.2,52.4,39.3,52.6,39.3z"/>
<path d="M56.5,87L56.5,87c0.4,0,0.6-0.2,0.7-0.5s-0.1-0.6-0.4-0.7c-0.3-0.1-0.6,0.1-0.7,0.5C56,86.7,56.2,87,56.5,87z"/>
<path d="M46.2,82.1c0.2,0,0.4-0.1,0.5-0.2c0.2-0.3,0.2-0.6-0.1-0.8c-0.3-0.2-0.6-0.2-0.8,0.1c-0.2,0.3-0.2,0.6,0.1,0.8
	C46,82.1,46.1,82.1,46.2,82.1z"/>
<path d="M42.8,45.8c0.1,0.1,0.3,0.1,0.4,0.1c0.2,0,0.3-0.1,0.4-0.2c0.2-0.2,0.2-0.6,0-0.8s-0.6-0.2-0.8,0
	C42.5,45.2,42.5,45.5,42.8,45.8z"/>
<path d="M48,41.1c-0.2-0.3-0.6-0.3-0.8-0.1c-0.3,0.2-0.3,0.6-0.1,0.8c0.1,0.2,0.3,0.2,0.5,0.2c0.1,0,0.2,0,0.3-0.1
	C48.1,41.8,48.2,41.4,48,41.1z"/>
<path d="M38.8,72c-0.3,0.1-0.4,0.5-0.3,0.8c0.1,0.2,0.3,0.3,0.5,0.3c0.1,0,0.2,0,0.2,0c0.3-0.1,0.4-0.5,0.3-0.8
	C39.5,71.9,39.1,71.8,38.8,72z"/>
<path d="M78.7,81.2c0.2-0.2,0.3-0.6,0.1-0.8c-0.2-0.2-0.6-0.3-0.8,0c-0.2,0.2-0.3,0.6-0.1,0.8c0.1,0.1,0.3,0.2,0.4,0.2
	C78.5,81.3,78.6,81.3,78.7,81.2z"/>
<path d="M79.5,72.2L79.5,72.2c0.1-0.2,0-0.5-0.2-0.7c-0.2-0.1-0.5,0-0.6,0.2l0,0c-0.1,0.2-0.1,0.5,0.2,0.6c0.1,0,0.2,0.1,0.2,0.1
	C79.3,72.5,79.5,72.4,79.5,72.2z"/>
<path d="M81.4,58c-0.2,0-0.4,0.3-0.4,0.5s0.2,0.4,0.5,0.4c0,0,0,0,0.1,0c0.2,0,0.4-0.3,0.4-0.5C81.9,58.2,81.7,58,81.4,58z"/>
<path d="M66.3,43L66.3,43c0.3,0,0.5-0.1,0.6-0.4c0.1-0.2-0.1-0.5-0.4-0.6c-0.2,0-0.5,0.2-0.5,0.4C65.9,42.7,66,42.9,66.3,43z"/>
<path d="M81.3,63.1c0,0.3,0.2,0.5,0.4,0.5l0,0c0.2,0,0.5-0.2,0.5-0.5s-0.2-0.5-0.5-0.5C81.5,62.7,81.3,62.9,81.3,63.1z"/>
<path d="M76.7,75.4c-0.2-0.2-0.5-0.2-0.7,0s-0.2,0.5,0,0.7c0.1,0.1,0.2,0.1,0.3,0.1c0.1,0,0.2,0,0.4-0.1
	C76.9,75.8,76.9,75.5,76.7,75.4z"/>
<path d="M73.2,78.4c-0.2-0.2-0.4-0.3-0.7-0.1c-0.2,0.1-0.3,0.4-0.1,0.7c0.1,0.1,0.2,0.2,0.4,0.2c0.1,0,0.2,0,0.3-0.1
	C73.3,78.9,73.3,78.6,73.2,78.4z"/>
<path d="M69.1,80.6c-0.1-0.2-0.4-0.4-0.6-0.3s-0.4,0.4-0.3,0.6s0.2,0.3,0.4,0.3c0.1,0,0.1,0,0.2,0C69.1,81.1,69.2,80.9,69.1,80.6z"
	/>
<path d="M71.2,44.3c0.1-0.2,0-0.5-0.2-0.6s-0.5,0-0.6,0.2s0,0.5,0.2,0.6c0.1,0,0.1,0,0.2,0C70.9,44.6,71.1,44.5,71.2,44.3z"/>
<path d="M74.3,47L74.3,47c0.1,0.1,0.2,0.1,0.3,0.1c0.1,0,0.3,0,0.4-0.2c0.2-0.2,0.1-0.5-0.1-0.7s-0.5-0.1-0.7,0.1
	C74.1,46.6,74.1,46.9,74.3,47z"/>
<path d="M46,49.7c-0.2-0.2-0.5-0.1-0.7,0.1c-0.1,0.2-0.1,0.5,0.1,0.7c0.1,0.1,0.2,0.1,0.3,0.1s0.3-0.1,0.4-0.2
	C46.2,50.2,46.2,49.9,46,49.7z"/>
<path d="M44.3,71.6C44,71.8,44,72,44.1,72.3c0.1,0.1,0.2,0.2,0.4,0.2c0.1,0,0.2,0,0.2-0.1c0.2-0.1,0.3-0.4,0.2-0.6
	C44.8,71.6,44.5,71.5,44.3,71.6z"/>
<path d="M41.8,63.7L41.8,63.7c0.3,0,0.5-0.2,0.5-0.5s-0.2-0.5-0.5-0.4c-0.3,0-0.5,0.2-0.4,0.5C41.4,63.5,41.6,63.7,41.8,63.7z"/>
<path d="M41.6,58.5c0,0.3,0.2,0.5,0.4,0.5h0.1c0.2,0,0.4-0.2,0.5-0.4c0-0.3-0.1-0.5-0.4-0.5C41.9,58.1,41.7,58.2,41.6,58.5z"/>
<path d="M59.6,81.4c-0.3,0-0.5,0.2-0.5,0.4c0,0.2,0.1,0.5,0.4,0.5l0,0c0.2,0,0.5-0.2,0.5-0.4S59.8,81.4,59.6,81.4z"/>
<path d="M43.4,54.6c0.2,0,0.4-0.1,0.4-0.3c0.1-0.2,0-0.5-0.2-0.6s-0.5,0-0.6,0.2s0,0.5,0.2,0.6C43.3,54.6,43.3,54.6,43.4,54.6z"/>
<path d="M43.1,67.6c-0.1-0.2-0.3-0.4-0.6-0.3c-0.2,0.1-0.4,0.3-0.3,0.6c0.1,0.2,0.2,0.3,0.5,0.3h0.1C43,68.2,43.2,67.9,43.1,67.6z"
	/>
<path d="M53.2,43.9c-0.1-0.2-0.4-0.3-0.6-0.2c-0.2,0.1-0.3,0.4-0.2,0.6c0.1,0.2,0.2,0.2,0.4,0.2c0.1,0,0.1,0,0.2,0
	C53.2,44.4,53.3,44.2,53.2,43.9z"/>
<path d="M57.6,42.4C57.5,42.2,57.3,42,57,42s-0.4,0.3-0.4,0.6c0.1,0.2,0.2,0.4,0.5,0.4h0.1C57.5,42.9,57.6,42.7,57.6,42.4z"/>
<path d="M47.3,76.2c0.1,0,0.2,0,0.3-0.1c0.2-0.2,0.2-0.5,0-0.7s-0.5-0.2-0.7,0s-0.2,0.5,0,0.7C47,76.2,47.2,76.2,47.3,76.2z"/>
<path d="M55.1,80.4c-0.2-0.1-0.5,0-0.6,0.3c-0.1,0.2,0,0.5,0.3,0.6c0.1,0,0.1,0,0.2,0c0.2,0,0.4-0.1,0.5-0.3
	C55.5,80.7,55.4,80.5,55.1,80.4z"/>
<path d="M51.1,78.3c-0.2-0.1-0.5-0.1-0.6,0.1s-0.1,0.5,0.1,0.7c0.1,0,0.2,0.1,0.3,0.1s0.3-0.1,0.4-0.2
	C51.4,78.8,51.3,78.5,51.1,78.3z"/>
<path d="M49.3,46.4c-0.2-0.2-0.5-0.2-0.7,0s-0.2,0.5,0,0.7c0.1,0.1,0.2,0.2,0.4,0.2c0.1,0,0.2,0,0.3-0.1
	C49.4,46.9,49.4,46.6,49.3,46.4z"/>
<path d="M78.1,50.4c0.2-0.2,0.2-0.4,0.1-0.7c-0.2-0.2-0.5-0.2-0.7-0.1c-0.2,0.2-0.2,0.4-0.1,0.7c0.1,0.1,0.2,0.2,0.4,0.2
	C77.9,50.5,78,50.5,78.1,50.4z"/>
<path d="M81.4,67.8c0.1-0.2-0.1-0.5-0.3-0.6c-0.2-0.1-0.5,0.1-0.6,0.3c-0.1,0.2,0.1,0.5,0.3,0.6h0.1C81.2,68.2,81.4,68,81.4,67.8z"
	/>
<path d="M80.6,53.9c-0.1-0.2-0.4-0.4-0.6-0.2c-0.2,0.1-0.3,0.4-0.2,0.6c0.1,0.2,0.2,0.3,0.4,0.3c0.1,0,0.1,0,0.2,0
	C80.6,54.4,80.7,54.1,80.6,53.9z"/>
<path d="M64.1,81.4L64.1,81.4c-0.3,0-0.4,0.3-0.4,0.5s0.2,0.4,0.5,0.4c0,0,0,0,0.1,0c0.3,0,0.4-0.3,0.4-0.5
	C64.6,81.5,64.4,81.4,64.1,81.4z"/>
<path d="M61.8,42.5L61.8,42.5c0.3,0,0.5-0.2,0.5-0.5s-0.2-0.5-0.5-0.5l0,0l0,0c-0.3,0-0.5,0.2-0.5,0.5S61.5,42.5,61.8,42.5
	C61.7,42.5,61.8,42.5,61.8,42.5z"/>
<path d="M69.2,75.1c-0.1-0.2-0.3-0.2-0.5-0.1s-0.2,0.3-0.2,0.5c0.1,0.1,0.2,0.2,0.3,0.2c0.1,0,0.1,0,0.2,0
	C69.2,75.5,69.3,75.2,69.2,75.1z"/>
<path d="M75.4,67.5c-0.1,0.2,0,0.4,0.2,0.5h0.1c0.1,0,0.3-0.1,0.3-0.2c0.1-0.2,0-0.4-0.2-0.5C75.7,67.2,75.5,67.3,75.4,67.5z"/>
<path d="M65.6,76.9C65.6,76.9,65.7,76.9,65.6,76.9c0.3-0.1,0.4-0.3,0.3-0.4c0-0.2-0.2-0.3-0.4-0.2c-0.2,0-0.3,0.2-0.2,0.4
	C65.3,76.8,65.5,76.9,65.6,76.9z"/>
<path d="M53.5,49.5c-0.1-0.2-0.3-0.2-0.5-0.1c-0.2,0.1-0.2,0.3-0.1,0.5C53,50,53.1,50,53.2,50c0.1,0,0.1,0,0.2-0.1
	C53.6,49.9,53.6,49.6,53.5,49.5z"/>
<path d="M52.7,74c0.1-0.2,0.1-0.4-0.1-0.5c-0.2-0.1-0.4-0.1-0.5,0.1S52,74,52.2,74.1c0.1,0,0.1,0.1,0.2,0.1
	C52.6,74.1,52.7,74,52.7,74z"/>
<path d="M56.6,47.9c-0.1-0.2-0.3-0.3-0.5-0.2C56,47.8,55.9,48,56,48.2c0.1,0.1,0.2,0.2,0.3,0.2h0.1C56.6,48.3,56.7,48.1,56.6,47.9z"
	/>
<path d="M58.6,77C58.7,77,58.7,77,58.6,77c0.2,0,0.4-0.1,0.4-0.3c0-0.2-0.1-0.4-0.3-0.4s-0.4,0.1-0.4,0.3S58.4,77,58.6,77z"/>
<path d="M74.6,54.5c0.1,0,0.1,0,0.2-0.1c0.2-0.1,0.2-0.3,0.1-0.5s-0.3-0.2-0.5-0.1c-0.2,0.1-0.2,0.3-0.1,0.5
	C74.4,54.5,74.5,54.5,74.6,54.5z"/>
<path d="M72.5,51.8c0.1,0,0.2,0,0.2-0.1c0.1-0.1,0.1-0.4,0-0.5s-0.4-0.1-0.5,0s-0.1,0.4,0,0.5C72.3,51.8,72.4,51.8,72.5,51.8z"/>
<path d="M71.7,73.6c0.1,0,0.2,0,0.2-0.1c0.1-0.1,0.2-0.4,0-0.5c-0.1-0.1-0.4-0.2-0.5,0c-0.2,0.1-0.2,0.3,0,0.5
	C71.5,73.6,71.6,73.6,71.7,73.6z"/>
<path d="M77,64.3L77,64.3c0-0.2-0.1-0.4-0.3-0.4c-0.2,0-0.4,0.1-0.4,0.3c0,0.2,0.1,0.4,0.3,0.4l0,0C76.8,64.6,77,64.5,77,64.3z"/>
<path d="M69.9,49L69.9,49c-0.2-0.1-0.4-0.1-0.5,0.1c-0.1,0.2-0.1,0.4,0.1,0.5c0.1,0,0.1,0.1,0.2,0.1s0.2-0.1,0.3-0.2
	C70.1,49.3,70.1,49.1,69.9,49z"/>
<path d="M76.4,57.2C76.3,57.1,76.1,57,76,57c-0.2,0.1-0.3,0.3-0.2,0.4c0.1,0.1,0.2,0.2,0.3,0.2h0.1C76.4,57.6,76.5,57.4,76.4,57.2z"
	/>
<path d="M76.7,60.4c-0.2,0-0.3,0.2-0.3,0.4s0.2,0.3,0.4,0.3l0,0c0.2,0,0.3-0.2,0.3-0.4S76.9,60.4,76.7,60.4z"/>
<path d="M48.9,55c0.1-0.2,0-0.4-0.1-0.5c-0.2-0.1-0.4,0-0.5,0.1c-0.1,0.2,0,0.4,0.1,0.5c0.1,0,0.1,0,0.2,0
	C48.7,55.2,48.9,55.1,48.9,55z"/>
<path d="M50,71.6c0.1,0,0.1,0,0.2-0.1c0.1-0.1,0.2-0.4,0.1-0.5c-0.1-0.2-0.3-0.2-0.5-0.1c-0.1,0.1-0.2,0.3-0.1,0.5
	C49.8,71.6,49.9,71.6,50,71.6z"/>
<path d="M55.7,75.7c0.1-0.2,0-0.4-0.2-0.5s-0.4,0-0.5,0.2s0,0.4,0.2,0.5c0.1,0,0.1,0,0.1,0C55.5,75.9,55.7,75.8,55.7,75.7z"/>
<path d="M73.8,70.5c-0.1,0.1-0.1,0.4,0.1,0.5H74c0.1,0,0.2,0,0.3-0.2c0.1-0.2,0.1-0.4-0.1-0.5C74.1,70.3,73.9,70.3,73.8,70.5z"/>
<path d="M47.1,65.3L47.1,65.3c0.3,0,0.4-0.2,0.4-0.4c0-0.2-0.2-0.3-0.4-0.3s-0.3,0.2-0.3,0.4C46.8,65.2,46.9,65.3,47.1,65.3z"/>
<path d="M62.8,47c0,0.2,0.1,0.4,0.3,0.4l0,0c0.2,0,0.3-0.1,0.4-0.3s-0.1-0.4-0.3-0.4S62.9,46.8,62.8,47z"/>
<path d="M66.7,47.4c-0.2-0.1-0.4,0-0.5,0.2s0,0.4,0.2,0.4h0.1c0.2,0,0.3-0.1,0.3-0.2C67,47.7,66.9,47.5,66.7,47.4z"/>
<path d="M62.2,77.3c0.2,0,0.4-0.2,0.3-0.4c0-0.2-0.2-0.4-0.4-0.4s-0.4,0.2-0.3,0.4C61.8,77.2,62,77.3,62.2,77.3z"/>
<path d="M50.6,52.3c0.1,0,0.2,0,0.3-0.1c0.1-0.2,0.1-0.4,0-0.5s-0.4-0.1-0.5,0s-0.1,0.4,0,0.5C50.5,52.3,50.5,52.3,50.6,52.3z"/>
<path d="M59.7,47.5L59.7,47.5L59.7,47.5C59.8,47.5,59.8,47.5,59.7,47.5c0.3,0,0.4-0.2,0.4-0.4s-0.2-0.3-0.4-0.3l0,0l0,0
	c-0.2,0-0.3,0.2-0.3,0.4C59.3,47.4,59.5,47.5,59.7,47.5z"/>
<path d="M48.2,68.6C48.3,68.6,48.3,68.6,48.2,68.6c0.3-0.1,0.3-0.3,0.3-0.5C48.4,68,48.2,67.9,48,68s-0.3,0.3-0.2,0.5
	C47.9,68.6,48,68.6,48.2,68.6z"/>
<path d="M46.5,61.5c0,0.2,0.1,0.4,0.3,0.4l0,0c0.2,0,0.3-0.1,0.3-0.3s-0.1-0.4-0.3-0.4C46.6,61.1,46.5,61.3,46.5,61.5z"/>
<path d="M47.2,58.4C47.3,58.4,47.3,58.4,47.2,58.4c0.2,0,0.4-0.1,0.4-0.2c0.1-0.2-0.1-0.4-0.2-0.4c-0.2-0.1-0.4,0-0.4,0.2
	C46.9,58.2,47,58.4,47.2,58.4z"/>
<path d="M55.2,54.5c0,0.1,0.1,0.1,0.2,0.1c0.1,0,0.1,0,0.2,0c0.1-0.1,0.1-0.2,0-0.3s-0.2-0.1-0.3,0S55.1,54.4,55.2,54.5z"/>
<path d="M53.8,56.3c0.1,0,0.1,0,0.2-0.1c0.1-0.1,0.1-0.2,0-0.3s-0.2,0-0.3,0C53.6,56,53.7,56.1,53.8,56.3
	C53.7,56.3,53.7,56.3,53.8,56.3z"/>
<path d="M61.8,52.2L61.8,52.2c0.1,0,0.2-0.1,0.2-0.2c0-0.1-0.1-0.2-0.2-0.2l0,0l0,0l0,0c-0.1,0-0.2,0.1-0.2,0.2
	C61.5,52.1,61.6,52.2,61.8,52.2L61.8,52.2z"/>
<path d="M52,65c0,0.1,0.1,0.2,0.2,0.2h0.1c0.1,0,0.2-0.2,0.2-0.3c0-0.1-0.2-0.2-0.3-0.1C52,64.7,52,64.8,52,65z"/>
<path d="M56.1,70.2c-0.1,0.1-0.1,0.2,0.1,0.3h0.1c0.1,0,0.1,0,0.2-0.1c0.1-0.1,0-0.3-0.1-0.3S56.2,70.1,56.1,70.2z"/>
<path d="M54.4,68.7c-0.1,0.1-0.1,0.2,0,0.3c0.1,0,0.1,0.1,0.2,0.1c0.1,0,0.1,0,0.2-0.1c0.1-0.1,0.1-0.2,0-0.3
	C54.6,68.6,54.5,68.6,54.4,68.7z"/>
<path d="M58.3,71.6C58.3,71.6,58.4,71.6,58.3,71.6c0.2,0,0.3,0,0.3-0.1s0-0.3-0.1-0.3l0,0c-0.1,0-0.3,0-0.3,0.1
	C58.1,71.5,58.2,71.6,58.3,71.6z"/>
<path d="M57.3,53.3L57.3,53.3c0.2,0,0.3-0.2,0.2-0.3s-0.2-0.2-0.3-0.1c-0.1,0.1-0.2,0.2-0.1,0.3C57.1,53.3,57.2,53.3,57.3,53.3z"/>
<path d="M52.7,57.8c-0.1,0-0.3,0-0.3,0.1s0,0.3,0.1,0.3h0.1c0.1,0,0.2,0,0.2-0.1C52.9,58,52.8,57.9,52.7,57.8z"/>
<path d="M53,66.8c-0.1,0.1-0.1,0.2-0.1,0.3c0,0.1,0.1,0.1,0.2,0.1h0.1c0.1-0.1,0.1-0.2,0.1-0.3C53.3,66.8,53.1,66.7,53,66.8z"/>
<path d="M60.7,71.7c-0.1,0-0.2,0.1-0.3,0.2c0,0.1,0.1,0.2,0.2,0.3l0,0c0.1,0,0.2-0.1,0.2-0.2C60.9,71.8,60.8,71.7,60.7,71.7z"/>
<path d="M70.3,66.9c-0.1,0.1,0,0.3,0.1,0.3h0.1c0.1,0,0.2,0,0.2-0.1c0.1-0.1,0-0.3-0.1-0.3C70.5,66.7,70.3,66.8,70.3,66.9z"/>
<path d="M51.7,60.2c0,0.1,0.1,0.2,0.2,0.3l0,0c0.1,0,0.2-0.1,0.2-0.2c0-0.1-0.1-0.2-0.2-0.3C51.9,60,51.7,60.1,51.7,60.2z"/>
<path d="M51.6,62.6c0,0.1,0.1,0.2,0.2,0.2l0,0c0.1,0,0.2-0.1,0.2-0.2c0-0.1-0.1-0.2-0.2-0.2C51.7,62.4,51.6,62.5,51.6,62.6z"/>
<path d="M65.2,71.6C65.3,71.6,65.3,71.6,65.2,71.6c0.2-0.1,0.3-0.2,0.2-0.3c0-0.1-0.2-0.2-0.3-0.1c-0.1,0-0.2,0.2-0.1,0.3
	C65,71.6,65.1,71.6,65.2,71.6z"/>
<path d="M67.2,70.1c-0.1,0.1-0.1,0.2-0.1,0.3c0,0.1,0.1,0.1,0.2,0.1h0.1c0.1-0.1,0.1-0.2,0.1-0.3C67.4,70.1,67.3,70.1,67.2,70.1z"/>
<path d="M69.7,55.8c-0.1,0.1-0.1,0.2,0,0.3c0,0.1,0.1,0.1,0.2,0.1s0.1,0,0.1,0c0.1-0.1,0.1-0.2,0-0.3C69.9,55.8,69.8,55.8,69.7,55.8
	z"/>
<path d="M68.2,54.6c0.1,0,0.1,0,0.2-0.1s0.1-0.2,0-0.3s-0.2-0.1-0.3,0c-0.1,0.1-0.1,0.2,0,0.3C68.1,54.5,68.2,54.6,68.2,54.6z"/>
<path d="M69.2,68.7c-0.1-0.1-0.2-0.1-0.3,0c-0.1,0.1-0.1,0.2,0,0.3c0,0,0.1,0.1,0.2,0.1s0.1,0,0.2-0.1
	C69.3,68.9,69.3,68.8,69.2,68.7z"/>
<path d="M63,72.2L63,72.2c0.1,0,0.2-0.1,0.2-0.3c0-0.1-0.1-0.2-0.3-0.2c-0.1,0-0.2,0.1-0.2,0.3C62.8,72.1,62.9,72.2,63,72.2z"/>
<path d="M64.1,52.5c0.1,0,0.2-0.1,0.2-0.2c0-0.1,0-0.2-0.2-0.3c-0.1,0-0.3,0-0.3,0.2C63.8,52.3,63.9,52.5,64.1,52.5L64.1,52.5z"/>
<path d="M59.5,52.5L59.5,52.5c0.2,0,0.3-0.2,0.2-0.3c0-0.1-0.2-0.2-0.3-0.2s-0.2,0.1-0.2,0.3C59.3,52.4,59.3,52.5,59.5,52.5z"/>
<path d="M66.5,53.2c0-0.1,0-0.3-0.1-0.3c-0.1-0.1-0.3,0-0.3,0.1c-0.1,0.1,0,0.2,0.1,0.3h0.1C66.4,53.3,66.5,53.2,66.5,53.2z"/>
<path d="M72,62.6L72,62.6L72,62.6L72,62.6z"/>
<path d="M71.8,62.3c-0.1,0-0.2,0.1-0.2,0.2c0,0.1,0.1,0.2,0.2,0.2l0,0c0.1,0,0.2-0.1,0.2-0.2C72,62.4,71.9,62.3,71.8,62.3z"/>
<path d="M71,58.3L71,58.3c0.2-0.1,0.3-0.2,0.2-0.3c-0.1-0.1-0.2-0.2-0.3-0.1c-0.1,0-0.2,0.2-0.1,0.3C70.8,58.2,70.9,58.3,71,58.3z"
	/>
<path d="M71.6,60.5C71.7,60.5,71.7,60.5,71.6,60.5c0.2,0,0.2-0.1,0.2-0.3c0-0.1-0.2-0.2-0.3-0.2c-0.1,0-0.2,0.1-0.2,0.3
	C71.4,60.4,71.5,60.5,71.6,60.5z"/>
<path d="M71.3,65.1C71.3,65.1,71.4,65.1,71.3,65.1c0.2,0,0.3,0,0.3-0.2c0-0.1,0-0.2-0.2-0.3c-0.1,0-0.2,0-0.3,0.2
	C71.1,64.9,71.2,65,71.3,65.1z"/>
<path d="M66.9,61.6C66.9,61.5,66.8,61.5,66.9,61.6c-0.2-0.1-0.2,0-0.2,0C66.7,61.7,66.7,61.7,66.9,61.6L66.9,61.6
	C66.9,61.7,66.9,61.6,66.9,61.6z"/>
<path d="M58.7,66C58.7,66,58.8,66,58.7,66c0.1-0.1,0.1-0.2,0.1-0.2s-0.1,0-0.2,0C58.5,65.9,58.6,66,58.7,66C58.6,66,58.7,66,58.7,66
	z"/>
<path d="M66.7,62.9L66.7,62.9C66.8,62.9,66.8,62.9,66.7,62.9c0.1-0.2,0.1-0.2,0-0.2S66.6,62.7,66.7,62.9
	C66.6,62.8,66.7,62.9,66.7,62.9z"/>
<path d="M62.3,56.9C62.2,56.9,62.2,56.9,62.3,56.9c-0.1,0.2-0.1,0.2,0,0.2l0,0C62.4,57.1,62.4,57.1,62.3,56.9
	C62.4,57,62.3,56.9,62.3,56.9z"/>
<path d="M66.4,64C66.5,64,66.5,64,66.4,64c0.1-0.2,0.1-0.2,0-0.3c-0.1,0-0.1,0-0.1,0.1C66.3,63.9,66.3,64,66.4,64L66.4,64z"/>
<path d="M63.1,67L63.1,67C63.2,67,63.2,66.9,63.1,67c0.1-0.2,0-0.2,0-0.2C63,66.8,63,66.9,63.1,67C63,66.9,63,67,63.1,67z"/>
<path d="M66.6,60.6C66.7,60.6,66.7,60.5,66.6,60.6c0.1-0.2,0-0.2-0.1-0.2s-0.1,0.1-0.1,0.1C66.5,60.5,66.5,60.6,66.6,60.6L66.6,60.6
	z"/>
<path d="M64.2,66.5L64.2,66.5c0.1-0.1,0.1-0.1,0.1-0.2s-0.1-0.1-0.2,0C64,66.3,64,66.4,64.2,66.5C64.1,66.5,64.1,66.5,64.2,66.5z"/>
<path d="M61.2,57C61.2,56.9,61.1,56.9,61.2,57L61.2,57L61.2,57C61,56.9,61,57,61,57.1s0.1,0.1,0.1,0.1l0,0l0,0
	C61.2,57.2,61.2,57.1,61.2,57z"/>
<path d="M59.6,66.6L59.6,66.6c0.1,0,0.1,0,0.2-0.1c0-0.1,0-0.1-0.1-0.1s-0.1,0-0.1,0C59.5,66.5,59.6,66.6,59.6,66.6z"/>
<path d="M61.9,67.1C62,67.1,62,67.1,61.9,67.1c0.1-0.2,0-0.2,0-0.2C61.8,66.9,61.8,66.9,61.9,67.1C61.8,67.1,61.9,67.1,61.9,67.1z"
	/>
<path d="M60.8,66.8C60.7,66.8,60.7,66.8,60.8,66.8c-0.1,0.2-0.1,0.2,0,0.2l0,0C60.9,67,60.9,67,60.8,66.8
	C60.9,66.8,60.9,66.8,60.8,66.8z"/>
<path d="M63.5,57.3C63.5,57.2,63.5,57.2,63.5,57.3c-0.2-0.1-0.2-0.1-0.2,0S63.3,57.4,63.5,57.3L63.5,57.3
	C63.5,57.4,63.5,57.3,63.5,57.3z"/>
<path d="M59.9,57.2C59.8,57.2,59.8,57.3,59.9,57.2c-0.1,0.2,0,0.2,0,0.2l0,0C60,57.4,60,57.3,59.9,57.2C60.1,57.2,60,57.2,59.9,57.2
	z"/>
<path d="M64.5,57.9L64.5,57.9c0.1-0.1,0.1-0.2,0.1-0.2s-0.1,0-0.2,0S64.3,57.8,64.5,57.9C64.4,57.9,64.4,57.9,64.5,57.9z"/>
<path d="M56.7,61.8C56.7,61.9,56.7,61.9,56.7,61.8c0.2,0.1,0.2,0.1,0.2,0S56.8,61.7,56.7,61.8C56.7,61.7,56.7,61.8,56.7,61.8z"/>
<path d="M57.8,65c-0.1,0-0.1,0.1,0,0.2c0,0,0,0,0.1,0H58c0,0,0.1-0.1,0-0.2S57.8,65,57.8,65z"/>
<path d="M58.8,58L58.8,58c0.1,0,0.1,0,0.2,0c0,0,0.1-0.1,0-0.2c0-0.1-0.1-0.1-0.2,0C58.8,57.8,58.8,57.9,58.8,58z"/>
<path d="M66.1,59.5c0.1,0,0.1-0.1,0-0.2c0-0.1-0.1-0.1-0.2,0c0,0-0.1,0.1,0,0.2C66,59.5,66,59.5,66.1,59.5L66.1,59.5z"/>
<path d="M57.5,59.7c0-0.1,0-0.1,0-0.2c-0.1,0-0.1,0-0.2,0.1v0.1c0,0,0,0,0.1,0C57.4,59.7,57.5,59.7,57.5,59.7z"/>
<path d="M58.1,58.8L58.1,58.8c0.1-0.1,0.1-0.2,0.1-0.2s-0.1,0-0.2,0C57.9,58.6,57.9,58.7,58.1,58.8C58,58.8,58,58.8,58.1,58.8z"/>
<path d="M57.3,64.2c0.1,0,0.1-0.1,0.1-0.2l0,0c0-0.1-0.1-0.1-0.2-0.1c-0.1,0-0.1,0.1-0.1,0.1l0,0C57.2,64.2,57.2,64.2,57.3,64.2
	L57.3,64.2z"/>
<path d="M65.4,58.6c0.1,0,0.1-0.1,0-0.2c0-0.1-0.1-0.1-0.2,0c0,0,0,0.1,0,0.2C65.3,58.6,65.3,58.6,65.4,58.6L65.4,58.6z"/>
<path d="M56.9,62.9C56.8,62.9,56.8,63,56.9,62.9v0.2l0,0C57,63.1,57,63,56.9,62.9C57,62.9,56.9,62.9,56.9,62.9z"/>
<path d="M56.9,60.7C56.9,60.8,56.9,60.8,56.9,60.7L56.9,60.7c0.1,0.1,0.2,0.1,0.2,0S57.1,60.6,56.9,60.7
	C56.9,60.6,56.9,60.6,56.9,60.7z"/>
<path d="M66,65c0-0.1,0-0.1,0-0.2c-0.1,0-0.1,0-0.2,0c0,0.1,0,0.1,0,0.2C65.8,65,65.9,65,66,65C65.9,65,66,65,66,65L66,65z"/>
<path d="M65.2,65.8c0,0,0.1-0.1,0-0.2c-0.1,0-0.1,0-0.2,0s-0.1,0.1,0,0.2C65,65.8,65.1,65.9,65.2,65.8
	C65.1,65.9,65.2,65.9,65.2,65.8z"/>
<path d="M62,64.5C62,64.5,62.1,64.5,62,64.5C62.1,64.5,62.1,64.5,62,64.5C62.1,64.4,62.1,64.4,62,64.5C62.1,64.4,62,64.5,62,64.5z"
	/>
<path d="M61.5,64.4L61.5,64.4C61.4,64.5,61.5,64.5,61.5,64.4L61.5,64.4C61.5,64.5,61.6,64.5,61.5,64.4
	C61.6,64.5,61.5,64.4,61.5,64.4z"/>
<path d="M61.2,59.6L61.2,59.6L61.2,59.6C61.3,59.6,61.3,59.6,61.2,59.6C61.3,59.5,61.2,59.5,61.2,59.6
	C61.2,59.5,61.1,59.5,61.2,59.6z"/>
<path d="M63.2,64L63.2,64C63.1,64.1,63.1,64.1,63.2,64C63.1,64.1,63.2,64.1,63.2,64C63.2,64.1,63.2,64.1,63.2,64
	C63.2,64.1,63.2,64.1,63.2,64z"/>
<path d="M60.9,64.3C60.9,64.4,60.9,64.4,60.9,64.3C60.9,64.4,60.9,64.4,60.9,64.3C61,64.4,61,64.4,60.9,64.3
	C61,64.3,61,64.3,60.9,64.3L60.9,64.3z"/>
<path d="M62.7,64.4L62.7,64.4L62.7,64.4C62.7,64.3,62.7,64.3,62.7,64.4C62.6,64.3,62.6,64.3,62.7,64.4
	C62.6,64.4,62.6,64.4,62.7,64.4z"/>
<path d="M62.4,59.6L62.4,59.6L62.4,59.6C62.5,59.5,62.5,59.5,62.4,59.6C62.4,59.5,62.3,59.5,62.4,59.6
	C62.3,59.6,62.3,59.6,62.4,59.6z"/>
<path d="M60.7,59.8L60.7,59.8C60.7,59.7,60.7,59.7,60.7,59.8C60.6,59.7,60.6,59.8,60.7,59.8C60.6,59.8,60.6,59.8,60.7,59.8
	L60.7,59.8z"/>
<path d="M62.9,59.7C62.8,59.8,62.9,59.8,62.9,59.7C62.9,59.8,62.9,59.8,62.9,59.7C63,59.8,63,59.8,62.9,59.7
	C63,59.8,63,59.7,62.9,59.7L62.9,59.7z"/>
<path d="M59.5,61.1L59.5,61.1C59.6,61,59.5,61,59.5,61.1C59.5,60.9,59.5,61,59.5,61.1C59.4,61,59.4,61.1,59.5,61.1L59.5,61.1z"/>
<path d="M61.8,59.4L61.8,59.4C61.8,59.4,61.7,59.5,61.8,59.4C61.7,59.5,61.8,59.5,61.8,59.4L61.8,59.4
	C61.8,59.6,61.9,59.5,61.8,59.4C61.9,59.5,61.8,59.4,61.8,59.4z"/>
<path d="M59.9,63.7L59.9,63.7C59.9,63.8,59.9,63.8,59.9,63.7C60,63.8,60,63.8,59.9,63.7C60,63.7,60,63.7,59.9,63.7
	C60,63.7,60,63.6,59.9,63.7z"/>
<path d="M64.3,61.6L64.3,61.6C64.3,61.5,64.3,61.5,64.3,61.6C64.2,61.5,64.2,61.5,64.3,61.6C64.2,61.6,64.2,61.6,64.3,61.6
	L64.3,61.6z"/>
<path d="M64.2,62.8L64.2,62.8L64.2,62.8C64.3,62.7,64.3,62.7,64.2,62.8C64.2,62.6,64.1,62.7,64.2,62.8
	C64.1,62.7,64.1,62.8,64.2,62.8z"/>
<path d="M63.9,63.3C64,63.3,64,63.3,63.9,63.3C64,63.3,64,63.3,63.9,63.3C64,63.3,64,63.2,63.9,63.3C64,63.2,63.9,63.2,63.9,63.3
	C63.9,63.2,63.9,63.3,63.9,63.3z"/>
<path d="M64.1,61.1C64.1,61,64.2,61,64.1,61.1C64.1,61,64.1,61,64.1,61.1C64,61,64,61,64.1,61.1C64,61,64.1,61.1,64.1,61.1
	L64.1,61.1z"/>
<path d="M59.7,63.3C59.7,63.3,59.7,63.2,59.7,63.3C59.7,63.2,59.6,63.2,59.7,63.3C59.6,63.2,59.6,63.3,59.7,63.3
	C59.6,63.3,59.6,63.3,59.7,63.3C59.6,63.3,59.7,63.3,59.7,63.3z"/>
<path d="M63.4,60.1L63.4,60.1L63.4,60.1C63.5,60.1,63.5,60.1,63.4,60.1C63.4,60,63.4,60,63.4,60.1C63.3,60.1,63.3,60.1,63.4,60.1z"
	/>
<path d="M59.8,60.5L59.8,60.5C59.9,60.5,59.8,60.5,59.8,60.5C59.8,60.4,59.8,60.4,59.8,60.5C59.7,60.5,59.7,60.5,59.8,60.5
	C59.8,60.6,59.8,60.6,59.8,60.5C59.8,60.6,59.8,60.6,59.8,60.5z"/>
<path d="M59.2,62.2C59.2,62.2,59.3,62.2,59.2,62.2C59.3,62.2,59.3,62.2,59.2,62.2C59.3,62.3,59.3,62.2,59.2,62.2
	C59.4,62.1,59.3,62.1,59.2,62.2C59.3,62.1,59.2,62.1,59.2,62.2z"/>
<path d="M63.1,64L63.1,64L63.1,64z"/>
<path d="M64.3,62.1L64.3,62.1C64.2,62,64.2,62.1,64.3,62.1C64.2,62.2,64.3,62.2,64.3,62.1C64.3,62.2,64.3,62.2,64.3,62.1z"/>
<path d="M60.5,64.1L60.5,64.1C60.5,64,60.4,64,60.5,64.1C60.4,64.1,60.4,64.1,60.5,64.1C60.4,64.1,60.4,64.1,60.5,64.1
	C60.4,64.1,60.5,64.1,60.5,64.1z"/>
<path d="M59.4,62.8C59.4,62.8,59.5,62.7,59.4,62.8C59.4,62.7,59.4,62.7,59.4,62.8C59.4,62.7,59.3,62.7,59.4,62.8L59.4,62.8
	L59.4,62.8z"/>
<path d="M60.1,60C60.1,60.1,60.1,60.1,60.1,60C60.1,60.1,60.1,60.1,60.1,60C60.2,60.1,60.2,60.1,60.1,60
	C60.2,60.1,60.2,60.1,60.1,60C60.2,60,60.2,60,60.1,60z"/>
<path d="M63.8,60.6L63.8,60.6C63.9,60.5,63.9,60.5,63.8,60.6C63.8,60.5,63.8,60.5,63.8,60.6C63.7,60.5,63.7,60.5,63.8,60.6
	L63.8,60.6z"/>
<path d="M63.6,63.7L63.6,63.7C63.6,63.8,63.6,63.8,63.6,63.7C63.6,63.8,63.6,63.8,63.6,63.7C63.7,63.7,63.7,63.7,63.6,63.7
	C63.6,63.6,63.6,63.6,63.6,63.7z"/>
<path d="M59.3,61.6C59.4,61.6,59.4,61.6,59.3,61.6L59.3,61.6C59.4,61.5,59.3,61.5,59.3,61.6C59.3,61.5,59.3,61.5,59.3,61.6
	L59.3,61.6L59.3,61.6z"/>
<path d="M22.6,107.3c-0.5,0.6-0.4,1.5,0.1,2c0.3,0.3,0.6,0.3,1,0.3c0.3,0,0.7-0.2,0.9-0.5c0.5-0.6,0.4-1.5-0.1-2
	C23.9,106.7,23,106.8,22.6,107.3z"/>
<path d="M35.9,114.5c-0.6-0.3-1.5,0-1.8,0.6c-0.3,0.7,0,1.5,0.6,1.9c0.2,0.2,0.5,0.1,0.8,0.1c0.5-0.1,0.9-0.3,1.1-0.7
	C36.9,115.7,36.6,115,35.9,114.5z"/>
<path d="M88.5,114.1c-0.7,0.4-1,1.2-0.6,1.9c0.3,0.6,0.9,0.8,1.4,0.7c0.2,0,0.3,0,0.5-0.2c0.7-0.4,1-1.2,0.6-1.9
	C90.1,114,89.2,113.8,88.5,114.1z"/>
<path d="M13.1,97.1c-0.6,0.5-0.7,1.4-0.3,1.9c0.4,0.5,0.8,0.6,1.3,0.5c0.2,0,0.5-0.2,0.7-0.3c0.6-0.5,0.7-1.3,0.3-1.9
	C14.6,96.7,13.8,96.6,13.1,97.1z"/>
<path d="M99.8,106.6c-0.6,0.5-0.6,1.4-0.2,2c0.3,0.4,0.8,0.5,1.3,0.4c0.3,0,0.5-0.2,0.8-0.3c0.5-0.5,0.6-1.4,0.2-2
	C101.3,106.2,100.4,106.1,99.8,106.6z"/>
<path d="M4.2,72.7c-0.1-0.8-0.9-1.3-1.6-1.1c-0.8,0.1-1.3,0.9-1.1,1.5c0.1,0.8,0.9,1.2,1.5,1.1l0.1,0C3.9,74.2,4.4,73.4,4.2,72.7z"
	/>
<path d="M6.3,84.9c-0.8,0.3-1.1,1.1-0.8,1.9l0,0c0.3,0.6,0.8,0.9,1.4,0.8c0.1,0,0.3,0,0.4-0.1c0.8-0.3,1.1-1.1,0.7-1.9
	C7.9,84.9,7.1,84.6,6.3,84.9z"/>
<path d="M54.5,3.9L54.5,3.9l0.2,0c0.8-0.1,1.3-0.8,1.2-1.6S55.1,1,54.3,1.1l-0.1,0l-0.1,0c-0.8,0.1-1.3,0.8-1.2,1.6
	C53,3.4,53.7,4,54.5,3.9z"/>
<path d="M113.8,33.1c0.2,0,0.4,0,0.6-0.2c0.7-0.4,0.9-1.2,0.5-2c-0.4-0.7-1.2-0.9-2-0.5c-0.7,0.4-0.9,1.2-0.5,2
	C112.7,32.9,113.2,33.1,113.8,33.1z"/>
<path d="M93.7,12.9c0.3,0.2,0.6,0.2,0.9,0.2c0.4,0,0.8-0.3,1-0.6c0.4-0.7,0.2-1.5-0.4-2c-0.7-0.4-1.5-0.2-2,0.4
	C92.9,11.5,93,12.4,93.7,12.9L93.7,12.9z"/>
<path d="M75.8,118.9c-0.8,0.2-1.2,1-1,1.7c0.2,0.7,0.8,1.1,1.5,1c0.1,0,0.1,0,0.2,0c0.8-0.2,1.2-1,1-1.7S76.5,118.7,75.8,118.9z"/>
<path d="M68.3,3.8c0.1,0,0.2,0,0.3,0c0.6-0.1,1.1-0.5,1.3-1.3c0.1-0.8-0.5-1.5-1.2-1.6c-0.8-0.1-1.5,0.5-1.6,1.2
	C67,2.9,67.5,3.7,68.3,3.8z"/>
<path d="M119.4,45.8c0.1,0,0.2,0,0.2,0c0.8-0.2,1.2-1.1,1-1.7c-0.2-0.8-1.1-1.2-1.7-0.9c-0.8,0.2-1.2,1.1-0.9,1.7
	C118,45.5,118.7,45.8,119.4,45.8z"/>
<path d="M1.8,60.4c0.1,0,0.2,0,0.2,0c0.7-0.1,1.2-0.7,1.2-1.4l0,0c0-0.8-0.6-1.4-1.4-1.4c-0.8,0-1.4,0.6-1.4,1.4
	C0.4,59.8,1.1,60.4,1.8,60.4z"/>
<path d="M48.8,119.1c-0.7-0.2-1.5,0.3-1.7,1.1c-0.2,0.7,0.3,1.5,1,1.7c0.2,0.1,0.3,0.1,0.5,0c0.6-0.1,1-0.5,1.2-1.1
	C50,120.1,49.5,119.3,48.8,119.1z"/>
<path d="M62.3,120.6c-0.8,0-1.4,0.7-1.4,1.4c0,0.8,0.7,1.4,1.4,1.4c0,0,0.1,0,0.2,0c0.7-0.1,1.2-0.7,1.2-1.4
	C63.7,121.2,63.1,120.6,62.3,120.6z"/>
<path d="M41,7.2c0.1,0,0.2,0,0.3,0c0.8-0.3,1.1-1,0.8-1.8s-1-1.1-1.8-0.8c-0.8,0.3-1.1,1-0.8,1.8C39.6,6.9,40.3,7.3,41,7.2z"/>
<path d="M109.1,96.6c-0.4,0.7-0.3,1.5,0.3,2c0.3,0.2,0.6,0.3,1,0.3c0.4,0,0.8-0.3,0.9-0.6c0.4-0.7,0.3-1.5-0.3-2
	C110.4,95.8,109.5,96,109.1,96.6z"/>
<path d="M18,22.6c0.3,0,0.6-0.2,0.9-0.4c0.5-0.6,0.5-1.5,0-2s-1.5-0.5-2,0s-0.5,1.5,0,2C17.2,22.5,17.6,22.7,18,22.6z"/>
<path d="M81.5,6.8L81.5,6.8c0.2,0.1,0.4,0.1,0.6,0.1c0.5-0.1,1-0.4,1.2-1c0.3-0.7-0.1-1.6-0.8-1.8C81.8,3.9,81,4.2,80.7,5
	C80.4,5.7,80.8,6.6,81.5,6.8z"/>
<path d="M117.6,84.1c-0.7-0.3-1.5,0-1.8,0.7l0,0c-0.3,0.7,0,1.5,0.7,1.8c0.2,0.1,0.5,0.1,0.7,0.1c0.5-0.1,1-0.3,1.1-0.8
	C118.7,85.2,118.4,84.4,117.6,84.1z"/>
<path d="M28.6,13.6c0.2,0,0.4,0,0.6-0.2c0.6-0.5,0.8-1.3,0.4-2s-1.3-0.8-2-0.4c-0.6,0.5-0.8,1.3-0.4,2
	C27.5,13.4,28.1,13.7,28.6,13.6z"/>
<path d="M121.2,70.6c-0.8-0.1-1.5,0.4-1.7,1.2l0,0c-0.1,0.8,0.4,1.5,1.2,1.7c0.1,0,0.3,0.1,0.4,0.1c0.6-0.1,1.1-0.5,1.3-1.2
	C122.5,71.5,122,70.7,121.2,70.6z"/>
<path d="M121.6,56.7c-0.8,0.1-1.3,0.7-1.3,1.5c0.1,0.8,0.8,1.4,1.5,1.3l0.1,0c0.8-0.1,1.3-0.8,1.2-1.5
	C123.1,57.2,122.4,56.7,121.6,56.7z"/>
<path d="M105.4,22c0.3,0,0.6-0.2,0.8-0.4c0.5-0.6,0.6-1.5,0.1-2c-0.6-0.5-1.5-0.6-2-0.1c-0.5,0.6-0.6,1.4-0.1,2
	C104.6,21.9,105,22,105.4,22z"/>
<path d="M3.8,46.7c0.2,0.1,0.4,0.1,0.6,0c0.5-0.1,1.1-0.4,1.2-1.1c0.2-0.7-0.2-1.6-0.9-1.8S3.2,44,2.9,44.8
	C2.6,45.6,3,46.5,3.8,46.7z"/>
<path d="M9.8,33.8c0.4,0,0.9-0.3,1-0.7c0.4-0.7,0.1-1.5-0.5-1.9S8.8,31,8.3,31.7c-0.4,0.7-0.1,1.5,0.5,1.9
	C9.2,33.8,9.5,33.9,9.8,33.8z"/>
<path d="M57.2,115.6c-0.7,0-1.4,0.5-1.4,1.2c0,0.7,0.5,1.4,1.2,1.4c0.1,0,0.2,0,0.3,0c0.6-0.1,1-0.5,1.2-1.2
	C58.5,116.2,57.9,115.6,57.2,115.6z"/>
<path d="M72.7,9.4c0.1,0.1,0.3,0.1,0.4,0.1c0.5-0.1,1-0.4,1.1-1c0.1-0.7-0.3-1.4-1-1.5c-0.7-0.1-1.4,0.3-1.5,1
	C71.5,8.5,72,9.3,72.7,9.4z"/>
<path d="M69.7,115.1c-0.7,0.1-1.2,0.8-1.1,1.4c0.1,0.7,0.8,1.2,1.4,1.1l0,0c0.7-0.1,1.2-0.8,1.1-1.4C71.1,115.5,70.5,115,69.7,115.1
	z"/>
<path d="M35.7,14.9c0.1,0,0.3,0,0.5-0.2c0.7-0.4,0.9-1.1,0.5-1.8c-0.4-0.7-1.1-0.9-1.8-0.5c-0.7,0.4-0.9,1.1-0.5,1.8
	C34.7,14.8,35.2,15,35.7,14.9z"/>
<path d="M105.1,29.2c0.2,0,0.5-0.2,0.7-0.3c0.5-0.5,0.6-1.3,0.2-1.8c-0.5-0.5-1.3-0.6-1.8-0.2c-0.5,0.5-0.6,1.3-0.2,1.8
	C104.2,29,104.7,29.2,105.1,29.2z"/>
<path d="M94.9,18c-0.4,0.6-0.3,1.4,0.2,1.8c0.2,0.2,0.6,0.3,0.9,0.3c0.3,0,0.7-0.2,0.8-0.5c0.4-0.6,0.3-1.4-0.2-1.8l0,0
	C96.1,17.4,95.3,17.5,94.9,18z"/>
<path d="M47.6,10.1c0.1,0,0.1,0,0.2,0l0.1,0l0.1,0c0.7-0.2,1.1-0.9,0.9-1.6c-0.2-0.7-0.9-1.1-1.6-0.9l-0.1,0l-0.1,0
	c-0.7,0.2-1.1,0.9-0.9,1.6C46.4,9.9,46.9,10.2,47.6,10.1z"/>
<path d="M10.9,79c-0.2-0.7-0.9-1.1-1.6-0.8c-0.7,0.2-1,0.9-0.8,1.6c0.2,0.6,0.8,0.9,1.4,0.8c0.1,0,0.2,0,0.3,0
	C10.8,80.5,11.1,79.7,10.9,79z"/>
<path d="M7.2,68.2c0.7-0.1,1.2-0.8,1.1-1.4c-0.1-0.7-0.7-1.2-1.3-1.1c-0.7,0.1-1.2,0.7-1.1,1.3C5.8,67.8,6.5,68.3,7.2,68.2L7.2,68.2
	z"/>
<path d="M6.1,53.9c-0.1,0.7,0.4,1.4,1.1,1.5c0.1,0,0.2,0,0.3,0c0.6-0.1,1-0.5,1.1-1.1c0.1-0.7-0.4-1.4-1.1-1.5
	C6.9,52.8,6.2,53.3,6.1,53.9z"/>
<path d="M16.8,31.9c0.4,0,0.7-0.2,0.9-0.5c0.4-0.6,0.2-1.4-0.3-1.8c-0.6-0.4-1.4-0.2-1.8,0.3c-0.4,0.6-0.2,1.4,0.3,1.8
	C16.2,31.8,16.5,31.9,16.8,31.9z"/>
<path d="M11.1,40.6c-0.6-0.2-1.4,0.1-1.7,0.7c-0.2,0.6,0.1,1.4,0.7,1.7c0.2,0.1,0.4,0.1,0.7,0c0.5-0.1,0.9-0.3,1-0.8
	C12.1,41.6,11.8,40.8,11.1,40.6z"/>
<path d="M22.1,100c-0.5,0.6-0.5,1.4,0,1.8c0.3,0.3,0.7,0.4,1.1,0.4c0.3,0,0.6-0.2,0.8-0.4c0.5-0.5,0.5-1.4,0-1.8
	C23.4,99.6,22.6,99.6,22.1,100z"/>
<path d="M14.4,89.9c-0.6,0.4-0.8,1.2-0.4,1.8c0.3,0.5,0.8,0.7,1.3,0.6c0.2,0,0.4,0,0.5-0.2c0.6-0.4,0.8-1.2,0.4-1.8
	C15.8,89.7,15,89.5,14.4,89.9z"/>
<path d="M34.1,109.5c0.3-0.6,0.1-1.4-0.4-1.8c-0.6-0.3-1.4-0.2-1.8,0.4c-0.3,0.6-0.2,1.4,0.4,1.8c0.2,0.2,0.5,0.2,0.8,0.2
	C33.6,110.1,33.9,109.9,34.1,109.5z"/>
<path d="M84.5,13.3c0.2,0.1,0.5,0.1,0.7,0.1c0.4,0,0.9-0.3,1-0.7c0.3-0.6,0-1.4-0.6-1.7c-0.6-0.3-1.4,0-1.7,0.6
	C83.6,12.3,83.8,13.1,84.5,13.3z"/>
<path d="M25.3,22.3c0.3,0,0.5-0.2,0.7-0.3c0.5-0.5,0.5-1.3,0.1-1.8c-0.5-0.5-1.3-0.5-1.8-0.1c-0.5,0.5-0.5,1.3-0.1,1.8
	C24.5,22.2,24.9,22.3,25.3,22.3z"/>
<path d="M45,113c-0.6-0.2-1.4,0.2-1.6,0.8c-0.2,0.6,0.2,1.4,0.8,1.6c0.2,0.1,0.4,0.1,0.5,0c0.5-0.1,1-0.4,1.1-0.8
	C46,114,45.7,113.2,45,113z"/>
<path d="M102,97.7c-0.4,0.6-0.4,1.4,0.1,1.8c0.2,0.3,0.6,0.3,1,0.3c0.3,0,0.6-0.2,0.9-0.4c0.4-0.6,0.4-1.4-0.1-1.8
	C103.3,97.1,102.5,97.1,102,97.7z"/>
<path d="M81.7,111.8c-0.7,0.3-1,1-0.7,1.7c0.3,0.6,0.8,0.9,1.3,0.8c0.1,0,0.2,0,0.3,0c0.7-0.3,1-1,0.7-1.7
	C83.2,112,82.4,111.7,81.7,111.8z"/>
<path d="M60.3,8.3L60.3,8.3c0.8-0.1,1.2-0.7,1.2-1.4c0-0.7-0.7-1.2-1.4-1.2c-0.7,0-1.2,0.7-1.2,1.4C58.9,7.8,59.6,8.3,60.3,8.3z"/>
<path d="M111.8,39.9c0.1,0,0.3,0,0.4-0.1c0.7-0.3,0.9-1.1,0.6-1.7c-0.3-0.7-1.1-1-1.7-0.6c-0.7,0.3-0.9,1-0.6,1.7
	C110.7,39.8,111.3,40,111.8,39.9z"/>
<path d="M109.1,87.4c-0.3,0.6-0.1,1.4,0.5,1.8c0.2,0.2,0.5,0.1,0.8,0.1c0.4,0,0.8-0.3,1-0.6c0.3-0.6,0.1-1.4-0.5-1.8
	C110.3,86.6,109.5,86.8,109.1,87.4z"/>
<path d="M92.7,106c-0.6,0.4-0.8,1.2-0.3,1.8c0.2,0.4,0.8,0.6,1.3,0.5c0.2,0,0.4,0,0.6-0.3c0.6-0.4,0.8-1.2,0.3-1.8
	C94.1,105.7,93.3,105.6,92.7,106z"/>
<path d="M116.2,76.5L116.2,76.5c0.2-0.7-0.3-1.4-0.9-1.6c-0.7-0.2-1.4,0.2-1.6,0.9c-0.2,0.7,0.2,1.4,0.9,1.6c0.2,0.1,0.3,0.1,0.5,0
	C115.6,77.4,116.1,77,116.2,76.5z"/>
<path d="M116.9,62.3c-0.7,0-1.3,0.6-1.4,1.3c0,0.7,0.6,1.3,1.3,1.4c0.1,0,0.1,0,0.2,0c0.6-0.1,1.1-0.6,1.2-1.3
	C118.1,62.8,117.6,62.3,116.9,62.3z"/>
<path d="M115.4,49.6c-0.7,0.2-1.1,0.8-1,1.5c0.2,0.7,0.7,1.1,1.4,1l0.1,0c0.7-0.1,1.1-0.8,1-1.5C116.7,49.8,116.1,49.4,115.4,49.6z"
	/>
<path d="M15.6,81.1C15,81.3,14.7,82,15,82.7c0.2,0.5,0.7,0.7,1.2,0.7c0.1,0,0.2,0,0.3,0c0.6-0.3,0.9-0.9,0.6-1.6
	C16.8,81,16.2,80.8,15.6,81.1z"/>
<path d="M34.1,21.7c0.2,0,0.4,0,0.5-0.2c0.6-0.4,0.7-1.1,0.3-1.6c-0.4-0.6-1.1-0.7-1.6-0.3c-0.6,0.4-0.7,1.1-0.3,1.6
	C33.3,21.5,33.7,21.7,34.1,21.7z"/>
<path d="M93.5,99.2c-0.5,0.4-0.6,1.2-0.1,1.6c0.2,0.3,0.7,0.4,1.1,0.4c0.2,0,0.5-0.2,0.7-0.3c0.4-0.5,0.6-1.2,0.1-1.6
	C94.7,98.8,93.9,98.8,93.5,99.2z"/>
<path d="M14.9,48.4c0.2-0.6-0.2-1.3-0.8-1.5s-1.3,0.2-1.4,0.8c-0.2,0.6,0.2,1.3,0.8,1.4c0.1,0.1,0.3,0.1,0.5,0
	C14.4,49.2,14.8,48.8,14.9,48.4z"/>
<path d="M40.2,105.8c-0.5-0.3-1.3,0-1.6,0.5c-0.3,0.5,0,1.3,0.5,1.6c0.2,0.1,0.4,0.1,0.6,0.1c0.4,0,0.8-0.3,0.9-0.6
	C41.1,106.8,40.8,106.1,40.2,105.8z"/>
<path d="M50.9,109.6c-0.6-0.1-1.3,0.3-1.4,0.9c-0.1,0.6,0.3,1.3,0.9,1.4c0.1,0,0.3,0.1,0.4,0.1c0.5-0.1,0.9-0.4,1-0.9
	C51.9,110.4,51.6,109.7,50.9,109.6z"/>
<path d="M30.8,99.7c-0.6-0.4-1.3-0.4-1.7,0.2c-0.4,0.5-0.4,1.3,0.2,1.7c0.2,0.2,0.5,0.3,0.9,0.3c0.3,0,0.6-0.2,0.8-0.4
	C31.3,100.8,31.2,100,30.8,99.7z"/>
<path d="M84.1,105.5c-0.6,0.3-0.8,1-0.5,1.6c0.3,0.5,0.7,0.7,1.2,0.7c0.1,0,0.3,0,0.4-0.1c0.6-0.3,0.8-1,0.5-1.6
	C85.4,105.4,84.7,105.1,84.1,105.5z"/>
<path d="M12.8,72.2L12.8,72.2c0.7-0.1,1.1-0.7,1-1.3c-0.1-0.7-0.7-1.1-1.3-0.9c-0.6,0.2-1,0.7-0.9,1.3
	C11.7,71.9,12.2,72.3,12.8,72.2z"/>
<path d="M107.4,82.6c0.2,0.1,0.4,0.1,0.6,0.1c0.4,0,0.8-0.3,0.9-0.7c0.2-0.6-0.1-1.3-0.6-1.5c-0.6-0.2-1.3,0.1-1.5,0.6
	C106.5,81.6,106.8,82.3,107.4,82.6z"/>
<path d="M17.3,36.8c-0.3,0.5-0.1,1.3,0.4,1.6c0.2,0.2,0.5,0.1,0.7,0.1c0.4,0,0.7-0.3,0.9-0.6c0.3-0.5,0.1-1.3-0.4-1.6
	C18.3,36,17.6,36.2,17.3,36.8z"/>
<path d="M21.3,91.3c-0.6,0.4-0.7,1.1-0.2,1.6c0.2,0.4,0.7,0.5,1.1,0.5c0.2,0,0.4-0.1,0.6-0.3c0.6-0.4,0.7-1.2,0.2-1.6
	S21.7,90.9,21.3,91.3z"/>
<path d="M101.4,92.5c0.2,0.2,0.5,0.2,0.8,0.2s0.6-0.2,0.8-0.5c0.4-0.6,0.3-1.2-0.2-1.7c-0.6-0.4-1.2-0.3-1.7,0.2l0,0
	C100.8,91.4,100.9,92.2,101.4,92.5z"/>
<path d="M111.4,69.2c-0.6-0.1-1.3,0.4-1.4,1c-0.1,0.6,0.4,1.3,1,1.4c0.1,0,0.2,0,0.3,0c0.5-0.1,1-0.4,1-0.9
	C112.4,69.9,112,69.2,111.4,69.2z"/>
<path d="M106,36.1c-0.4-0.6-1.1-0.8-1.6-0.4c-0.6,0.4-0.8,1.1-0.4,1.7c0.2,0.4,0.7,0.6,1.2,0.6c0.1,0,0.3,0,0.5-0.2
	C106.2,37.4,106.3,36.7,106,36.1z"/>
<path d="M43.2,15.5c0.2,0.5,0.7,0.8,1.2,0.8c0.1,0,0.2,0,0.3,0c0.6-0.3,0.9-0.9,0.7-1.5c-0.3-0.6-0.9-0.9-1.5-0.7
	C43.3,14.3,42.9,14.9,43.2,15.5z"/>
<path d="M25.3,29.2c0.3,0,0.5-0.2,0.8-0.4c0.4-0.5,0.4-1.3-0.1-1.6c-0.5-0.4-1.3-0.4-1.7,0.1c-0.4,0.5-0.4,1.3,0.1,1.6
	C24.6,29.1,25,29.2,25.3,29.2z"/>
<path d="M78.2,16c0.2,0.1,0.3,0.1,0.5,0c0.4,0,0.9-0.3,1-0.8c0.2-0.6-0.1-1.3-0.7-1.5c-0.6-0.2-1.3,0.1-1.5,0.7
	C77.3,15.2,77.6,15.8,78.2,16z"/>
<path d="M11.8,60.7c0.1,0,0.1,0,0.2,0c0.6-0.1,1-0.5,1.1-1.1c0-0.6-0.4-1.2-1.2-1.3c-0.6,0-1.2,0.4-1.3,1.2
	C10.7,60.1,11.2,60.7,11.8,60.7z"/>
<path d="M55.7,13.6C55.7,13.6,55.8,13.6,55.7,13.6c0.1,0,0.1,0,0.2,0c0.6-0.1,1.1-0.6,1-1.3s-0.6-1.1-1.3-1l-0.1,0l-0.1,0
	c-0.6,0.1-1.1,0.6-1,1.3C54.4,13.1,55.1,13.7,55.7,13.6z"/>
<path d="M62.2,110.8c-0.6,0-1.1,0.5-1.2,1.2c0,0.6,0.5,1.1,1.2,1.2l0.1,0c0.6-0.1,1-0.5,1.1-1.1C63.4,111.4,62.9,110.8,62.2,110.8z"
	/>
<path d="M108.5,47.7c0.2,0.6,0.7,0.9,1.3,0.8c0.1,0,0.1,0,0.2,0c0.6-0.2,1-0.8,0.8-1.5c-0.2-0.6-0.8-1-1.5-0.8
	C108.7,46.4,108.3,47,108.5,47.7z"/>
<path d="M89.2,21.3c0.3,0,0.7-0.2,0.8-0.5c0.3-0.5,0.2-1.2-0.4-1.6c-0.5-0.3-1.2-0.3-1.6,0.3s-0.3,1.2,0.3,1.7
	C88.7,21.2,89,21.3,89.2,21.3z"/>
<path d="M97.2,26.6c-0.4,0.5-0.5,1.2,0,1.6c0.2,0.3,0.7,0.4,1,0.4c0.2,0,0.5-0.2,0.7-0.3c0.4-0.5,0.5-1.2,0-1.6S97.6,26.2,97.2,26.6
	z"/>
<path d="M67.3,13.5c0.1,0,0.2,0,0.3,0c0.5-0.1,0.9-0.5,1-1c0.1-0.6-0.4-1.3-1.1-1.3c-0.6,0-1.3,0.4-1.3,1.1
	C66.1,12.8,66.5,13.4,67.3,13.5z"/>
<path d="M74,111.7c0.6-0.2,1-0.8,0.8-1.4s-0.8-1-1.4-0.8c-0.6,0.2-1,0.8-0.8,1.4C72.7,111.4,73.3,111.8,74,111.7L74,111.7z"/>
<path d="M110.5,58.8c0.1,0.6,0.6,1.1,1.2,1.1l0.1,0c0.6-0.1,1-0.6,1.1-1.2c-0.1-0.6-0.6-1.1-1.2-1.1C111,57.6,110.5,58.1,110.5,58.8
	z"/>
<path d="M48.1,103.8c-0.5-0.1-1.2,0.1-1.3,0.7c-0.1,0.5,0.1,1.2,0.7,1.3c0.1,0.1,0.3,0.1,0.4,0.1c0.4,0,0.8-0.3,0.9-0.7
	C48.9,104.5,48.6,103.9,48.1,103.8z"/>
<path d="M94.7,91.2c-0.3,0.4-0.4,1.2,0.1,1.5c0.2,0.2,0.5,0.3,0.8,0.3c0.2,0,0.5-0.2,0.7-0.4c0.3-0.4,0.4-1.2-0.1-1.5
	C95.8,90.7,95.1,90.8,94.7,91.2z"/>
<path d="M105.8,63.2c0,0.6,0.4,1.1,1,1.1c0.1,0,0.1,0,0.2,0c0.5-0.1,0.9-0.5,0.9-1c0-0.6-0.4-1.1-1-1.1
	C106.3,62.2,105.7,62.7,105.8,63.2z"/>
<path d="M19.3,77.3c0.1,0,0.1,0,0.2,0c0.6-0.2,0.8-0.8,0.6-1.3c-0.2-0.6-0.8-0.8-1.3-0.6c-0.6,0.2-0.8,0.8-0.6,1.3
	C18.3,77.1,18.8,77.4,19.3,77.3z"/>
<path d="M17.1,67.1c0.6-0.1,0.9-0.5,1-1.1c-0.1-0.6-0.5-1-1.1-1c-0.6,0.1-1,0.5-1,1.1C16,66.7,16.5,67.2,17.1,67.1L17.1,67.1z"/>
<path d="M49.8,17.5L49.8,17.5c-0.7,0.2-1,0.7-0.8,1.3c0.2,0.5,0.6,0.8,1.1,0.8c0.1,0,0.1,0,0.2,0c0,0,0,0,0.1,0c0,0,0,0,0.1,0
	c0.6-0.2,0.9-0.7,0.7-1.3C51,17.7,50.5,17.3,49.8,17.5C49.9,17.5,49.8,17.5,49.8,17.5z"/>
<path d="M25,37.3c0.3,0,0.6-0.2,0.7-0.5c0.3-0.4,0.3-1.1-0.3-1.5c-0.4-0.3-1.1-0.3-1.5,0.3c-0.3,0.4-0.3,1.1,0.3,1.5
	C24.5,37.3,24.7,37.3,25,37.3z"/>
<path d="M89.9,27.7c0.3,0,0.5-0.2,0.7-0.4c0.3-0.4,0.3-1.1-0.2-1.5c-0.4-0.3-1.1-0.3-1.5,0.2s-0.3,1.1,0.2,1.5
	C89.2,27.7,89.6,27.8,89.9,27.7z"/>
<path d="M17.1,56.6c0.1,0,0.2,0,0.3,0c0.5-0.1,0.9-0.4,0.9-0.9c0.1-0.6-0.3-1.1-0.9-1.2c-0.6,0-1.1,0.3-1.2,0.9
	C16.2,56,16.5,56.6,17.1,56.6z"/>
<path d="M97.9,33.4c-0.4-0.5-1.1-0.6-1.5-0.2c-0.5,0.4-0.5,1-0.1,1.4c0.2,0.3,0.6,0.4,1,0.4c0.2,0,0.4-0.1,0.5-0.3
	C98.3,34.6,98.4,33.8,97.9,33.4z"/>
<path d="M106.3,73.9c0.1-0.5-0.1-1.2-0.8-1.3c-0.6-0.1-1.2,0.1-1.3,0.8c-0.1,0.5,0.1,1.2,0.8,1.3c0.1,0,0.3,0.1,0.4,0.1
	C105.9,74.6,106.3,74.3,106.3,73.9z"/>
<path d="M20.4,44.5c-0.5-0.2-1.2,0-1.3,0.6c-0.2,0.5,0,1.2,0.6,1.3c0.2,0.1,0.3,0.1,0.5,0c0.4,0,0.7-0.3,0.8-0.7l0,0
	C21.2,45.3,20.9,44.8,20.4,44.5z"/>
<path d="M102.7,44c0.1,0,0.2,0,0.3,0c0.6-0.3,0.8-0.9,0.5-1.4l0,0c-0.3-0.6-0.9-0.8-1.4-0.5s-0.8,0.9-0.5,1.4
	C101.8,43.8,102.2,44,102.7,44z"/>
<path d="M29.3,93.2c-0.5,0.4-0.4,1.1,0,1.5c0.2,0.3,0.5,0.3,0.8,0.3c0.2,0,0.5-0.2,0.6-0.3c0.4-0.5,0.4-1.1,0-1.5
	C30.4,92.8,29.7,92.7,29.3,93.2z"/>
<path d="M78.1,102.8c-0.6,0.2-0.8,0.8-0.6,1.4c0.2,0.5,0.6,0.7,1.1,0.7c0.1,0,0.2,0,0.3,0c0.6-0.2,0.8-0.8,0.6-1.4
	C79.2,102.9,78.7,102.5,78.1,102.8z"/>
<path d="M58,105.8c-0.6,0-1.1,0.3-1.1,0.9c0,0.6,0.3,1.1,0.9,1.1c0.1,0,0.1,0,0.2,0c0.5-0.1,0.9-0.4,0.9-0.9
	C59.1,106.4,58.6,105.8,58,105.8z"/>
<path d="M100.6,82.8c-0.2,0.5-0.1,1.1,0.4,1.5c0.2,0.1,0.4,0.1,0.6,0.1c0.3,0,0.7-0.3,0.8-0.6c0.2-0.5,0.1-1.1-0.4-1.5
	C101.5,82.1,100.8,82.3,100.6,82.8z"/>
<path d="M40.5,23.5c0.1,0,0.3,0,0.4-0.1c0.6-0.3,0.7-0.9,0.4-1.5c-0.3-0.5-0.9-0.7-1.5-0.4c-0.5,0.3-0.7,0.9-0.4,1.5
	C39.6,23.3,40.1,23.6,40.5,23.5z"/>
<path d="M39.2,100.8c0.3-0.5,0.2-1.1-0.4-1.5s-1.1-0.2-1.5,0.4s-0.2,1.1,0.4,1.5c0.2,0.2,0.4,0.1,0.7,0.1S39,101.2,39.2,100.8z"/>
<path d="M31,29.2c0.2,0.3,0.6,0.4,1,0.4c0.2,0,0.4-0.1,0.6-0.3c0.5-0.4,0.5-1.1,0.1-1.5c-0.4-0.5-1.1-0.5-1.5-0.1
	C30.7,28,30.6,28.8,31,29.2z"/>
<path d="M87.1,98c-0.5,0.4-0.6,1-0.2,1.4c0.2,0.4,0.7,0.5,1,0.5c0.2,0,0.3,0,0.5-0.2l0,0c0.5-0.4,0.6-1,0.2-1.4
	C88.2,97.8,87.6,97.6,87.1,98z"/>
<path d="M79.8,20.8c-0.2,0.5-0.1,1.1,0.5,1.5c0.2,0.1,0.4,0.1,0.6,0.1c0.4,0,0.7-0.3,0.8-0.6c0.2-0.5,0.1-1.1-0.5-1.5
	C80.7,20,80.1,20.3,79.8,20.8z"/>
<path d="M60.6,18C60.6,18,60.7,18,60.6,18c0.6-0.1,1-0.5,1-1.1c0-0.6-0.5-1-1.1-1c-0.6,0-1,0.5-1.1,1C59.5,17.7,60,18.1,60.6,18z"/>
<path d="M68.5,107.5L68.5,107.5c0.6-0.1,1-0.6,1-1.2s-0.6-0.9-1.2-0.9s-0.9,0.6-0.9,1.2C67.5,107.2,68,107.6,68.5,107.5z"/>
<path d="M23,84.8c-0.5,0.3-0.7,1-0.3,1.5c0.2,0.4,0.7,0.5,1.1,0.5c0.1,0,0.3,0,0.4-0.1c0.5-0.3,0.7-1,0.3-1.5
	C24.2,84.7,23.5,84.5,23,84.8z"/>
<path d="M71.1,16.8c-0.6-0.1-1.2,0.2-1.2,0.9c-0.1,0.6,0.2,1.2,0.9,1.3c0.1,0,0.2,0,0.3,0c0.4,0,0.8-0.4,0.9-0.8
	C72.1,17.5,71.7,17,71.1,16.8z"/>
<path d="M106.9,52.6c-0.1-0.6-0.7-0.9-1.3-0.8c-0.6,0.2-0.9,0.7-0.9,1.2c0.1,0.6,0.6,0.9,1.1,0.9l0.1,0
	C106.7,53.8,107.1,53.2,106.9,52.6z"/>
<path d="M26.2,41.8c-0.2,0.4-0.1,1,0.4,1.3c0.2,0.1,0.4,0.1,0.6,0.1c0.3,0,0.6-0.2,0.7-0.5c0.2-0.4,0.1-1-0.4-1.3
	C27,41.2,26.4,41.4,26.2,41.8z"/>
<path d="M66.1,23.2c0.1,0,0.2,0,0.2,0c0.4,0,0.8-0.4,0.8-0.8c0-0.5-0.3-1-0.8-1c-0.5,0-1,0.3-1,0.8C65.3,22.7,65.6,23.1,66.1,23.2z"
	/>
<path d="M53.1,100c-0.5-0.1-1,0.2-1.1,0.7c-0.1,0.5,0.2,1,0.7,1.1c0.1,0,0.2,0,0.3,0c0.4,0,0.8-0.3,0.8-0.7
	C53.9,100.8,53.6,100.2,53.1,100z"/>
<path d="M71.5,101.8c0.5-0.2,0.8-0.6,0.7-1.2c-0.2-0.5-0.6-0.8-1.2-0.7c-0.5,0.2-0.8,0.6-0.7,1.1c0.2,0.5,0.6,0.7,1,0.7
	C71.4,101.8,71.5,101.8,71.5,101.8z"/>
<path d="M30.7,85.6c-0.3-0.4-0.9-0.5-1.3-0.1c-0.5,0.4-0.5,0.9-0.1,1.3c0.2,0.3,0.6,0.4,0.9,0.4c0.2,0,0.3,0,0.5-0.2
	C30.9,86.6,31,86,30.7,85.6z"/>
<path d="M38.8,29.3c0.2,0.3,0.6,0.4,0.9,0.4c0.1,0,0.3,0,0.4-0.1c0.5-0.3,0.5-0.9,0.2-1.3c-0.3-0.5-0.9-0.5-1.3-0.2
	C38.5,28.3,38.4,28.9,38.8,29.3z"/>
<path d="M100.2,51.2c0.1,0,0.1,0,0.2,0c0.5-0.2,0.8-0.7,0.7-1.2c-0.2-0.5-0.7-0.8-1.2-0.7c-0.5,0.2-0.8,0.7-0.7,1.2
	C99.3,51,99.7,51.3,100.2,51.2z"/>
<path d="M94.2,86.5c0.2,0,0.5-0.2,0.7-0.4c0.2-0.4,0.2-1-0.3-1.3c-0.4-0.3-1-0.2-1.3,0.2c-0.3,0.4-0.2,1,0.2,1.3S94,86.6,94.2,86.5z
	"/>
<path d="M22.4,50.6c-0.1,0.5,0.1,1,0.6,1.1c0.1,0.1,0.2,0.1,0.4,0.1c0.4,0,0.7-0.3,0.8-0.7c0.1-0.5-0.1-1-0.6-1.1
	C23.2,49.8,22.7,50.1,22.4,50.6z"/>
<path d="M32.6,35.8c0.2,0,0.4-0.1,0.6-0.3c0.4-0.3,0.4-1-0.1-1.3c-0.3-0.4-0.9-0.3-1.3,0.1c-0.4,0.2-0.4,0.9,0,1.2
	C32.1,35.7,32.3,35.8,32.6,35.8z"/>
<path d="M101.4,67.7c-0.5-0.1-1,0.2-1.1,0.7s0.2,1,0.7,1.1c0.1,0,0.2,0,0.3,0c0.4,0,0.8-0.4,0.8-0.8
	C102.3,68.3,101.9,67.9,101.4,67.7z"/>
<path d="M26.1,77.8c-0.2-0.5-0.8-0.7-1.3-0.4c-0.5,0.2-0.7,0.8-0.4,1.3c0.1,0.4,0.6,0.6,1,0.6c0.1,0,0.2,0,0.3,0
	C26.1,78.8,26.2,78.3,26.1,77.8z"/>
<path d="M83.1,29.3c0.2,0.1,0.4,0.1,0.6,0.1c0.3,0,0.5-0.2,0.7-0.4c0.2-0.4,0.2-1-0.3-1.3c-0.4-0.2-1-0.2-1.3,0.3
	C82.5,28.3,82.6,28.9,83.1,29.3z"/>
<path d="M56.8,21.4L56.8,21.4C56.7,21.4,56.7,21.4,56.8,21.4c-0.6,0.1-0.9,0.5-0.9,1s0.5,0.8,1,0.8l0.1,0c0,0,0,0,0.1,0
	c0.5-0.1,0.8-0.5,0.8-1S57.3,21.3,56.8,21.4z"/>
<path d="M47.9,25.4c0.1,0,0.1,0,0.2,0c0.5-0.2,0.7-0.7,0.6-1.2c-0.2-0.5-0.7-0.7-1.2-0.6c-0.5,0.2-0.7,0.7-0.6,1.2
	C47,25.2,47.5,25.5,47.9,25.4z"/>
<path d="M74.9,25.2c0.1,0.1,0.3,0.1,0.4,0.1c0.3,0,0.7-0.3,0.7-0.6c0.1-0.5-0.1-1-0.6-1.2c-0.5-0.1-1,0-1.2,0.6
	C74.2,24.5,74.5,25,74.9,25.2z"/>
<path d="M22.6,70.2L22.6,70.2c0.6-0.1,0.9-0.6,0.8-1.1c-0.1-0.5-0.6-0.8-1.1-0.8c-0.5,0.1-0.8,0.6-0.8,1.1
	C21.7,69.9,22.1,70.3,22.6,70.2z"/>
<path d="M62.1,101.1c-0.5,0-1,0.4-0.9,0.9c0,0.5,0.4,1,0.9,0.9l0.1,0c0.5-0.1,0.9-0.4,0.8-0.9C63,101.4,62.6,101.1,62.1,101.1z"/>
<path d="M87.1,91.7c-0.4,0.3-0.4,1-0.1,1.3c0.2,0.3,0.5,0.3,0.8,0.3c0.2,0,0.4,0,0.5-0.3c0.4-0.3,0.4-1,0.1-1.3
	C88.1,91.4,87.6,91.4,87.1,91.7z"/>
<path d="M37.1,93.4c0.4-0.3,0.3-0.9-0.2-1.3c-0.4-0.3-1-0.3-1.3,0.2c-0.3,0.4-0.3,1,0.2,1.3c0.2,0.2,0.4,0.2,0.7,0.2
	C36.7,93.8,36.9,93.7,37.1,93.4z"/>
<path d="M22.8,60c0-0.5-0.4-1-0.9-1s-1,0.3-1,0.9c0,0.5,0.4,1,0.9,1c0.1,0,0.1,0,0.2,0C22.4,60.9,22.8,60.5,22.8,60z"/>
<path d="M44.6,97.1c-0.4-0.2-1-0.1-1.3,0.5c-0.2,0.4-0.1,1,0.5,1.3c0.2,0.1,0.3,0.2,0.5,0.1c0.3,0,0.6-0.3,0.7-0.5
	C45.3,97.8,45,97.3,44.6,97.1z"/>
<path d="M96.4,42.7c0.1,0,0.2,0,0.4-0.1c0.5-0.3,0.6-0.9,0.4-1.3l0,0c-0.3-0.5-0.9-0.6-1.3-0.4c-0.5,0.3-0.6,0.9-0.4,1.3
	C95.7,42.6,96.1,42.8,96.4,42.7z"/>
<path d="M99.5,77.9L99.5,77.9c0.2-0.5,0-1-0.5-1.3c-0.4-0.2-1,0-1.2,0.6l0,0c-0.2,0.4,0,1,0.5,1.3c0.1,0.1,0.3,0.1,0.5,0
	C99.1,78.5,99.4,78.2,99.5,77.9z"/>
<path d="M91.4,35c0.4-0.3,0.4-1,0-1.3c-0.3-0.4-1-0.4-1.3,0s-0.4,1,0,1.3c0.2,0.2,0.5,0.3,0.8,0.3C91.1,35.2,91.3,35.2,91.4,35z"/>
<path d="M102.7,59.3c-0.1-0.5-0.5-0.9-1-0.9c-0.5,0.1-0.9,0.5-0.9,1l0,0c0.1,0.5,0.5,0.9,1,0.9c0,0,0,0,0.1,0
	C102.3,60.3,102.7,59.8,102.7,59.3L102.7,59.3z"/>
<path d="M80.1,98.5c0.1,0,0.2,0,0.3-0.1c0.5-0.3,0.6-0.8,0.4-1.3c-0.3-0.5-0.8-0.6-1.3-0.4C79.1,97,79,97.5,79.1,98
	C79.4,98.4,79.8,98.6,80.1,98.5z"/>
<path d="M92.8,79.4c0.3,0,0.5-0.2,0.6-0.5c0.2-0.4,0.1-0.9-0.3-1.1c-0.4-0.2-0.9-0.1-1.1,0.3c-0.2,0.4-0.1,0.9,0.3,1.2
	C92.4,79.4,92.6,79.4,92.8,79.4z"/>
<path d="M69.1,26.9c-0.4-0.1-0.9,0.2-0.9,0.6c-0.1,0.4,0.2,0.9,0.6,0.9c0.1,0,0.2,0,0.3,0c0.3,0,0.7-0.3,0.7-0.7
	C69.8,27.5,69.5,27,69.1,26.9z"/>
<path d="M37.9,35.3c-0.4,0.3-0.4,0.9-0.1,1.1c0.2,0.2,0.4,0.3,0.7,0.3c0.2,0,0.3,0,0.5-0.2c0.4-0.3,0.4-0.9,0.1-1.1
	C38.8,35,38.3,35,37.9,35.3z"/>
<path d="M75.8,30c-0.1,0.4,0,0.9,0.4,1.1c0.1,0.1,0.3,0.1,0.4,0.1c0.3,0,0.5-0.2,0.6-0.5c0.1-0.4,0-0.9-0.4-1.1
	C76.6,29.4,76.1,29.5,75.8,30z"/>
<path d="M60.9,27.9L60.9,27.9c0.5-0.1,0.9-0.4,0.8-0.8c-0.1-0.5-0.4-0.9-0.8-0.8c-0.4,0-0.8,0.4-0.8,0.8
	C60,27.5,60.3,27.8,60.9,27.9z"/>
<path d="M45.8,30.8c-0.2-0.4-0.7-0.5-1.2-0.4c-0.4,0.2-0.5,0.8-0.4,1.2c0.1,0.3,0.5,0.4,0.9,0.4c0.1,0,0.2,0,0.3-0.1
	C45.9,31.7,46.1,31.2,45.8,30.8z"/>
<path d="M83.6,35.3c0.2,0,0.4-0.1,0.6-0.3c0.3-0.3,0.2-0.8-0.1-1.2c-0.3-0.3-0.8-0.2-1.2,0.1c-0.3,0.3-0.2,0.8,0.1,1.2
	C83.2,35.3,83.4,35.4,83.6,35.3z"/>
<path d="M58.8,97.7c0,0,0.1,0,0.2,0c0.4,0,0.7-0.4,0.7-0.8c0-0.5-0.3-0.9-0.7-0.9c-0.4-0.1-0.9,0.3-0.9,0.7
	C58,97.2,58.3,97.7,58.8,97.7z"/>
<path d="M51.9,28.5c0.1,0.4,0.5,0.6,0.9,0.6l0.1,0l0,0c0,0,0,0,0.1,0c0.5-0.2,0.7-0.6,0.6-1c-0.2-0.5-0.6-0.7-1-0.6l0,0
	c0,0,0,0-0.1,0c0,0,0,0-0.1,0C52,27.5,51.7,28,51.9,28.5z"/>
<path d="M43.6,92.6c0.2,0,0.5-0.2,0.6-0.4c0.3-0.3,0.1-0.9-0.2-1.2c-0.4-0.2-0.9-0.1-1.2,0.2c-0.2,0.4-0.1,0.9,0.2,1.2
	C43.2,92.6,43.4,92.7,43.6,92.6z"/>
<path d="M51.6,95.5c0.1-0.4-0.1-0.9-0.5-1s-0.9,0.1-1,0.5c-0.1,0.4,0.1,0.9,0.5,1c0.1,0,0.2,0.1,0.4,0.1
	C51.3,96,51.6,95.8,51.6,95.5z"/>
<path d="M30.1,49.5c0.1-0.4,0-0.9-0.4-1.1c-0.4-0.1-0.9,0-1.1,0.4s0,0.9,0.4,1.1c0.1,0.1,0.3,0.1,0.4,0.1
	C29.6,49.9,29.9,49.8,30.1,49.5z"/>
<path d="M88.8,39.6c-0.4,0.2-0.4,0.9-0.2,1.1c0.2,0.2,0.4,0.3,0.7,0.3c0.1,0,0.3,0,0.4-0.1c0.4-0.2,0.4-0.8,0.2-1.1
	C89.7,39.4,89.1,39.3,88.8,39.6z"/>
<path d="M27,66L27,66c0.5-0.1,0.7-0.5,0.7-0.9c0-0.4-0.4-0.8-0.9-0.7c-0.5,0.1-0.8,0.4-0.8,0.9C26.2,65.7,26.6,66,27,66z"/>
<path d="M27.1,57.8c0.1,0,0.1,0,0.2,0c0.4,0,0.7-0.3,0.7-0.7c0.1-0.4-0.2-0.9-0.7-0.9c-0.4-0.1-0.9,0.2-0.9,0.7
	C26.3,57.3,26.6,57.8,27.1,57.8z"/>
<path d="M31.7,79.7c-0.4,0.2-0.5,0.8-0.3,1.1c0.1,0.3,0.5,0.4,0.9,0.4c0.1,0,0.2,0,0.3-0.1c0.4-0.2,0.5-0.8,0.3-1.1
	C32.6,79.6,32,79.5,31.7,79.7z"/>
<path d="M92.8,47.5c0.1,0.4,0.5,0.5,0.9,0.5c0.1,0,0.2,0,0.2,0c0.4-0.1,0.6-0.7,0.4-1.1c-0.1-0.4-0.7-0.6-1.1-0.4
	C92.8,46.6,92.6,47.1,92.8,47.5z"/>
<path d="M28.3,72.3c-0.5,0.2-0.6,0.6-0.5,1.1c0.1,0.4,0.5,0.6,0.9,0.6c0,0,0.1,0,0.2,0c0.5-0.2,0.6-0.6,0.6-1.1
	C29.2,72.3,28.8,72.2,28.3,72.3z"/>
<path d="M82.4,91.3c0.4-0.2,0.5-0.8,0.2-1.1c-0.2-0.4-0.8-0.4-1.1-0.2c-0.4,0.2-0.4,0.8-0.2,1.1c0.2,0.3,0.4,0.3,0.7,0.3
	C82.2,91.4,82.3,91.4,82.4,91.3z"/>
<path d="M87.4,84.7c-0.3,0.3-0.3,0.8,0,1.2c0.2,0.2,0.4,0.2,0.6,0.2c0.2,0,0.4-0.1,0.5-0.3c0.3-0.3,0.3-0.8,0-1.2
	C88.2,84.3,87.7,84.3,87.4,84.7z"/>
<path d="M95.5,71.8c0.1,0,0.2,0.1,0.3,0.1c0.3,0,0.6-0.3,0.7-0.6c0.1-0.4-0.1-0.9-0.6-1c-0.5-0.1-0.9,0.1-1,0.6S95,71.7,95.5,71.8z"
	/>
<path d="M67.1,97.4L67.1,97.4c0.5-0.1,0.7-0.5,0.7-0.9c-0.1-0.5-0.5-0.7-0.9-0.7c-0.5,0.1-0.7,0.5-0.7,0.9
	C66.2,97.2,66.6,97.5,67.1,97.4z"/>
<path d="M74.5,93.7L74.5,93.7c-0.5,0.2-0.6,0.7-0.5,1.1c0.1,0.4,0.5,0.5,0.9,0.5c0.1,0,0.1,0,0.2,0c0.4-0.1,0.6-0.7,0.5-1.1
	S75,93.5,74.5,93.7z"/>
<path d="M96,62.9c-0.1,0.4,0.3,0.9,0.8,0.8l0.1,0c0.4,0,0.8-0.4,0.7-0.8c0.1-0.4-0.3-0.9-0.8-0.8C96.4,62.2,96,62.5,96,62.9z"/>
<path d="M96.2,55.7L96.2,55.7c0.5-0.1,0.8-0.5,0.7-1c-0.1-0.5-0.5-0.7-1-0.7c-0.5,0.1-0.7,0.5-0.7,1C95.4,55.5,95.8,55.7,96.2,55.7z
	"/>
<path d="M36.5,87.4c0.2,0.2,0.4,0.2,0.6,0.2c0.2,0,0.4,0,0.5-0.3c0.4-0.3,0.3-0.8,0-1.2c-0.3-0.4-0.8-0.3-1.1,0
	C36.2,86.5,36.2,87.1,36.5,87.4z"/>
<path d="M33.2,42.8c0.2,0,0.5-0.2,0.6-0.4c0.3-0.3,0.2-0.9-0.2-1.2c-0.3-0.3-0.9-0.2-1.2,0.2c-0.3,0.3-0.2,0.9,0.2,1.2
	C32.8,42.8,33,42.9,33.2,42.8z"/>
<path d="M80.7,85.3c0.1,0.2,0.4,0.2,0.6,0.2c0.1,0,0.3,0,0.4-0.1c0.3-0.2,0.3-0.7,0.1-1c-0.2-0.3-0.7-0.3-1-0.1
	C80.5,84.6,80.5,85,80.7,85.3z"/>
<path d="M90.7,66.9c-0.1,0.4,0.2,0.8,0.6,0.8c0.1,0,0.1,0,0.2,0c0.3,0,0.6-0.3,0.6-0.6l0,0c0.1-0.4-0.2-0.8-0.6-0.8
	C91.2,66.3,90.8,66.5,90.7,66.9z"/>
<path d="M33.7,74.4c0.1,0.3,0.5,0.4,0.8,0.4c0.1,0,0.1,0,0.2,0c0.4-0.1,0.5-0.6,0.4-1c-0.1-0.4-0.6-0.5-1-0.4
	C33.7,73.6,33.6,74,33.7,74.4z"/>
<path d="M85.6,80.3c0.1,0.1,0.3,0.2,0.5,0.1c0.2,0,0.4-0.1,0.5-0.3c0.3-0.3,0.1-0.7-0.1-1c-0.3-0.3-0.7-0.2-1,0.1l0,0
	C85.3,79.7,85.3,80.1,85.6,80.3z"/>
<path d="M90.6,53.9L90.6,53.9c0.5-0.2,0.6-0.5,0.6-0.9c-0.1-0.4-0.5-0.5-0.9-0.5s-0.5,0.5-0.5,0.9C89.9,53.7,90.3,54,90.6,53.9z"/>
<path d="M51,33.2c-0.4,0.1-0.5,0.6-0.4,1c0.1,0.3,0.5,0.4,0.8,0.4c0.1,0,0.1,0,0.2,0c0.4-0.1,0.5-0.6,0.4-1
	C51.9,33.3,51.4,33.1,51,33.2z"/>
<path d="M62,91.3c-0.4,0-0.7,0.3-0.7,0.7c0,0.4,0.3,0.7,0.7,0.7l0.1,0c0.4,0,0.6-0.4,0.6-0.7C62.7,91.6,62.4,91.2,62,91.3z"/>
<path d="M77.5,36.5c-0.2,0.3-0.1,0.7,0.2,1c0.1,0.1,0.3,0.2,0.4,0.1c0.2,0,0.4-0.1,0.6-0.3c0.2-0.3,0.1-0.8-0.2-1
	C78.2,36,77.8,36.2,77.5,36.5z"/>
<path d="M76.1,88.3c-0.1-0.4-0.6-0.5-0.9-0.3c-0.4,0.1-0.4,0.6-0.3,0.9c0.1,0.3,0.5,0.4,0.8,0.4c0.1,0,0.2,0,0.2,0
	C76.1,89.2,76.3,88.7,76.1,88.3z"/>
<path d="M58.1,31.5L58.1,31.5L58.1,31.5C58,31.5,58,31.5,58.1,31.5L58.1,31.5c-0.5,0.1-0.8,0.4-0.7,0.8c0,0.4,0.4,0.7,0.8,0.6
	c0,0,0,0,0.1,0l0,0c0.4,0,0.7-0.4,0.6-0.8C58.8,31.7,58.5,31.5,58.1,31.5z"/>
<path d="M35.4,47.8c0.1,0.1,0.3,0.1,0.4,0.1c0.2,0,0.4-0.1,0.6-0.4c0.2-0.3,0.1-0.8-0.3-1c-0.3-0.2-0.8-0.1-1,0.2
	C34.9,47.2,35,47.7,35.4,47.8z"/>
<path d="M92.5,59.9C92.5,60,92.5,60,92.5,59.9C92.5,60,92.5,60,92.5,59.9C92.5,60,92.5,60,92.5,59.9z"/>
<path d="M33.7,53.9c0.1-0.4-0.1-0.8-0.5-0.8c-0.4-0.1-0.8,0.1-0.8,0.5c-0.1,0.4,0.1,0.8,0.5,0.8c0.1,0,0.2,0.1,0.3,0.1
	C33.4,54.3,33.6,54.1,33.7,53.9z"/>
<path d="M42.1,84.7c-0.3,0.3-0.2,0.7,0.1,1c0.1,0.1,0.3,0.2,0.5,0.1c0.2,0,0.3-0.1,0.5-0.3c0.3-0.3,0.2-0.7-0.1-1
	C42.9,84.4,42.4,84.3,42.1,84.7z"/>
<path d="M72.2,33c-0.4-0.1-0.8,0.1-1,0.4c-0.2,0.3,0.1,0.8,0.4,0.9c0.1,0,0.2,0.1,0.3,0.1c0.3,0,0.5-0.2,0.5-0.5
	C72.7,33.6,72.5,33.2,72.2,33z"/>
<path d="M69.6,91c0-0.4-0.5-0.6-0.9-0.5c-0.4,0-0.6,0.5-0.5,0.9c0,0.4,0.4,0.6,0.8,0.5c0,0,0,0,0.1,0l0,0
	C69.5,91.8,69.8,91.4,69.6,91z"/>
<path d="M87.4,46.2c-0.3,0.1-0.4,0.7-0.3,0.9l0,0c0.1,0.3,0.4,0.3,0.6,0.3c0.1,0,0.2,0,0.3-0.1c0.3-0.1,0.4-0.7,0.3-0.9
	C88.1,46.2,87.7,46,87.4,46.2z"/>
<path d="M64.4,32.1c-0.1,0.4,0.2,0.8,0.6,0.8c0.1,0,0.1,0,0.2,0c0.3,0,0.6-0.3,0.6-0.6c0.1-0.4-0.2-0.8-0.6-0.8
	C64.8,31.4,64.5,31.8,64.4,32.1z"/>
<path d="M54.4,91.1c-0.1,0.4,0.2,0.8,0.5,0.8c0.1,0,0.2,0,0.2,0c0.3,0,0.6-0.3,0.6-0.6c0.1-0.4-0.2-0.8-0.5-0.8l0,0
	C54.9,90.4,54.6,90.7,54.4,91.1z"/>
<path d="M45.1,37.8c0.1,0,0.2,0,0.3-0.1c0.3-0.2,0.4-0.7,0.2-1c-0.2-0.3-0.7-0.4-1-0.2s-0.4,0.7-0.2,1
	C44.6,37.7,44.9,37.8,45.1,37.8z"/>
<path d="M39.3,41.1c-0.3,0.2-0.2,0.7,0,1c0.1,0.2,0.3,0.2,0.5,0.1c0.2,0,0.3,0,0.5-0.3c0.3-0.2,0.2-0.7,0-1
	C40,40.8,39.6,40.9,39.3,41.1z"/>
<path d="M32.5,68.1c0.4,0,0.7-0.4,0.6-0.8s-0.5-0.6-0.9-0.6c-0.4,0-0.7,0.4-0.6,0.8C31.7,67.9,32.1,68.2,32.5,68.1L32.5,68.1z"/>
<path d="M48.9,88.3c-0.3-0.2-0.8,0-1,0.3c-0.2,0.3,0,0.8,0.3,1c0.1,0.1,0.2,0.1,0.4,0.1c0.2,0,0.5-0.2,0.6-0.4
	C49.4,88.9,49.3,88.4,48.9,88.3z"/>
<path d="M83,41.8L83,41.8c0.1,0.2,0.3,0.3,0.6,0.2c0.1,0,0.3,0,0.4-0.1c0.3-0.2,0.3-0.7,0-1c-0.2-0.3-0.7-0.3-1,0
	C82.7,41,82.8,41.5,83,41.8z"/>
<path d="M31.1,60.4c-0.1,0.4,0.3,0.8,0.7,0.7l0.1,0c0.3,0,0.6-0.3,0.6-0.7c0.1-0.4-0.3-0.8-0.7-0.7C31.5,59.8,31.2,60.1,31.1,60.4z"
	/>
<path d="M92.5,60c0-0.4-0.4-0.7-0.8-0.6c-0.4,0-0.7,0.4-0.6,0.8c0,0.4,0.4,0.7,0.8,0.6l0,0C92.2,60.7,92.5,60.4,92.5,60z"/>
<path d="M89.2,74.4c0.1,0.1,0.2,0.1,0.3,0.1c0.2,0,0.5-0.2,0.5-0.5c0.2-0.3,0-0.8-0.4-1c-0.3-0.2-0.8,0-1,0.4
	C88.7,73.8,88.8,74.2,89.2,74.4z"/>
<path d="M37.5,79.6c-0.3,0.2-0.3,0.6-0.1,1c0.1,0.2,0.4,0.3,0.6,0.3c0.1,0,0.2,0,0.4-0.1c0.3-0.2,0.4-0.7,0.2-1
	C38.3,79.4,37.8,79.4,37.5,79.6z"/>
<path d="M66.3,37.4c-0.1,0.3,0.2,0.6,0.5,0.7c0.1,0,0.1,0,0.2,0c0.2,0,0.5-0.3,0.5-0.5c0.1-0.3-0.2-0.7-0.5-0.7
	C66.7,36.8,66.3,37.1,66.3,37.4z"/>
<path d="M38.3,70.4c0.3-0.1,0.4-0.5,0.4-0.8c-0.1-0.3-0.5-0.4-0.8-0.4c-0.3,0.1-0.4,0.5-0.4,0.8C37.7,70.3,37.9,70.5,38.3,70.4
	C38.2,70.5,38.3,70.5,38.3,70.4z"/>
<path d="M86.1,67.9c-0.3-0.1-0.6,0.1-0.8,0.4c-0.1,0.3,0.1,0.6,0.4,0.8c0.1,0,0.2,0,0.2,0c0.2,0,0.5-0.2,0.4-0.5
	C86.7,68.3,86.4,67.9,86.1,67.9z"/>
<path d="M70.5,85.4c0.1,0.3,0.3,0.4,0.6,0.3l0.1,0c0.3-0.1,0.4-0.5,0.3-0.7c-0.1-0.3-0.5-0.4-0.7-0.3C70.6,84.8,70.4,85.1,70.5,85.4
	z"/>
<path d="M53.4,85.6c-0.1,0.3,0.1,0.6,0.4,0.8c0.1,0,0.2,0.1,0.2,0.1c0.2,0,0.4-0.1,0.5-0.4c0.1-0.3-0.1-0.7-0.4-0.8
	C53.9,85.1,53.6,85.3,53.4,85.6z"/>
<path d="M55.3,38.4C55.4,38.4,55.4,38.4,55.3,38.4C55.4,38.4,55.4,38.4,55.3,38.4L55.3,38.4c0.4,0,0.6-0.4,0.5-0.8
	c0-0.3-0.4-0.5-0.8-0.4l0,0l0,0c-0.3,0-0.4,0.5-0.4,0.8C54.8,38.3,55,38.5,55.3,38.4z"/>
<path d="M76.3,83c0.1,0,0.2,0,0.3-0.1c0.3-0.2,0.3-0.5,0.1-0.8c-0.2-0.3-0.5-0.3-0.8-0.1c-0.3,0.1-0.3,0.5-0.1,0.8
	C75.9,82.9,76.1,83,76.3,83z"/>
<path d="M65.5,87.3L65.5,87.3c0.3,0,0.6-0.4,0.5-0.7s-0.4-0.6-0.7-0.5c-0.3,0-0.6,0.4-0.5,0.7C64.9,87.1,65.2,87.4,65.5,87.3z"/>
<path d="M85,51.2c-0.1-0.3-0.5-0.4-0.7-0.3c-0.3,0.1-0.4,0.5-0.3,0.7c0.1,0.2,0.3,0.4,0.6,0.3c0.1,0,0.1,0,0.2,0
	C85.1,51.8,85.1,51.5,85,51.2z"/>
<path d="M37.2,59c0.3,0,0.5-0.3,0.5-0.5c0.1-0.3-0.2-0.6-0.5-0.6c-0.3-0.1-0.6,0.2-0.6,0.5C36.5,58.7,36.8,58.9,37.2,59
	C37.1,59,37.1,59,37.2,59z"/>
<path d="M86.9,63.3c0.3,0,0.5-0.3,0.5-0.6c0.1-0.3-0.3-0.6-0.6-0.6c-0.3-0.1-0.6,0.3-0.6,0.6C86.2,63,86.5,63.3,86.9,63.3L86.9,63.3
	z"/>
<path d="M81.5,47.1c0.1,0,0.2,0,0.3-0.1c0.3-0.2,0.3-0.5,0.1-0.8c-0.2-0.3-0.5-0.3-0.8-0.1c-0.3,0.2-0.3,0.5-0.1,0.8
	C81.1,47,81.4,47.1,81.5,47.1z"/>
<path d="M61.1,37.6L61.1,37.6c0.4,0,0.6-0.3,0.5-0.6c0-0.3-0.3-0.6-0.6-0.5c-0.3,0-0.6,0.3-0.5,0.6C60.5,37.4,60.8,37.6,61.1,37.6z"
	/>
<path d="M37,64.8L37,64.8c0.3,0,0.6-0.3,0.5-0.7c0-0.3-0.3-0.6-0.7-0.5c-0.3,0-0.6,0.3-0.5,0.7C36.4,64.6,36.7,64.9,37,64.8z"/>
<path d="M83.3,73.6c-0.2,0.3,0,0.6,0.2,0.8c0.2,0.1,0.3,0.1,0.4,0.1c0.2,0,0.4-0.1,0.5-0.3c0.2-0.3,0-0.6-0.2-0.8
	C83.9,73.2,83.5,73.2,83.3,73.6z"/>
<path d="M38.8,52.2c-0.3-0.2-0.6,0.1-0.8,0.3c-0.2,0.3,0.1,0.6,0.3,0.8c0.1,0.1,0.2,0.1,0.3,0.1c0.2,0,0.4-0.1,0.5-0.4
	C39.2,52.8,39.1,52.4,38.8,52.2z"/>
<path d="M86.4,57.5C86.4,57.5,86.5,57.5,86.4,57.5c0.4,0,0.6-0.4,0.5-0.7s-0.4-0.6-0.7-0.4c-0.3,0-0.6,0.4-0.4,0.7
	C85.8,57.3,86.1,57.5,86.4,57.5z"/>
<path d="M44.2,80.3c0.1,0,0.3,0,0.4-0.1c0.2-0.2,0.2-0.6,0-0.8c-0.2-0.2-0.6-0.2-0.8,0c-0.3,0.2-0.2,0.6,0,0.8
	C43.9,80.2,44.1,80.3,44.2,80.3z"/>
<path d="M72.7,38.8c-0.3-0.2-0.6,0-0.8,0.3s0,0.6,0.3,0.8c0.1,0.1,0.2,0.1,0.3,0.1c0.2,0,0.4-0.1,0.5-0.4C73,39.3,72.9,39,72.7,38.8
	z"/>
<path d="M77.7,41.9c-0.2-0.2-0.6-0.1-0.8,0.1c-0.2,0.2-0.1,0.6,0.1,0.8c0.1,0.1,0.3,0.2,0.4,0.1c0.1,0,0.3-0.1,0.4-0.2
	C78,42.5,77.9,42.1,77.7,41.9z"/>
<path d="M49.9,40.6c0.1,0,0.1,0,0.2,0c0.3-0.1,0.4-0.6,0.2-0.8c-0.1-0.3-0.6-0.4-0.8-0.2c-0.3,0.1-0.4,0.6-0.2,0.8
	C49.5,40.5,49.7,40.6,49.9,40.6z"/>
<path d="M59.6,87.5L59.6,87.5c0.4,0,0.6-0.3,0.6-0.6s-0.2-0.6-0.5-0.6c-0.3-0.1-0.6,0.2-0.6,0.6C59.1,87.2,59.3,87.5,59.6,87.5z"/>
<path d="M48.8,83.8c0.2,0,0.4-0.1,0.5-0.3c0.2-0.3,0.1-0.6-0.2-0.8s-0.6-0.1-0.8,0.2c-0.2,0.3-0.1,0.6,0.2,0.8
	C48.6,83.9,48.7,83.9,48.8,83.8z"/>
<path d="M41,48.2c0.1,0.1,0.3,0.1,0.4,0.1c0.2,0,0.3-0.1,0.4-0.2c0.2-0.2,0.1-0.6-0.1-0.8c-0.2-0.2-0.6-0.1-0.8,0.1
	C40.6,47.7,40.7,48,41,48.2z"/>
<path d="M45.6,42.9c-0.2-0.3-0.6-0.2-0.8,0c-0.3,0.2-0.2,0.6,0,0.8c0.1,0.2,0.3,0.2,0.5,0.1c0.1,0,0.2,0,0.3-0.1
	C45.8,43.6,45.8,43.2,45.6,42.9z"/>
<path d="M40.2,74.7c-0.3,0.1-0.3,0.5-0.2,0.8c0.1,0.2,0.3,0.3,0.5,0.2c0.1,0,0.2,0,0.2,0c0.3-0.1,0.3-0.5,0.2-0.8
	C40.9,74.5,40.5,74.5,40.2,74.7z"/>
<path d="M80.9,79c0.2-0.2,0.2-0.6,0-0.8c-0.2-0.2-0.6-0.2-0.8,0.1c-0.2,0.2-0.2,0.6,0,0.8c0.1,0.1,0.3,0.2,0.4,0.1
	C80.8,79.1,80.9,79.1,80.9,79z"/>
<path d="M80.6,70L80.6,70c0.1-0.2-0.1-0.5-0.3-0.7c-0.2-0.1-0.5,0.1-0.6,0.3l0,0c-0.1,0.2,0,0.5,0.3,0.6c0.1,0,0.2,0.1,0.2,0.1
	C80.5,70.3,80.7,70.2,80.6,70z"/>
<path d="M80.8,55.6c-0.2,0-0.4,0.3-0.3,0.5s0.2,0.4,0.5,0.3c0,0,0,0,0.1,0c0.2,0,0.4-0.3,0.3-0.5C81.3,55.8,81.1,55.6,80.8,55.6z"/>
<path d="M64,42.6L64,42.6c0.3,0,0.5-0.2,0.5-0.5c0.1-0.2-0.2-0.5-0.5-0.5c-0.2,0-0.5,0.3-0.4,0.5C63.5,42.3,63.7,42.5,64,42.6z"/>
<path d="M81.3,60.7c0,0.3,0.3,0.5,0.5,0.4l0,0c0.2,0,0.5-0.3,0.4-0.6c0-0.3-0.3-0.5-0.6-0.4C81.5,60.3,81.3,60.5,81.3,60.7z"/>
<path d="M78.2,73.5c-0.2-0.2-0.5-0.1-0.7,0.1c-0.2,0.2-0.1,0.5,0.1,0.7c0.1,0.1,0.2,0.1,0.3,0.1c0.1,0,0.2,0,0.4-0.1
	C78.5,73.9,78.5,73.6,78.2,73.5z"/>
<path d="M75.1,76.9c-0.2-0.2-0.4-0.2-0.7,0c-0.2,0.1-0.2,0.4,0,0.7c0.1,0.1,0.2,0.2,0.4,0.1c0.1,0,0.2,0,0.3-0.1
	C75.3,77.4,75.3,77.1,75.1,76.9z"/>
<path d="M71.3,79.6c-0.1-0.2-0.4-0.3-0.6-0.2s-0.3,0.4-0.2,0.6s0.2,0.3,0.4,0.2c0.1,0,0.1,0,0.2,0C71.4,80.1,71.5,79.9,71.3,79.6z"
	/>
<path d="M69,43.3c0.1-0.2-0.1-0.5-0.3-0.6c-0.2-0.1-0.5,0.1-0.6,0.3c-0.1,0.2,0.1,0.5,0.3,0.6c0.1,0,0.1,0,0.2,0
	C68.7,43.6,68.9,43.5,69,43.3z"/>
<path d="M72.4,45.6L72.4,45.6c0.1,0.1,0.2,0.1,0.3,0.1c0.1,0,0.3,0,0.4-0.2c0.2-0.2,0-0.5-0.2-0.7c-0.2-0.2-0.5,0-0.7,0.2
	C72.2,45.2,72.2,45.5,72.4,45.6z"/>
<path d="M44.6,51.7c-0.2-0.2-0.5,0-0.7,0.2c-0.1,0.2,0,0.5,0.2,0.7c0.1,0.1,0.2,0.1,0.3,0.1c0.1,0,0.3-0.1,0.4-0.2
	C44.9,52.2,44.9,51.9,44.6,51.7z"/>
<path d="M45.6,73.7c-0.3,0.2-0.2,0.4-0.1,0.7c0.1,0.1,0.2,0.2,0.4,0.1c0.1,0,0.2,0,0.2-0.1c0.2-0.1,0.2-0.4,0.1-0.6
	C46.1,73.6,45.8,73.5,45.6,73.7z"/>
<path d="M42.2,66.1L42.2,66.1c0.3,0,0.5-0.3,0.4-0.6c0-0.3-0.3-0.5-0.5-0.3c-0.3,0-0.5,0.3-0.3,0.5C41.8,66,42,66.1,42.2,66.1z"/>
<path d="M41.3,61c0,0.3,0.3,0.5,0.5,0.4l0.1,0c0.2,0,0.4-0.2,0.4-0.5c0-0.3-0.2-0.5-0.5-0.4C41.6,60.6,41.4,60.7,41.3,61z"/>
<path d="M62,81.5c-0.3,0-0.5,0.3-0.4,0.5c0,0.2,0.2,0.5,0.5,0.4l0,0c0.2,0,0.5-0.3,0.4-0.5C62.4,81.8,62.2,81.5,62,81.5z"/>
<path d="M42.7,56.9c0.2,0,0.4-0.1,0.4-0.3c0.1-0.2-0.1-0.5-0.3-0.6c-0.2-0.1-0.5,0.1-0.6,0.3s0.1,0.5,0.3,0.6
	C42.6,56.9,42.6,56.9,42.7,56.9z"/>
<path d="M43.9,69.8c-0.1-0.2-0.3-0.4-0.6-0.2c-0.2,0.1-0.4,0.3-0.2,0.6c0.1,0.2,0.2,0.3,0.5,0.2l0.1,0
	C43.9,70.4,44.1,70.1,43.9,69.8z"/>
<path d="M51.1,45.1c-0.1-0.2-0.4-0.2-0.6-0.1s-0.2,0.4-0.1,0.6c0.1,0.2,0.2,0.2,0.4,0.1c0.1,0,0.1,0,0.2,0
	C51.1,45.6,51.2,45.4,51.1,45.1z"/>
<path d="M55.3,43.1c-0.1-0.2-0.3-0.4-0.6-0.3c-0.3,0-0.4,0.3-0.3,0.6c0.1,0.2,0.2,0.4,0.5,0.3l0.1,0C55.2,43.6,55.3,43.4,55.3,43.1z
	"/>
<path d="M49.2,77.9c0.1,0,0.2,0,0.3-0.1c0.2-0.2,0.1-0.5-0.1-0.7c-0.2-0.2-0.5-0.1-0.7,0.1c-0.2,0.2-0.1,0.5,0.1,0.7
	C48.9,77.9,49.1,77.9,49.2,77.9z"/>
<path d="M57.4,81.1c-0.2-0.1-0.5,0.1-0.6,0.4c-0.1,0.2,0.1,0.5,0.4,0.6c0.1,0,0.1,0,0.2,0c0.2,0,0.4-0.1,0.5-0.4
	C57.9,81.3,57.7,81.1,57.4,81.1z"/>
<path d="M53.2,79.5c-0.2-0.1-0.5,0-0.6,0.2c-0.1,0.2,0,0.5,0.2,0.7c0.1,0,0.2,0.1,0.3,0.1c0.1,0,0.3-0.1,0.4-0.2
	C53.5,79.9,53.4,79.7,53.2,79.5z"/>
<path d="M47.5,48c-0.2-0.2-0.5-0.1-0.7,0.1s-0.1,0.5,0.1,0.7c0.1,0.1,0.2,0.2,0.4,0.1c0.1,0,0.2,0,0.3-0.1
	C47.7,48.5,47.6,48.2,47.5,48z"/>
<path d="M76.6,48.5c0.2-0.2,0.1-0.4,0-0.7c-0.2-0.2-0.5-0.1-0.7,0c-0.2,0.2-0.1,0.4,0,0.7c0.1,0.1,0.2,0.2,0.4,0.1
	C76.4,48.6,76.5,48.6,76.6,48.5z"/>
<path d="M82,65.4c0.1-0.2-0.2-0.5-0.4-0.6c-0.2-0.1-0.5,0.2-0.6,0.4c-0.1,0.2,0.2,0.5,0.4,0.6l0.1,0C81.8,65.8,82,65.6,82,65.4z"/>
<path d="M79.5,51.7c-0.1-0.2-0.4-0.3-0.6-0.1c-0.2,0.1-0.2,0.4-0.1,0.6c0.1,0.2,0.2,0.3,0.4,0.2c0.1,0,0.1,0,0.2,0
	C79.6,52.2,79.6,51.9,79.5,51.7z"/>
<path d="M66.5,81L66.5,81c-0.3,0-0.4,0.3-0.3,0.5c0,0.2,0.2,0.4,0.5,0.3c0,0,0,0,0.1,0c0.3,0,0.4-0.3,0.3-0.5
	C67,81,66.8,80.9,66.5,81z"/>
<path d="M59.4,42.6L59.4,42.6c0.3,0,0.5-0.3,0.4-0.6s-0.3-0.5-0.6-0.4l0,0l0,0c-0.3,0-0.5,0.3-0.4,0.6
	C58.9,42.5,59.2,42.7,59.4,42.6C59.3,42.7,59.4,42.6,59.4,42.6z"/>
<path d="M70.8,74.1c-0.1-0.2-0.3-0.2-0.5,0s-0.2,0.3-0.1,0.5c0.1,0.1,0.2,0.2,0.3,0.2c0.1,0,0.1,0,0.2,0
	C70.8,74.5,70.9,74.2,70.8,74.1z"/>
<path d="M76,65.8c-0.1,0.2,0,0.4,0.3,0.5l0.1,0c0.1,0,0.3-0.1,0.3-0.2c0.1-0.2,0-0.4-0.3-0.5C76.3,65.5,76.1,65.6,76,65.8z"/>
<path d="M67.4,76.3C67.4,76.3,67.5,76.3,67.4,76.3c0.3-0.1,0.4-0.3,0.2-0.4c0-0.2-0.2-0.3-0.4-0.1c-0.2,0-0.3,0.2-0.1,0.4
	C67.1,76.3,67.3,76.3,67.4,76.3z"/>
<path d="M52.1,50.6c-0.1-0.2-0.3-0.2-0.5,0c-0.2,0.1-0.2,0.3,0,0.5c0.1,0.1,0.2,0.1,0.3,0.1c0.1,0,0.1,0,0.2-0.1
	C52.2,51,52.2,50.7,52.1,50.6z"/>
<path d="M54.3,75c0.1-0.2,0.1-0.4-0.2-0.5c-0.2-0.1-0.4-0.1-0.5,0.2s-0.1,0.4,0.2,0.5c0.1,0,0.1,0.1,0.2,0.1
	C54.2,75.1,54.3,75,54.3,75z"/>
<path d="M54.9,48.6c-0.1-0.2-0.3-0.3-0.5-0.1c-0.1,0.1-0.2,0.3,0,0.5c0.1,0.1,0.2,0.2,0.3,0.2l0.1,0C55,49,55.1,48.8,54.9,48.6z"/>
<path d="M60.5,77.3C60.6,77.3,60.6,77.3,60.5,77.3c0.2,0,0.4-0.1,0.4-0.3c0-0.2-0.1-0.4-0.3-0.4c-0.2,0-0.4,0.1-0.4,0.3
	C60.2,77.1,60.3,77.3,60.5,77.3z"/>
<path d="M73.6,53c0.1,0,0.1,0,0.2-0.1c0.2-0.1,0.2-0.3,0-0.5c-0.1-0.2-0.3-0.2-0.5,0c-0.2,0.1-0.2,0.3,0,0.5
	C73.4,53,73.5,53,73.6,53z"/>
<path d="M71.2,50.6c0.1,0,0.2,0,0.2-0.1c0.1-0.1,0.1-0.4-0.1-0.5s-0.4-0.1-0.5,0.1c-0.1,0.1-0.1,0.4,0.1,0.5
	C71,50.6,71.1,50.6,71.2,50.6z"/>
<path d="M73.1,72.3c0.1,0,0.2,0,0.2-0.1c0.1-0.1,0.1-0.4-0.1-0.5c-0.1-0.1-0.4-0.1-0.5,0.1c-0.2,0.1-0.2,0.3,0.1,0.5
	C72.9,72.3,73,72.3,73.1,72.3z"/>
<path d="M77.2,62.4L77.2,62.4c0-0.2-0.1-0.4-0.3-0.4c-0.2,0-0.4,0.1-0.4,0.3c0,0.2,0.1,0.4,0.3,0.4l0,0C77,62.8,77.2,62.6,77.2,62.4
	z"/>
<path d="M68.3,48.1L68.3,48.1c-0.2-0.1-0.4-0.1-0.5,0.2c-0.1,0.2-0.1,0.4,0.2,0.5c0.1,0,0.1,0.1,0.2,0.1c0.1,0,0.2-0.1,0.3-0.2
	C68.5,48.4,68.5,48.2,68.3,48.1z"/>
<path d="M75.7,55.5c-0.1-0.1-0.3-0.2-0.4-0.1c-0.2,0.1-0.3,0.3-0.1,0.4c0.1,0.1,0.2,0.2,0.3,0.2l0.1,0
	C75.8,55.9,75.9,55.6,75.7,55.5z"/>
<path d="M76.4,58.6c-0.2,0-0.3,0.2-0.2,0.4c0,0.2,0.2,0.3,0.4,0.2l0,0c0.2,0,0.3-0.2,0.2-0.4C76.8,58.6,76.6,58.6,76.4,58.6z"/>
<path d="M48.2,56.6c0.1-0.2,0-0.4-0.2-0.5c-0.2-0.1-0.4,0-0.5,0.2c-0.1,0.2,0,0.4,0.2,0.5c0.1,0,0.1,0,0.2,0
	C48,56.8,48.2,56.7,48.2,56.6z"/>
<path d="M51.3,73c0.1,0,0.1,0,0.2-0.1c0.1-0.1,0.1-0.4,0-0.5c-0.1-0.2-0.3-0.2-0.5,0c-0.1,0.1-0.2,0.3,0,0.5
	C51.1,73,51.2,73,51.3,73z"/>
<path d="M57.4,76.3c0.1-0.2,0-0.4-0.3-0.5c-0.2-0.1-0.4,0-0.5,0.3c-0.1,0.2,0,0.4,0.3,0.5c0.1,0,0.1,0,0.1,0
	C57.3,76.6,57.5,76.4,57.4,76.3z"/>
<path d="M74.8,69c-0.1,0.1-0.1,0.4,0.2,0.5l0.1,0c0.1,0,0.2,0,0.3-0.2c0.1-0.2,0.1-0.4-0.2-0.5C75,68.7,74.8,68.8,74.8,69z"/>
<path d="M47.6,67.1L47.6,67.1c0.3,0,0.4-0.2,0.3-0.4c0-0.2-0.2-0.3-0.4-0.2c-0.2,0-0.3,0.2-0.2,0.4C47.3,67,47.4,67.1,47.6,67.1z"/>
<path d="M61,47c0,0.2,0.1,0.4,0.3,0.4l0,0c0.2,0,0.3-0.1,0.4-0.3s-0.1-0.4-0.3-0.4C61.2,46.7,61.1,46.8,61,47z"/>
<path d="M64.9,46.9c-0.2-0.1-0.4,0-0.5,0.3c-0.1,0.2,0,0.4,0.2,0.4l0.1,0c0.2,0,0.3-0.1,0.3-0.2C65.2,47.2,65.1,47,64.9,46.9z"/>
<path d="M64.1,77.1c0.2,0,0.4-0.2,0.2-0.4c0-0.2-0.2-0.4-0.4-0.3c-0.2,0-0.4,0.2-0.2,0.4C63.7,77.1,63.9,77.2,64.1,77.1z"/>
<path d="M49.5,53.7c0.1,0,0.2,0,0.3-0.1c0.1-0.2,0.1-0.4-0.1-0.5c-0.1-0.1-0.4-0.1-0.5,0.1c-0.1,0.1-0.1,0.4,0.1,0.5
	C49.4,53.7,49.4,53.7,49.5,53.7z"/>
<path d="M58,47.9L58,47.9L58,47.9C58.1,47.9,58.1,47.9,58,47.9c0.3,0,0.4-0.2,0.3-0.4c0-0.2-0.2-0.3-0.4-0.2l0,0l0,0
	c-0.2,0-0.3,0.2-0.2,0.4C57.6,47.8,57.8,47.9,58,47.9z"/>
<path d="M49.1,70.2C49.2,70.2,49.2,70.2,49.1,70.2c0.3-0.1,0.3-0.3,0.2-0.5c-0.1-0.1-0.3-0.2-0.5,0c-0.2,0.1-0.3,0.3-0.1,0.5
	C48.8,70.2,48.9,70.2,49.1,70.2z"/>
<path d="M46.6,63.4c0,0.2,0.1,0.4,0.3,0.4l0,0c0.2,0,0.3-0.1,0.3-0.3c0-0.2-0.1-0.4-0.3-0.4C46.6,63,46.6,63.2,46.6,63.4z"/>
<path d="M46.9,60.2C47,60.2,47,60.2,46.9,60.2c0.2,0,0.4-0.1,0.4-0.2c0.1-0.2-0.1-0.4-0.2-0.4c-0.2-0.1-0.4,0-0.4,0.2
	C46.6,60,46.7,60.2,46.9,60.2z"/>
<path d="M54.4,55.4c0,0.1,0.1,0.1,0.2,0.1c0.1,0,0.1,0,0.2,0c0.1-0.1,0.1-0.2,0-0.3s-0.2-0.1-0.3,0C54.3,55.3,54.2,55.3,54.4,55.4z"
	/>
<path d="M53.2,57.3c0.1,0,0.1,0,0.2-0.1c0.1-0.1,0.1-0.2,0-0.3s-0.2,0-0.3,0c-0.1,0.1,0,0.2,0,0.3C53.1,57.3,53.1,57.3,53.2,57.3z"
	/>
<path d="M60.6,52.3L60.6,52.3c0.1,0,0.2-0.1,0.2-0.2c0-0.1-0.1-0.2-0.2-0.2l0,0l0,0l0,0c-0.1,0-0.2,0.1-0.2,0.2
	C60.3,52.2,60.4,52.3,60.6,52.3L60.6,52.3z"/>
<path d="M52.5,66.2c0,0.1,0.1,0.2,0.2,0.2l0.1,0c0.1,0,0.2-0.2,0.2-0.3c0-0.1-0.2-0.2-0.3-0.1C52.4,65.9,52.4,66,52.5,66.2z"/>
<path d="M57.2,70.8c-0.1,0.1-0.1,0.2,0.1,0.3l0.1,0c0.1,0,0.1,0,0.2-0.1c0.1-0.1,0-0.3-0.1-0.3C57.4,70.7,57.3,70.7,57.2,70.8z"/>
<path d="M55.3,69.6c-0.1,0.1-0.1,0.2,0,0.3c0.1,0,0.1,0.1,0.2,0.1c0.1,0,0.1,0,0.2-0.1c0.1-0.1,0.1-0.2,0-0.3
	C55.5,69.4,55.4,69.4,55.3,69.6z"/>
<path d="M59.5,72C59.5,72,59.6,71.9,59.5,72c0.2,0,0.3,0,0.3-0.1s0-0.3-0.1-0.3l0,0c-0.1,0-0.3,0-0.3,0.1C59.3,71.9,59.4,72,59.5,72
	z"/>
<path d="M56.3,53.9L56.3,53.9c0.2,0,0.3-0.2,0.2-0.3c-0.1-0.1-0.2-0.2-0.3-0.1s-0.2,0.2-0.1,0.3C56.1,53.9,56.2,53.9,56.3,53.9z"/>
<path d="M52.3,58.9c-0.1,0-0.3,0-0.3,0.1c0,0.1,0,0.3,0.1,0.3l0.1,0c0.1,0,0.2,0,0.2-0.1C52.5,59.1,52.4,59,52.3,58.9z"/>
<path d="M53.7,67.8c-0.1,0.1-0.1,0.2-0.1,0.3c0,0.1,0.1,0.1,0.2,0.1l0.1,0C54,68.1,54,68,54,67.9C54,67.8,53.8,67.7,53.7,67.8z"/>
<path d="M61.9,71.8c-0.1,0-0.2,0.1-0.3,0.2c0,0.1,0.1,0.2,0.2,0.3l0,0c0.1,0,0.2-0.1,0.2-0.2C62.1,71.8,62,71.7,61.9,71.8z"/>
<path d="M70.9,65.8c-0.1,0.1,0,0.3,0.1,0.3l0.1,0c0.1,0,0.2,0,0.2-0.1c0.1-0.1,0-0.3-0.1-0.3C71,65.6,70.8,65.7,70.9,65.8z"/>
<path d="M51.6,61.4c0,0.1,0.1,0.2,0.2,0.3l0,0c0.1,0,0.2-0.1,0.2-0.2c0-0.1-0.1-0.2-0.2-0.3C51.8,61.2,51.6,61.3,51.6,61.4z"/>
<path d="M51.8,63.8c0,0.1,0.1,0.2,0.2,0.2l0,0c0.1,0,0.2-0.1,0.2-0.2s-0.1-0.2-0.2-0.2C51.8,63.6,51.8,63.7,51.8,63.8z"/>
<path d="M66.4,71.1C66.5,71.1,66.5,71.1,66.4,71.1c0.2-0.1,0.3-0.2,0.2-0.3c0-0.1-0.2-0.2-0.3-0.1c-0.1,0-0.2,0.2-0.1,0.3
	C66.2,71.1,66.3,71.1,66.4,71.1z"/>
<path d="M68.2,69.4c-0.1,0.1-0.1,0.2-0.1,0.3c0,0.1,0.1,0.1,0.2,0.1l0.1,0c0.1-0.1,0.1-0.2,0.1-0.3C68.4,69.4,68.3,69.4,68.2,69.4z"
	/>
<path d="M68.9,54.9c-0.1,0.1-0.1,0.2,0,0.3c0,0.1,0.1,0.1,0.2,0.1c0.1,0,0.1,0,0.1,0c0.1-0.1,0.1-0.2,0-0.3
	C69.1,54.9,69,54.9,68.9,54.9z"/>
<path d="M67.3,53.9c0.1,0,0.1,0,0.2-0.1s0.1-0.2,0-0.3s-0.2-0.1-0.3,0c-0.1,0.1-0.1,0.2,0,0.3C67.2,53.8,67.3,53.9,67.3,53.9z"/>
<path d="M70,67.7c-0.1-0.1-0.2-0.1-0.3,0c-0.1,0.1-0.1,0.2,0,0.3c0,0,0.1,0.1,0.2,0.1c0.1,0,0.1,0,0.2-0.1
	C70.1,67.9,70.1,67.8,70,67.7z"/>
<path d="M64.3,72L64.3,72c0.1,0,0.2-0.1,0.2-0.3c0-0.1-0.1-0.2-0.3-0.2c-0.1,0-0.2,0.1-0.2,0.3C64,71.9,64.2,72,64.3,72z"/>
<path d="M62.9,52.3c0.1,0,0.2-0.1,0.2-0.2c0-0.1,0-0.2-0.2-0.3c-0.1,0-0.3,0-0.3,0.2C62.6,52.1,62.8,52.3,62.9,52.3L62.9,52.3z"/>
<path d="M58.4,52.8L58.4,52.8c0.2,0,0.3-0.2,0.2-0.3c0-0.1-0.2-0.2-0.3-0.2c-0.1,0-0.2,0.1-0.2,0.3C58.2,52.8,58.2,52.9,58.4,52.8z"
	/>
<path d="M65.4,52.7c0-0.1,0-0.3-0.1-0.3c-0.1-0.1-0.3,0-0.3,0.1c-0.1,0.1,0,0.2,0.1,0.3l0.1,0C65.3,52.8,65.4,52.7,65.4,52.7z"/>
<path d="M72,61.4L72,61.4L72,61.4L72,61.4z"/>
<path d="M71.8,61.1c-0.1,0-0.2,0.1-0.2,0.2s0.1,0.2,0.2,0.2l0,0c0.1,0,0.2-0.1,0.2-0.2C72,61.2,71.9,61.1,71.8,61.1z"/>
<path d="M70.5,57.2L70.5,57.2c0.2-0.1,0.3-0.2,0.2-0.3c-0.1-0.1-0.2-0.2-0.3-0.1c-0.1,0-0.2,0.2-0.1,0.3
	C70.3,57.1,70.4,57.2,70.5,57.2z"/>
<path d="M71.4,59.3C71.5,59.3,71.5,59.3,71.4,59.3c0.2,0,0.2-0.1,0.2-0.3c0-0.1-0.2-0.2-0.3-0.2c-0.1,0-0.2,0.1-0.2,0.3
	C71.2,59.2,71.3,59.3,71.4,59.3z"/>
<path d="M71.6,63.9C71.6,63.9,71.7,63.9,71.6,63.9c0.2,0,0.3,0,0.3-0.2c0-0.1,0-0.2-0.2-0.3c-0.1,0-0.2,0-0.3,0.2
	C71.4,63.7,71.5,63.8,71.6,63.9z"/>
<path d="M66.8,61c0-0.1-0.1-0.1-0.1-0.1c-0.1,0-0.1,0.1-0.1,0.1c0,0.1,0,0.1,0.1,0.1l0,0C66.8,61.1,66.8,61,66.8,61z"/>
<path d="M59.2,66.3C59.2,66.3,59.3,66.3,59.2,66.3c0.1-0.1,0.1-0.2,0.1-0.2s-0.1,0-0.2,0C59,66.3,59.1,66.4,59.2,66.3
	C59.1,66.4,59.2,66.3,59.2,66.3z"/>
<path d="M66.8,62.3L66.8,62.3c0.1,0,0.1,0,0.1-0.1c0-0.1,0-0.1-0.1-0.1c-0.1,0-0.1,0-0.1,0.1C66.7,62.2,66.8,62.3,66.8,62.3z"/>
<path d="M61.7,56.9c-0.1,0-0.1,0-0.1,0.1c0,0.1,0,0.1,0.1,0.1l0,0c0.1,0,0.1,0,0.1-0.1C61.8,57,61.7,56.9,61.7,56.9z"/>
<path d="M66.6,63.4c0.1,0,0.1,0,0.1-0.1c0-0.1,0-0.1-0.1-0.2c-0.1,0-0.1,0-0.1,0.1C66.5,63.3,66.5,63.4,66.6,63.4L66.6,63.4z"/>
<path d="M63.7,66.8L63.7,66.8c0.1,0,0.1-0.1,0.1-0.1c0-0.1-0.1-0.1-0.1-0.1C63.6,66.6,63.6,66.7,63.7,66.8
	C63.6,66.7,63.6,66.8,63.7,66.8z"/>
<path d="M66.4,60c0.1,0,0.1-0.1,0.1-0.1c0-0.1-0.1-0.1-0.2-0.1c-0.1,0-0.1,0.1-0.1,0.1C66.3,59.9,66.3,60,66.4,60L66.4,60z"/>
<path d="M64.8,66.2L64.8,66.2c0.1-0.1,0.1-0.1,0.1-0.2c0-0.1-0.1-0.1-0.2,0C64.5,66,64.5,66.1,64.8,66.2
	C64.7,66.2,64.7,66.2,64.8,66.2z"/>
<path d="M60.6,57.1c0-0.1-0.1-0.1-0.1-0.1l0,0l0,0c-0.1,0-0.1,0.1-0.1,0.2c0,0.1,0.1,0.1,0.1,0.1l0,0l0,0
	C60.6,57.3,60.6,57.2,60.6,57.1z"/>
<path d="M60.2,66.8L60.2,66.8c0.1,0,0.1,0,0.2-0.1c0-0.1,0-0.1-0.1-0.1c-0.1,0-0.1,0-0.1,0C60.1,66.7,60.2,66.8,60.2,66.8z"/>
<path d="M62.5,67c0.1,0,0.1,0,0.1-0.1c0-0.1-0.1-0.1-0.1-0.1c-0.1,0-0.1,0-0.1,0.1C62.4,67.1,62.5,67,62.5,67z"/>
<path d="M61.4,66.9c-0.1,0-0.1,0-0.1,0.1c0,0.1,0,0.1,0.1,0.1l0,0c0.1,0,0.1,0,0.1-0.1C61.5,66.9,61.5,66.9,61.4,66.9z"/>
<path d="M62.9,57.1c0-0.1,0-0.1-0.1-0.1c-0.1,0-0.1,0-0.1,0.1c0,0.1,0,0.1,0.1,0.1l0,0C63,57.2,62.9,57.1,62.9,57.1z"/>
<path d="M59.4,57.5c-0.1,0-0.1,0.1-0.1,0.1c0,0.1,0.1,0.1,0.1,0.1l0,0C59.5,57.7,59.5,57.6,59.4,57.5C59.6,57.4,59.5,57.5,59.4,57.5
	z"/>
<path d="M64,57.6L64,57.6c0.1-0.1,0.1-0.2,0.1-0.2s-0.1,0-0.2,0C63.8,57.4,63.8,57.5,64,57.6C63.9,57.6,63.9,57.6,64,57.6z"/>
<path d="M56.7,62.4c0,0.1,0,0.1,0.1,0.1c0.1,0,0.1,0,0.1-0.1c0-0.1-0.1-0.1-0.1-0.1C56.7,62.3,56.7,62.4,56.7,62.4z"/>
<path d="M58.2,65.5c-0.1,0-0.1,0.1,0,0.2c0,0,0,0,0.1,0l0.1,0c0,0,0.1-0.1,0-0.2C58.3,65.4,58.2,65.5,58.2,65.5z"/>
<path d="M58.4,58.4L58.4,58.4c0.1,0,0.1,0,0.2,0c0,0,0.1-0.1,0-0.2c0-0.1-0.1-0.1-0.2,0C58.3,58.2,58.3,58.3,58.4,58.4z"/>
<path d="M65.8,59c0.1,0,0.1-0.1,0-0.2c0-0.1-0.1-0.1-0.2,0c0,0-0.1,0.1,0,0.2C65.7,59,65.7,59,65.8,59L65.8,59z"/>
<path d="M57.3,60.2c0-0.1,0-0.1,0-0.2c-0.1,0-0.1,0-0.2,0.1l0,0.1C57.1,60.3,57.1,60.3,57.3,60.2C57.2,60.3,57.3,60.2,57.3,60.2z"/>
<path d="M57.8,59.3L57.8,59.3c0.1-0.1,0.1-0.2,0.1-0.2s-0.1,0-0.2,0C57.5,59.1,57.6,59.2,57.8,59.3C57.7,59.3,57.7,59.3,57.8,59.3z"
	/>
<path d="M57.6,64.7c0.1,0,0.1-0.1,0.1-0.2l0,0c0-0.1-0.1-0.1-0.2-0.1c-0.1,0-0.1,0.1-0.1,0.1l0,0C57.5,64.7,57.5,64.7,57.6,64.7
	L57.6,64.7z"/>
<path d="M65,58.2c0.1,0,0.1-0.1,0-0.2c0-0.1-0.1-0.1-0.2,0c0,0,0,0.1,0,0.2C64.9,58.2,64.9,58.2,65,58.2L65,58.2z"/>
<path d="M57.1,63.5c-0.1,0-0.1,0.1-0.1,0.1l0.1,0.1l0,0c0.1,0,0.1-0.1,0.1-0.1C57.2,63.5,57.1,63.5,57.1,63.5z"/>
<path d="M56.8,61.3c0,0.1,0,0.1,0.1,0.1l0,0c0,0,0.1,0,0.1-0.1c0-0.1,0-0.1-0.1-0.1C56.8,61.2,56.8,61.2,56.8,61.3z"/>
<path d="M66.4,64.5c0-0.1,0-0.1,0-0.2c-0.1,0-0.1,0-0.2,0c0,0.1,0,0.1,0,0.2C66.2,64.5,66.3,64.5,66.4,64.5
	C66.3,64.5,66.4,64.5,66.4,64.5L66.4,64.5z"/>
<path d="M65.7,65.4c0,0,0.1-0.1,0-0.2c-0.1,0-0.1,0-0.2,0c-0.1,0-0.1,0.1,0,0.2C65.5,65.4,65.6,65.5,65.7,65.4
	C65.6,65.5,65.7,65.5,65.7,65.4z"/>
<path d="M62.3,64.5C62.3,64.5,62.4,64.4,62.3,64.5C62.4,64.4,62.4,64.4,62.3,64.5C62.4,64.3,62.4,64.3,62.3,64.5
	C62.4,64.3,62.3,64.5,62.3,64.5z"/>
<path d="M61.8,64.4L61.8,64.4C61.7,64.5,61.8,64.5,61.8,64.4L61.8,64.4C61.8,64.5,61.9,64.5,61.8,64.4
	C61.9,64.5,61.8,64.4,61.8,64.4z"/>
<path d="M60.9,59.7L60.9,59.7L60.9,59.7C61,59.7,61,59.7,60.9,59.7C61,59.6,60.9,59.6,60.9,59.7C60.9,59.6,60.8,59.6,60.9,59.7z"/>
<path d="M63.5,63.8L63.5,63.8C63.4,63.9,63.4,63.9,63.5,63.8C63.4,63.9,63.5,63.9,63.5,63.8C63.5,63.9,63.5,63.9,63.5,63.8
	C63.5,63.9,63.5,63.9,63.5,63.8z"/>
<path d="M61.2,64.4C61.2,64.5,61.2,64.5,61.2,64.4C61.2,64.5,61.2,64.5,61.2,64.4C61.3,64.5,61.3,64.5,61.2,64.4
	C61.3,64.4,61.3,64.4,61.2,64.4L61.2,64.4z"/>
<path d="M63,64.3L63,64.3L63,64.3C63,64.2,63,64.2,63,64.3C62.9,64.2,62.9,64.2,63,64.3C62.9,64.3,62.9,64.3,63,64.3z"/>
<path d="M62.1,59.5L62.1,59.5L62.1,59.5C62.2,59.4,62.2,59.4,62.1,59.5C62.1,59.4,62,59.5,62.1,59.5C62,59.6,62,59.6,62.1,59.5z"/>
<path d="M60.5,59.9L60.5,59.9c0-0.1,0-0.1-0.1-0.1C60.4,59.9,60.4,60,60.5,59.9C60.4,60,60.4,60,60.5,59.9L60.5,59.9z"/>
<path d="M62.6,59.6C62.5,59.7,62.6,59.7,62.6,59.6C62.6,59.7,62.6,59.7,62.6,59.6c0.1,0.1,0.1,0.1,0.1,0.1S62.7,59.6,62.6,59.6
	L62.6,59.6z"/>
<path d="M59.4,61.4L59.4,61.4C59.5,61.3,59.4,61.3,59.4,61.4C59.4,61.2,59.4,61.3,59.4,61.4C59.3,61.3,59.3,61.4,59.4,61.4
	L59.4,61.4z"/>
<path d="M61.5,59.4L61.5,59.4C61.5,59.4,61.4,59.5,61.5,59.4C61.4,59.5,61.5,59.5,61.5,59.4L61.5,59.4
	C61.5,59.6,61.6,59.5,61.5,59.4C61.6,59.5,61.5,59.4,61.5,59.4z"/>
<path d="M60.1,63.9L60.1,63.9C60.2,64,60.2,64,60.1,63.9C60.3,64,60.3,64,60.1,63.9C60.2,63.9,60.2,63.9,60.1,63.9
	C60.2,63.9,60.2,63.8,60.1,63.9z"/>
<path d="M64.3,61.3L64.3,61.3C64.2,61.2,64.2,61.2,64.3,61.3C64.1,61.2,64.1,61.2,64.3,61.3C64.2,61.3,64.2,61.3,64.3,61.3
	L64.3,61.3z"/>
<path d="M64.3,62.5L64.3,62.5L64.3,62.5C64.4,62.4,64.4,62.4,64.3,62.5C64.3,62.3,64.2,62.4,64.3,62.5
	C64.2,62.4,64.2,62.5,64.3,62.5z"/>
<path d="M64.1,63C64.2,63,64.2,63,64.1,63C64.2,63,64.2,63,64.1,63c0.1,0,0.1-0.1,0.1-0.1S64.1,62.9,64.1,63
	C64.1,62.9,64.1,63,64.1,63z"/>
<path d="M64,60.8C64,60.7,64.1,60.7,64,60.8c0-0.1,0-0.1-0.1-0.1C63.9,60.7,63.9,60.7,64,60.8C63.9,60.7,64,60.8,64,60.8L64,60.8z"
	/>
<path d="M59.9,63.5C59.9,63.5,59.9,63.4,59.9,63.5C59.9,63.4,59.8,63.5,59.9,63.5C59.8,63.5,59.8,63.6,59.9,63.5
	C59.8,63.6,59.8,63.6,59.9,63.5C59.8,63.6,59.9,63.5,59.9,63.5z"/>
<path d="M63.2,59.9L63.2,59.9L63.2,59.9C63.3,59.9,63.3,59.9,63.2,59.9C63.2,59.8,63.2,59.8,63.2,59.9
	C63.1,59.9,63.1,59.9,63.2,59.9z"/>
<path d="M59.7,60.8L59.7,60.8C59.8,60.7,59.7,60.8,59.7,60.8C59.6,60.7,59.6,60.7,59.7,60.8C59.6,60.8,59.6,60.8,59.7,60.8
	C59.7,60.9,59.7,60.9,59.7,60.8C59.7,60.9,59.7,60.9,59.7,60.8z"/>
<path d="M59.3,62.5C59.3,62.5,59.4,62.5,59.3,62.5C59.4,62.5,59.4,62.5,59.3,62.5C59.4,62.6,59.4,62.5,59.3,62.5
	C59.5,62.4,59.4,62.4,59.3,62.5C59.4,62.4,59.3,62.4,59.3,62.5z"/>
<path d="M63.4,63.8L63.4,63.8L63.4,63.8z"/>
<path d="M64.3,61.8L64.3,61.8C64.2,61.7,64.2,61.8,64.3,61.8C64.2,61.9,64.3,61.9,64.3,61.8C64.3,61.9,64.3,61.9,64.3,61.8z"/>
<path d="M60.8,64.2L60.8,64.2c0-0.1-0.1-0.1-0.1-0.1C60.7,64.3,60.7,64.3,60.8,64.2C60.7,64.3,60.7,64.3,60.8,64.2
	C60.7,64.3,60.8,64.2,60.8,64.2z"/>
<path d="M59.5,63.1C59.5,63.1,59.6,63,59.5,63.1C59.5,63,59.5,63,59.5,63.1C59.5,63,59.4,63,59.5,63.1L59.5,63.1L59.5,63.1z"/>
<path d="M59.9,60.2C59.9,60.3,59.9,60.3,59.9,60.2C59.9,60.3,59.9,60.3,59.9,60.2C60,60.3,60,60.3,59.9,60.2
	C60,60.3,60,60.3,59.9,60.2C60,60.2,60,60.2,59.9,60.2z"/>
<path d="M63.6,60.4L63.6,60.4C63.7,60.3,63.7,60.3,63.6,60.4C63.6,60.3,63.6,60.3,63.6,60.4C63.5,60.3,63.5,60.3,63.6,60.4
	L63.6,60.4z"/>
<path d="M63.8,63.5L63.8,63.5C63.8,63.6,63.8,63.6,63.8,63.5C63.8,63.6,63.8,63.6,63.8,63.5C63.9,63.5,63.9,63.5,63.8,63.5
	C63.8,63.4,63.8,63.4,63.8,63.5z"/>
<path d="M59.3,61.9C59.4,61.9,59.4,61.9,59.3,61.9L59.3,61.9C59.4,61.8,59.3,61.8,59.3,61.9C59.3,61.8,59.3,61.8,59.3,61.9
	L59.3,61.9L59.3,61.9z"/>
</svg>
