<?xml version="1.0" encoding="utf-8"?>
<!-- Generator: Adobe Illustrator 21.0.2, SVG Export Plug-In . SVG Version: 6.00 Build 0)  -->
<svg version="1.1" id="Layer_1" xmlns="http://www.w3.org/2000/svg" xmlns:xlink="http://www.w3.org/1999/xlink" x="0px" y="0px"
	 viewBox="0 0 135.7 136.1" style="enable-background:new 0 0 135.7 136.1;" xml:space="preserve">
<style type="text/css">
	.st0{fill:none;stroke:#000000;stroke-width:2.8235;stroke-linecap:round;stroke-miterlimit:10;stroke-dasharray:0,13.9601;}
	.st1{fill:none;stroke:#000000;stroke-width:1.4117;stroke-linecap:round;stroke-miterlimit:10;stroke-dasharray:0,6.9801;}
	.st2{fill:none;stroke:#000000;stroke-width:2.3529;stroke-linecap:round;stroke-miterlimit:10;stroke-dasharray:0,11.6334;}
	.st3{fill:none;stroke:#000000;stroke-width:0.8627;stroke-linecap:round;stroke-miterlimit:10;stroke-dasharray:0,4.2652;}
	.st4{fill:none;stroke:#000000;stroke-width:1.8823;stroke-linecap:round;stroke-miterlimit:10;stroke-dasharray:0,9.3067;}
	.st5{fill:none;stroke:#000000;stroke-width:1.647;stroke-linecap:round;stroke-miterlimit:10;stroke-dasharray:0,8.1434;}
	.st6{fill:none;stroke:#000000;stroke-width:1.1764;stroke-linecap:round;stroke-miterlimit:10;stroke-dasharray:0,5.8167;}
	.st7{fill:none;stroke:#000000;stroke-width:0.7059;stroke-linecap:round;stroke-miterlimit:10;stroke-dasharray:0,3.49;}
	.st8{fill:none;stroke:#000000;stroke-width:0.4706;stroke-linecap:round;stroke-miterlimit:10;stroke-dasharray:0,2.3267;}
	.st9{fill:none;stroke:#000000;stroke-width:0.2353;stroke-linecap:round;stroke-miterlimit:10;stroke-dasharray:0,1.1633;}
	.st10{fill:none;stroke:#000000;stroke-width:0.1176;stroke-linecap:round;stroke-miterlimit:10;stroke-dasharray:0,0.5816;}
	.st11{fill:none;stroke:#000000;stroke-width:3.0585;stroke-linecap:round;stroke-miterlimit:10;stroke-dasharray:0,15.1219;}
	.st12{fill:none;stroke:#000000;stroke-width:1.2351;stroke-linecap:round;stroke-miterlimit:10;stroke-dasharray:0,6.107;}
	.st13{fill:none;stroke:#000000;stroke-width:1.2844;stroke-linecap:round;stroke-miterlimit:10;stroke-dasharray:0,6.3507;}
	.st14{fill:none;stroke:#000000;stroke-width:0.6764;stroke-linecap:round;stroke-miterlimit:10;stroke-dasharray:0,3.3442;}
	.st15{fill:none;stroke:#000000;stroke-width:1.341;stroke-linecap:round;stroke-miterlimit:10;stroke-dasharray:0,6.6304;}
	.st16{fill:none;stroke:#000000;stroke-width:0.8887;stroke-linecap:round;stroke-miterlimit:10;stroke-dasharray:0,4.3936;}
	.st17{fill:none;stroke:#000000;stroke-width:0.9291;stroke-linecap:round;stroke-miterlimit:10;stroke-dasharray:0,4.5937;}
	.st18{fill:none;stroke:#000000;stroke-width:0.6617;stroke-linecap:round;stroke-miterlimit:10;stroke-dasharray:0,3.2715;}
	.st19{fill:none;stroke:#000000;stroke-width:1.5681;stroke-linecap:round;stroke-miterlimit:10;stroke-dasharray:0,7.7534;}
	.st20{fill:none;stroke:#000000;stroke-width:1.4116;stroke-linecap:round;stroke-miterlimit:10;stroke-dasharray:0,6.9793;}
	.st0, .st1,.st2, .st3, .st4, .st5, .st6,
	.st6, .st7,.st8, .st9, .st10, .st11, .st12,
	.st13,.st14, .st15, .st16, .st17, .st18, st19, st20 {
		stroke: #ff3d00;
	}
</style>
<g>
	<circle class="st0" cx="68" cy="68.2" r="60"/>
</g>
<g>
	<ellipse transform="matrix(0.9903 -0.1392 0.1392 0.9903 -8.8272 10.1225)" class="st1" cx="68" cy="68.2" rx="55" ry="55"/>
</g>
<g>
	<circle class="st2" cx="68" cy="68.2" r="50"/>
</g>
<g>
	<ellipse transform="matrix(0.9903 -0.1392 0.1392 0.9903 -8.8272 10.1225)" class="st3" cx="68" cy="68.2" rx="45" ry="45"/>
</g>
<g>
	<circle class="st4" cx="68" cy="68.2" r="40"/>
</g>
<g>
	<ellipse transform="matrix(0.9903 -0.1392 0.1392 0.9903 -8.8272 10.1225)" class="st5" cx="68" cy="68.2" rx="35" ry="35"/>
</g>
<g>
	<circle class="st1" cx="68" cy="68.2" r="30"/>
</g>
<g>
	<ellipse transform="matrix(0.9903 -0.1392 0.1392 0.9903 -8.8272 10.1225)" class="st6" cx="68" cy="68.2" rx="25" ry="25"/>
</g>
<g>
	<circle class="st4" cx="68" cy="68.2" r="20"/>
</g>
<g>
	<ellipse transform="matrix(0.9903 -0.1392 0.1392 0.9903 -8.8272 10.1225)" class="st7" cx="68" cy="68.2" rx="15" ry="15"/>
</g>
<g>
	<circle class="st8" cx="68" cy="68.2" r="10"/>
</g>
<g>
	<ellipse transform="matrix(0.9903 -0.1392 0.1392 0.9903 -8.8272 10.1225)" class="st9" cx="68" cy="68.2" rx="5" ry="5"/>
</g>
<g>
	<circle class="st10" cx="68" cy="68.2" r="2.5"/>
</g>
<g>
	<ellipse transform="matrix(0.9925 -0.1219 0.1219 0.9925 -7.8025 8.7919)" class="st0" cx="68" cy="68.2" rx="60" ry="60"/>
</g>
<g>
	<ellipse transform="matrix(0.9925 -0.1219 0.1219 0.9925 -7.8025 8.7919)" class="st11" cx="68" cy="68.2" rx="65" ry="65"/>
</g>
<g>
	
		<ellipse transform="matrix(0.9816 -0.1908 0.1908 0.9816 -11.7579 14.2174)" class="st12" cx="67.9" cy="68.2" rx="62.5" ry="62.5"/>
</g>
<g>
	<ellipse transform="matrix(0.9659 -0.2588 0.2588 0.9659 -15.3268 19.9081)" class="st13" cx="67.9" cy="68.2" rx="65" ry="65"/>
</g>
<g>
	<ellipse transform="matrix(0.9925 -0.1219 0.1219 0.9925 -7.8025 8.7919)" class="st14" cx="68" cy="68.2" rx="57.5" ry="57.5"/>
</g>
<g>
	<ellipse transform="matrix(0.9659 -0.2588 0.2588 0.9659 -15.3275 19.908)" class="st4" cx="67.9" cy="68.2" rx="52.5" ry="52.5"/>
</g>
<g>
	<ellipse transform="matrix(0.9925 -0.1219 0.1219 0.9925 -7.8025 8.7919)" class="st3" cx="68" cy="68.2" rx="50" ry="50"/>
</g>
<g>
	<ellipse transform="matrix(0.9925 -0.1219 0.1219 0.9925 -7.8025 8.7919)" class="st15" cx="68" cy="68.2" rx="47.5" ry="47.5"/>
</g>
<g>
	
		<ellipse transform="matrix(0.9659 -0.2588 0.2588 0.9659 -15.3275 19.908)" class="st16" cx="67.9" cy="68.2" rx="42.5" ry="42.5"/>
</g>
<g>
	<ellipse transform="matrix(0.9659 -0.2588 0.2588 0.9659 -15.3275 19.908)" class="st4" cx="67.9" cy="68.2" rx="45" ry="45"/>
</g>
<g>
	<ellipse transform="matrix(0.9925 -0.1219 0.1219 0.9925 -7.8099 8.67)" class="st4" cx="67" cy="68.2" rx="40" ry="40"/>
</g>
<g>
	<ellipse transform="matrix(0.9925 -0.1219 0.1219 0.9925 -7.7801 9.1576)" class="st17" cx="71" cy="68.2" rx="38.5" ry="38.5"/>
</g>
<g>
	<ellipse transform="matrix(0.9925 -0.1219 0.1219 0.9925 -7.8025 8.7919)" class="st18" cx="68" cy="68.2" rx="37.5" ry="37.5"/>
</g>
<g>
	<ellipse transform="matrix(0.9563 -0.2924 0.2924 0.9563 -16.9185 23.1407)" class="st5" cx="69" cy="68.2" rx="35" ry="35"/>
</g>
<g>
	<ellipse transform="matrix(0.9659 -0.2588 0.2588 0.9659 -15.3275 19.908)" class="st1" cx="67.9" cy="68.2" rx="32.5" ry="32.5"/>
</g>
<g>
	<ellipse transform="matrix(0.9925 -0.1219 0.1219 0.9925 -7.8099 8.67)" class="st1" cx="67" cy="68.2" rx="30" ry="30"/>
</g>
<g>
	<ellipse transform="matrix(0.9925 -0.1219 0.1219 0.9925 -7.8025 8.7919)" class="st3" cx="68" cy="68.2" rx="27.5" ry="27.5"/>
</g>
<g>
	<ellipse transform="matrix(0.9659 -0.2588 0.2588 0.9659 -15.3275 19.908)" class="st1" cx="67.9" cy="68.2" rx="25" ry="25"/>
</g>
<g>
	<ellipse transform="matrix(0.9659 -0.2588 0.2588 0.9659 -15.3275 19.908)" class="st4" cx="67.9" cy="68.2" rx="22.5" ry="22.5"/>
</g>
<g>
	<ellipse transform="matrix(0.9925 -0.1219 0.1219 0.9925 -7.8025 8.7919)" class="st12" cx="68" cy="68.2" rx="17.5" ry="17.5"/>
</g>
<g>
	
		<ellipse transform="matrix(0.9659 -0.2588 0.2588 0.9659 -15.3275 19.908)" class="st19" cx="67.9" cy="68.2" rx="12.5" ry="12.5"/>
</g>
<g>
	<ellipse transform="matrix(0.9925 -0.1219 0.1219 0.9925 -7.8025 8.7919)" class="st20" cx="68" cy="68.2" rx="7.5" ry="7.5"/>
</g>
<g>
	<ellipse transform="matrix(0.9659 -0.2588 0.2588 0.9659 -15.3275 19.908)" class="st1" cx="67.9" cy="68.2" rx="5" ry="5"/>
</g>
<g>
	<ellipse transform="matrix(0.9925 -0.1219 0.1219 0.9925 -7.8025 8.7919)" class="st1" cx="68" cy="68.2" rx="2.5" ry="2.5"/>
</g>
</svg>
