<?xml version="1.0" encoding="utf-8"?>
<!-- Generator: Adobe Illustrator 21.0.2, SVG Export Plug-In . SVG Version: 6.00 Build 0)  -->
<svg version="1.1" id="Layer_1" xmlns="http://www.w3.org/2000/svg" xmlns:xlink="http://www.w3.org/1999/xlink" x="0px" y="0px"
	 viewBox="0 0 135.7 136.1" style="enable-background:new 0 0 135.7 136.1;" xml:space="preserve">
<style type="text/css">
	.st0{fill:none;stroke:#000000;stroke-width:1.6707;stroke-linecap:round;stroke-miterlimit:10;stroke-dasharray:0,8.2604;}
	.st1{fill:none;stroke:#000000;stroke-width:0.8353;stroke-linecap:round;stroke-miterlimit:10;stroke-dasharray:0,4.1302;}
	.st2{fill:none;stroke:#000000;stroke-width:1.3922;stroke-linecap:round;stroke-miterlimit:10;stroke-dasharray:0,6.8837;}
	.st3{fill:none;stroke:#000000;stroke-width:0.5105;stroke-linecap:round;stroke-miterlimit:10;stroke-dasharray:0,2.5238;}
	.st4{fill:none;stroke:#000000;stroke-width:1.1138;stroke-linecap:round;stroke-miterlimit:10;stroke-dasharray:0,5.5069;}
	.st5{fill:none;stroke:#000000;stroke-width:0.9746;stroke-linecap:round;stroke-miterlimit:10;stroke-dasharray:0,4.8186;}
	.st6{fill:none;stroke:#000000;stroke-width:0.6961;stroke-linecap:round;stroke-miterlimit:10;stroke-dasharray:0,3.4418;}
	.st7{fill:none;stroke:#000000;stroke-width:0.4177;stroke-linecap:round;stroke-miterlimit:10;stroke-dasharray:0,2.0651;}
	.st8{fill:none;stroke:#000000;stroke-width:0.2785;stroke-linecap:round;stroke-miterlimit:10;stroke-dasharray:0,1.3767;}
	.st9{fill:none;stroke:#000000;stroke-width:0.1392;stroke-linecap:round;stroke-miterlimit:10;stroke-dasharray:0,0.6883;}
	.st10{fill:none;stroke:#000000;stroke-width:6.958568e-02;stroke-linecap:round;stroke-miterlimit:10;stroke-dasharray:0,0.3441;}
	.st11{fill:none;stroke:#000000;stroke-width:1.8098;stroke-linecap:round;stroke-miterlimit:10;stroke-dasharray:0,8.9479;}
	.st12{fill:none;stroke:#000000;stroke-width:0.7308;stroke-linecap:round;stroke-miterlimit:10;stroke-dasharray:0,3.6136;}
	.st13{fill:none;stroke:#000000;stroke-width:0.76;stroke-linecap:round;stroke-miterlimit:10;stroke-dasharray:0,3.7578;}
	.st14{fill:none;stroke:#000000;stroke-width:0.4002;stroke-linecap:round;stroke-miterlimit:10;stroke-dasharray:0,1.9788;}
	.st15{fill:none;stroke:#000000;stroke-width:0.7935;stroke-linecap:round;stroke-miterlimit:10;stroke-dasharray:0,3.9233;}
	.st16{fill:none;stroke:#000000;stroke-width:0.5259;stroke-linecap:round;stroke-miterlimit:10;stroke-dasharray:0,2.5998;}
	.st17{fill:none;stroke:#000000;stroke-width:0.5498;stroke-linecap:round;stroke-miterlimit:10;stroke-dasharray:0,2.7182;}
	.st18{fill:none;stroke:#000000;stroke-width:0.3915;stroke-linecap:round;stroke-miterlimit:10;stroke-dasharray:0,1.9358;}
	.st19{fill:none;stroke:#000000;stroke-width:0.9279;stroke-linecap:round;stroke-miterlimit:10;stroke-dasharray:0,4.5878;}
	.st20{fill:none;stroke:#000000;stroke-width:0.8353;stroke-linecap:round;stroke-miterlimit:10;stroke-dasharray:0,4.1298;}
</style>
<g>
	<g>
		<path class="st0" d="M42.2,65.9C54.3,40,75.6,20,89.9,21.2s16,23.3,3.9,49.2s-33.5,45.9-47.7,44.7C31.8,113.8,30.1,91.8,42.2,65.9
			z"/>
	</g>
	<g>
		<path class="st1" d="M41.7,72.1c9.2-23.7,28.3-44.7,42.8-46.8s18.8,15.3,9.6,38.9S65.9,108.9,51.4,111
			C36.9,113.2,32.6,95.8,41.7,72.1z"/>
	</g>
	<g>
		<path class="st2" d="M46.5,66.3C56.5,44.7,74.3,28,86.2,29.1s13.3,19.4,3.3,41s-27.9,38.3-39.8,37.2
			C37.8,106.2,36.4,87.9,46.5,66.3z"/>
	</g>
	<g>
		<path class="st3" d="M46.5,71.4C54,52,69.7,34.9,81.5,33.1c11.8-1.8,15.4,12.5,7.9,31.9s-23.2,36.5-35,38.3
			C42.6,105,39,90.8,46.5,71.4z"/>
	</g>
	<g>
		<path class="st4" d="M50.8,66.7c8.1-17.3,22.3-30.6,31.8-29.8s10.7,15.5,2.6,32.8s-22.3,30.6-31.8,29.8
			C43.9,98.6,42.7,83.9,50.8,66.7z"/>
	</g>
	<g>
		<path class="st5" d="M51.3,70.7c5.8-15.1,18-28.4,27.2-29.8s12,9.7,6.1,24.8s-18,28.4-27.2,29.8C48.2,96.8,45.5,85.7,51.3,70.7z"
			/>
	</g>
	<g>
		<path class="st1" d="M55.1,67c6-13,16.7-23,23.9-22.3c7.1,0.6,8,11.6,2,24.6c-6,13-16.7,23-23.9,22.3S49,80,55.1,67z"/>
	</g>
	<g>
		<path class="st6" d="M56,70c4.2-10.8,12.9-20.3,19.5-21.3s8.5,6.9,4.4,17.7C75.7,77.1,67,86.7,60.4,87.7
			C53.8,88.6,51.9,80.7,56,70z"/>
	</g>
	<g>
		<path class="st4" d="M59.4,67.4c4-8.6,11.2-15.3,15.9-14.9c4.8,0.4,5.3,7.8,1.3,16.4S65.4,84.2,60.7,83.8S55.3,76.1,59.4,67.4z"/>
	</g>
	<g>
		<path class="st7" d="M60.8,69.2c2.5-6.5,7.7-12.2,11.7-12.8s5.1,4.2,2.6,10.6c-2.5,6.5-7.7,12.2-11.7,12.8
			C59.5,80.5,58.3,75.7,60.8,69.2z"/>
	</g>
	<g>
		<path class="st8" d="M63.7,67.8c2-4.3,5.6-7.7,8-7.4c2.4,0.2,2.7,3.9,0.7,8.2c-2,4.3-5.6,7.7-8,7.4C61.9,75.8,61.7,72.1,63.7,67.8
			z"/>
	</g>
	<g>
		<path class="st9" d="M65.6,68.5c0.8-2.2,2.6-4.1,3.9-4.3c1.3-0.2,1.7,1.4,0.9,3.5c-0.8,2.2-2.6,4.1-3.9,4.3
			C65.1,72.3,64.8,70.7,65.6,68.5z"/>
	</g>
	<g>
		<path class="st10" d="M66.9,68.1c0.5-1.1,1.4-1.9,2-1.9c0.6,0.1,0.7,1,0.2,2c-0.5,1.1-1.4,1.9-2,1.9
			C66.5,70.1,66.4,69.2,66.9,68.1z"/>
	</g>
	<g>
		<path class="st0" d="M39.7,71.6c10.3-25.9,31.2-48.4,46.9-50.3s20,17.5,9.7,43.4S65,113.1,49.4,115
			C33.8,116.9,29.4,97.5,39.7,71.6z"/>
	</g>
	<g>
		<path class="st11" d="M37.3,71.9c11.1-28,33.9-52.4,50.8-54.5s21.6,18.9,10.5,47s-33.9,52.4-50.8,54.5S26.2,100,37.3,71.9z"/>
	</g>
	<g>
		<path class="st12" d="M37.2,75.3c9.5-26.7,31-51.6,48-55.5s23,14.7,13.5,41.4s-31,51.6-48,55.5C33.7,120.5,27.7,102,37.2,75.3z"/>
	</g>
	<g>
		<path class="st13" d="M34.8,79c8.7-27.5,30.5-54.6,48.8-60.5s26.1,11.5,17.5,38.9S70.6,112,52.3,118S26.1,106.5,34.8,79z"/>
	</g>
	<g>
		<path class="st14" d="M40.9,71.5c9.8-24.8,29.9-46.4,44.9-48.2c15-1.8,19.1,16.8,9.3,41.6s-29.9,46.4-44.9,48.2S31,96.3,40.9,71.5
			z"/>
	</g>
	<g>
		<path class="st4" d="M41.2,77c7-22.2,24.6-44.1,39.4-48.9s21.1,9.3,14.1,31.4c-7,22.2-24.6,44.1-39.4,48.9
			C40.5,113.2,34.2,99.1,41.2,77z"/>
	</g>
	<g>
		<path class="st3" d="M44.4,71.1c8.6-21.6,26-40.3,39.1-41.9s16.6,14.6,8.1,36.1s-26,40.3-39.1,41.9
			C39.5,108.8,35.8,92.6,44.4,71.1z"/>
	</g>
	<g>
		<path class="st15" d="M45.6,70.9c8.1-20.5,24.7-38.3,37.1-39.8c12.4-1.5,15.8,13.8,7.7,34.3s-24.7,38.3-37.1,39.8
			S37.4,91.4,45.6,70.9z"/>
	</g>
	<g>
		<path class="st16" d="M46.3,75.3c5.7-18,20-35.7,31.9-39.6c12-3.9,17.1,7.5,11.4,25.5s-20,35.7-31.9,39.6
			C45.7,104.7,40.6,93.3,46.3,75.3z"/>
	</g>
	<g>
		<path class="st4" d="M45,75.7c6-19,21.1-37.8,33.8-41.9s18.1,7.9,12.1,27s-21.1,37.8-33.8,41.9C44.4,106.8,39,94.7,45,75.7z"/>
	</g>
	<g>
		<path class="st4" d="M48.7,71.3C55.6,54,69.6,39,80,37.7s13.3,11.7,6.5,28.9s-20.8,32.3-31.2,33.6S41.9,88.5,48.7,71.3z"/>
	</g>
	<g>
		<path class="st17" d="M50.9,68.1C57.5,51.5,71,37,81,35.8S93.8,47,87.2,63.6S67.2,94.6,57.1,95.9C47.1,97.1,44.3,84.7,50.9,68.1z"
			/>
	</g>
	<g>
		<path class="st18" d="M50.3,70.3c6.4-16.2,19.5-30.3,29.3-31.5S92.1,49.8,85.6,66S66.1,96.2,56.3,97.4
			C46.6,98.6,43.9,86.5,50.3,70.3z"/>
	</g>
	<g>
		<path class="st5" d="M50.2,74.1c4.3-14.7,15.9-29.6,25.9-33.3S90.8,46,86.5,60.6c-4.3,14.7-15.9,29.6-25.9,33.3
			S45.9,88.8,50.2,74.1z"/>
	</g>
	<g>
		<path class="st1" d="M51.4,73.6c4.3-13.7,15.3-27.3,24.4-30.3s13.1,5.7,8.7,19.5S69.3,90.1,60.1,93.1C50.9,96.1,47,87.4,51.4,73.6
			z"/>
	</g>
	<g>
		<path class="st1" d="M53.5,70.7c5.1-12.9,15.6-24.2,23.4-25.2c7.8-1,10,8.7,4.8,21.7c-5.1,12.9-15.6,24.2-23.4,25.2
			C50.5,93.3,48.3,83.6,53.5,70.7z"/>
	</g>
	<g>
		<path class="st3" d="M55,69.8c4.7-11.9,14.3-22.2,21.5-23.1c7.2-0.9,9.1,8,4.4,19.9c-4.7,11.9-14.3,22.2-21.5,23.1
			S50.3,81.6,55,69.8z"/>
	</g>
	<g>
		<path class="st1" d="M55.2,72.4c3.3-10.6,11.7-21,18.8-23.3c7-2.3,10,4.4,6.7,15c-3.3,10.6-11.7,21-18.8,23.3
			C54.9,89.7,51.9,83,55.2,72.4z"/>
	</g>
	<g>
		<path class="st4" d="M56.5,72c3-9.5,10.6-18.9,16.9-21c6.3-2.1,9,4,6,13.5c-3,9.5-10.6,18.9-16.9,21S53.5,81.5,56.5,72z"/>
	</g>
	<g>
		<path class="st12" d="M59.7,69.2c3-7.5,9.1-14.1,13.7-14.7c4.6-0.6,5.8,5.1,2.8,12.6c-3,7.5-9.1,14.1-13.7,14.7
			S56.7,76.7,59.7,69.2z"/>
	</g>
	<g>
		<path class="st19" d="M61.6,70.3c1.7-5.3,5.9-10.5,9.4-11.6c3.5-1.1,5,2.2,3.4,7.5c-1.7,5.3-5.9,10.5-9.4,11.6
			C61.4,78.9,59.9,75.6,61.6,70.3z"/>
	</g>
	<g>
		<path class="st20" d="M64.4,68.6c1.3-3.2,3.9-6.1,5.9-6.3s2.5,2.2,1.2,5.4c-1.3,3.2-3.9,6.1-5.9,6.3
			C63.7,74.3,63.1,71.8,64.4,68.6z"/>
	</g>
	<g>
		<path class="st1" d="M65.4,69.1c0.7-2.1,2.3-4.2,3.8-4.7c1.4-0.5,2,0.9,1.3,3c-0.7,2.1-2.3,4.2-3.8,4.7
			C65.3,72.5,64.7,71.2,65.4,69.1z"/>
	</g>
	<g>
		<path class="st1" d="M66.8,68.3c0.4-1.1,1.3-2,2-2.1c0.7-0.1,0.8,0.7,0.4,1.8c-0.4,1.1-1.3,2-2,2.1C66.5,70.2,66.4,69.4,66.8,68.3
			z"/>
	</g>
</g>
</svg>
