<?xml version="1.0" encoding="utf-8"?>
<!-- Generator: Adobe Illustrator 21.0.2, SVG Export Plug-In . SVG Version: 6.00 Build 0)  -->
<svg version="1.1" id="Layer_1" xmlns="http://www.w3.org/2000/svg" xmlns:xlink="http://www.w3.org/1999/xlink" x="0px" y="0px"
	 viewBox="0 0 123.8 124.4" style="enable-background:new 0 0 123.8 124.4;" xml:space="preserve">
<style type="text/css">
	.st0{fill:none;stroke:#000000;stroke-width:2.8235;stroke-linecap:round;stroke-miterlimit:10;stroke-dasharray:0,13.9601;}
	.st1{fill:none;stroke:#000000;stroke-width:2.5882;stroke-linecap:round;stroke-miterlimit:10;stroke-dasharray:0,12.7968;}
	.st2{fill:none;stroke:#000000;stroke-width:2.3529;stroke-linecap:round;stroke-miterlimit:10;stroke-dasharray:0,11.6334;}
	.st3{fill:none;stroke:#000000;stroke-width:2.1176;stroke-linecap:round;stroke-miterlimit:10;stroke-dasharray:0,10.4701;}
	.st4{fill:none;stroke:#000000;stroke-width:1.8823;stroke-linecap:round;stroke-miterlimit:10;stroke-dasharray:0,9.3067;}
	.st5{fill:none;stroke:#000000;stroke-width:1.647;stroke-linecap:round;stroke-miterlimit:10;stroke-dasharray:0,8.1434;}
	.st6{fill:none;stroke:#000000;stroke-width:1.4117;stroke-linecap:round;stroke-miterlimit:10;stroke-dasharray:0,6.9801;}
	.st7{fill:none;stroke:#000000;stroke-width:1.1764;stroke-linecap:round;stroke-miterlimit:10;stroke-dasharray:0,5.8167;}
	.st8{fill:none;stroke:#000000;stroke-width:0.9412;stroke-linecap:round;stroke-miterlimit:10;stroke-dasharray:0,4.6534;}
	.st9{fill:none;stroke:#000000;stroke-width:0.7059;stroke-linecap:round;stroke-miterlimit:10;stroke-dasharray:0,3.49;}
	.st10{fill:none;stroke:#000000;stroke-width:0.4706;stroke-linecap:round;stroke-miterlimit:10;stroke-dasharray:0,2.3267;}
	.st11{fill:none;stroke:#000000;stroke-width:0.2353;stroke-linecap:round;stroke-miterlimit:10;stroke-dasharray:0,1.1633;}
	.st12{fill:none;stroke:#000000;stroke-width:0.1176;stroke-linecap:round;stroke-miterlimit:10;stroke-dasharray:0,0.5816;}
</style>
<g>
	<circle class="st0" cx="61.8" cy="62" r="60"/>
</g>
<g>
	<ellipse transform="matrix(0.9903 -0.1392 0.1392 0.9903 -8.0273 9.2043)" class="st1" cx="61.8" cy="62" rx="55" ry="55"/>
</g>
<g>
	<circle class="st2" cx="61.8" cy="62" r="50"/>
</g>
<g>
	<ellipse transform="matrix(0.9903 -0.1392 0.1392 0.9903 -8.0273 9.2043)" class="st3" cx="61.8" cy="62" rx="45" ry="45"/>
</g>
<g>
	<circle class="st4" cx="61.8" cy="62" r="40"/>
</g>
<g>
	<ellipse transform="matrix(0.9903 -0.1392 0.1392 0.9903 -8.0273 9.2043)" class="st5" cx="61.8" cy="62" rx="35" ry="35"/>
</g>
<g>
	<circle class="st6" cx="61.8" cy="62" r="30"/>
</g>
<g>
	<ellipse transform="matrix(0.9903 -0.1392 0.1392 0.9903 -8.0273 9.2043)" class="st7" cx="61.8" cy="62" rx="25" ry="25"/>
</g>
<g>
	<circle class="st8" cx="61.8" cy="62" r="20"/>
</g>
<g>
	<ellipse transform="matrix(0.9903 -0.1392 0.1392 0.9903 -8.0273 9.2043)" class="st9" cx="61.8" cy="62" rx="15" ry="15"/>
</g>
<g>
	<circle class="st10" cx="61.8" cy="62" r="10"/>
</g>
<g>
	<ellipse transform="matrix(0.9903 -0.1392 0.1392 0.9903 -8.0273 9.2043)" class="st11" cx="61.8" cy="62" rx="5" ry="5"/>
</g>
<g>
	<circle class="st12" cx="61.8" cy="62" r="2.5"/>
</g>
</svg>
