<?xml version="1.0" encoding="utf-8"?>
<!-- Generator: Adobe Illustrator 21.0.2, SVG Export Plug-In . SVG Version: 6.00 Build 0)  -->
<svg version="1.1" id="Layer_1" xmlns="http://www.w3.org/2000/svg" xmlns:xlink="http://www.w3.org/1999/xlink" x="0px" y="0px"
	 viewBox="0 0 147 91" style="enable-background:new 0 0 147 91;" xml:space="preserve">
<style type="text/css">
	.st0{fill:#8AD4EB;}
</style>
<path class="st0" d="M144.7,60.1c0-0.5,0-0.9,0-1.3c-0.6-10.8-8.8-19.4-19.1-21c-1.3-16.6-15.2-29.7-32.1-29.7
	c-11.3,0-21.1,5.8-26.9,14.5c-2.5-0.5-5-0.8-7.7-0.8c-13,0-24.2,6.6-29.4,15.8c-0.9-0.2-1.9-0.2-2.8-0.2
	c-12.5,0-22.7,10.2-22.7,22.7c0,11,7.4,21,17.8,22.1c1.6,0.2,6.7,0.2,6.7,0.2h90.7c0,0,5.5,0,7.4-0.2c9.7-0.9,16.7-9.5,18-19.4l0,0
	c0-0.2,0-0.5,0-0.6C144.7,61.5,144.7,60.9,144.7,60.1L144.7,60.1L144.7,60.1z"/>
</svg>
