<?xml version="1.0" encoding="utf-8"?>
<!-- Generator: Adobe Illustrator 21.0.2, SVG Export Plug-In . SVG Version: 6.00 Build 0)  -->
<svg version="1.1" id="Layer_1" xmlns="http://www.w3.org/2000/svg" xmlns:xlink="http://www.w3.org/1999/xlink" x="0px" y="0px"
	 viewBox="0 0 147 75.8" style="enable-background:new 0 0 147 75.8;" xml:space="preserve">
<style type="text/css">
	.st0{fill:#8AD4EB;}
</style>
<path class="st0" d="M125.6,30.7c-2.7,0-5.3,0.6-7.5,1.7c-3.4-9.1-11.7-15.5-21.3-15.5c-3.1,0-6.1,0.6-8.9,2
	C83.3,10.7,73.4,4.9,62,4.9c-13,0-23.9,7.4-27.5,17.7c-2.5-0.9-5.2-1.6-8-1.6c-12.7,0-23,11.3-23,25.2c0,9.4,4.8,17.7,11.9,22.1
	c2.7,2,6.6,3.6,11.7,3.6c17.8,0,97.5,0,97.5,0c0.2,0,0.5,0,0.6,0c0.2,0,0.3,0,0.3,0c10.3,0,18.6-9.1,18.6-20.3
	C144.3,39.9,136,30.7,125.6,30.7z"/>
</svg>
