<?xml version="1.0" encoding="utf-8"?>
<!-- Generator: Adobe Illustrator 21.0.2, SVG Export Plug-In . SVG Version: 6.00 Build 0)  -->
<svg version="1.1" id="Layer_1" xmlns="http://www.w3.org/2000/svg" xmlns:xlink="http://www.w3.org/1999/xlink" x="0px" y="0px"
	 viewBox="0 0 147 91" style="enable-background:new 0 0 147 91;" xml:space="preserve">
<style type="text/css">
	.st0{fill:#8AD4EB;}
</style>
<path class="st0" d="M118.5,35.8c-0.9-5.8-3.3-11-6.6-15.2c0.3,0,0.8,0.2,1.1,0.2c-0.3,0-0.8-0.2-1.1-0.2
	c-6.7-8.8-17.7-13.9-30.3-13.9c-0.2,0-0.3,0-0.5,0C69.9,6.9,59.7,11.9,53,19.9c-1.4-0.3-3-0.5-4.5-0.5C36.7,19.4,27,29.3,24,40
	C14.3,40.5,6.5,52.4,6.5,62.3c0,10.2,8.1,18.3,18.3,18.3h56.3h37.4c10.2,0,21.3-10.8,21.3-21C139.8,48.2,128.4,36.1,118.5,35.8z"/>
</svg>
