<?xml version="1.0" encoding="utf-8"?>
<!-- Generator: Adobe Illustrator 21.0.2, SVG Export Plug-In . SVG Version: 6.00 Build 0)  -->
<svg version="1.1" id="Layer_1" xmlns="http://www.w3.org/2000/svg" xmlns:xlink="http://www.w3.org/1999/xlink" x="0px" y="0px"
	 viewBox="0 0 147 91" style="enable-background:new 0 0 147 91;" xml:space="preserve">
<style type="text/css">
	.st0{fill:#D8F4F9;}
</style>
<path class="st0" d="M121.2,53.5H121c1.3-2.8,1.9-5.8,1.9-9.1c0-12.5-10.2-22.8-22.8-22.8c-4.4,0-8.6,1.3-12,3.4
	C83.3,13.4,71.9,5.3,58.8,5.3C41.3,5.3,27,19.5,27,37.1c0,1.3,0.2,2.7,0.3,3.9c-0.2,0-0.2,0-0.3,0C15.3,41,5.8,50.5,5.8,62.2
	S15.3,83.5,27,83.5h94.2c8.3,0,15-6.7,15-15C136.2,60.4,129.5,53.5,121.2,53.5z"/>
</svg>
