<?xml version="1.0" encoding="utf-8"?>
<!-- Generator: Adobe Illustrator 21.0.2, SVG Export Plug-In . SVG Version: 6.00 Build 0)  -->
<svg version="1.1" id="Layer_1" xmlns="http://www.w3.org/2000/svg" xmlns:xlink="http://www.w3.org/1999/xlink" x="0px" y="0px"
	 viewBox="0 0 147 91" style="enable-background:new 0 0 147 91;" xml:space="preserve">
<style type="text/css">
	.st0{fill:#8AD4EB;}
</style>
<path class="st0" d="M116.6,30.9c-3.6,0-7,0.6-10.3,1.9c0-0.3,0-0.8,0-1.1c0-15.2-12-27.4-26.9-27.4c-13.6,0-25,10.3-26.7,23.8
	c-1.3-0.3-2.7-0.5-4.1-0.5c-6.4,0-12,3.6-15,8.9c-1.9-0.5-3.9-0.6-5.9-0.6C14,35.9,2.9,46.3,2.9,59.2S14,82.5,27.6,82.5
	c0.8,0,1.6,0,2.3-0.2c0.3,0,0.6,0.2,1.1,0.2h88.7c0.8,0,1.6-0.2,2.2-0.5c12.4-2.3,21.7-12.8,21.7-25.2
	C143.9,42.3,131.7,30.9,116.6,30.9z"/>
</svg>
