<?xml version="1.0" encoding="utf-8"?>
<!-- Generator: Adobe Illustrator 21.0.2, SVG Export Plug-In . SVG Version: 6.00 Build 0)  -->
<svg version="1.1" id="Layer_1" xmlns="http://www.w3.org/2000/svg" xmlns:xlink="http://www.w3.org/1999/xlink" x="0px" y="0px"
	 viewBox="0 0 75 75" style="enable-background:new 0 0 75 75;" xml:space="preserve">
<g>
	<circle style="fill:#FFFFFF;" cx="37.5" cy="37.5" r="37.5"/>
	<path d="M20.2,36.3c-0.7,0-1.2,0.5-1.2,1.2l0,0c0,0.7,0.5,1.2,1.2,1.2H52l-9.6,9.6c-0.4,0.5-0.4,1.2,0,1.7l0,0
		c0.5,0.4,1.2,0.4,1.7,0l11.6-11.6c0.4-0.5,0.4-1.2,0-1.7L44.1,25.1c-0.5-0.4-1.2-0.4-1.7,0l0,0c-0.4,0.5-0.4,1.2,0,1.7l9.6,9.6
		H20.2z"/>
</g>
</svg>
