<?xml version="1.0" encoding="utf-8"?>
<!-- Generator: Adobe Illustrator 21.0.2, SVG Export Plug-In . SVG Version: 6.00 Build 0)  -->
<svg version="1.1" id="bird" xmlns="http://www.w3.org/2000/svg" xmlns:xlink="http://www.w3.org/1999/xlink" x="0px" y="0px"
	 viewBox="0 0 81.8 61.7" style="enable-background:new 0 0 81.8 61.7;" xml:space="preserve">
<style type="text/css">
	.st0{fill:#B3B3B3;}
	.st1{fill:#CCCCCC;}
	.st2{fill:#FFFFFF;}
	.st3{fill:#FF3D00;}
	.st4{fill:#333333;}
	.st5{fill:#E6E6E6;}
</style>
<g>
	<g>
		<path class="st0" d="M72.5,34.6c0,0-1.3-3.8-5.4-3.8c0,0,6.4-5.1,8.4-11.2c2-6-1.1-13.4-4.2-17.3c0,0-1.4,1-0.9,2.8
			c0,0-1.7-1.7-2.4-0.3c-0.5,1,0.4,2.4,0.4,2.4s-1.6-1.7-2.5-0.8c-0.8,0.8,0.3,2.5,0.3,2.5S64.8,8,64.3,9.2
			c-0.6,1.1,0.6,2.9,0.6,2.9s-1.2-0.8-2,0.5s0.3,4,0.3,4s-2-0.1-2.4,3.4c-0.3,3.4-4,8.9-10.1,12.7c0,0-6.1-3.3-12.3-10.4
			c-4.8-5.5-6.3-5.6-13.4-5.9C17.4,16.1,10.8,14,5.4,9.9C1.8,7.1-0.1,6.1,0.8,9.5c1.1,3.8,8.8,10.4,8.8,10.4s-6.6-3.7-7-1.7
			c-0.3,1.9,3.2,5.6,7.9,8.2c3.6,1.9,5.3,1.9,5.3,1.9s-3.7-0.4-6.1-0.7c-2.1-0.3-2,2.6,1.7,4.3C16,34,21,33.8,21,33.8
			s-1.4,0.8-2.8,1.5s-0.4,2.9,3.1,3c3.7,0.1,4.6-0.2,4.6-0.2S23,39,23.4,40.9c0.4,1.8,2.6,1.9,4.7,2.3c2.5,0.5,4.8,3.5,4.8,3.5
			s-2.7,3.9-25.1,10.5c0,0,6.7,1.9,12.2,1.6c0,0-0.3,1.9,2.1,2.2c2.5,0.3,16.5-6.3,16.5-6.3s9.9,1.2,17.2-2.8s11.3-11.3,15.4-12.5"
			/>
	</g>
	<circle class="st1" cx="69.1" cy="34.7" r="1.2"/>
	<g>
		<g>
			<path class="st2" d="M50.6,31.1c0,0-6.1-3.3-12.3-10.4c-4.8-5.5-6.3-5.6-13.4-5.9c-7.6-0.3-14.2-2.4-19.6-6.5
				C1.7,5.5-0.2,4.5,0.7,7.9c1.1,3.8,8.8,10.4,8.8,10.4s-6.6-3.7-7-1.7c-0.3,1.9,3.2,5.6,7.9,8.2c3.6,1.9,5.3,1.9,5.3,1.9
				S12,26.3,9.6,26c-2.1-0.3-2,2.6,1.7,4.3c4.6,2.1,9.6,1.9,9.6,1.9s-1.4,0.8-2.8,1.5s-0.4,2.9,3.1,3c3.7,0.1,4.6-0.2,4.6-0.2
				s-2.9,0.9-2.5,2.8c0.4,1.8,2.6,1.9,4.7,2.3c2.5,0.5,4.8,3.5,4.8,3.5S30.1,49,7.7,55.6c0,0,6.7,1.9,12.2,1.6c0,0-0.3,1.9,2.1,2.2
				c2.5,0.3,16.5-6.3,16.5-6.3s9.9,1.2,17.2-2.8S67,39,71.1,37.8S77,36,77,36s-1.8-3.1-4.8-2.9c0,0-1.3-3.8-5.4-3.8
				c0,0,6.4-5.1,8.4-11.2c2-6-1.1-13.4-4.2-17.3c0,0-1.4,1-0.9,2.8c0,0-1.7-1.7-2.4-0.3c-0.5,1,0.4,2.4,0.4,2.4S66.5,4,65.6,4.9
				c-0.8,0.8,0.3,2.5,0.3,2.5S64.5,6.5,64,7.7c-0.6,1.1,0.6,2.9,0.6,2.9s-1.2-0.8-2,0.5s0.3,4,0.3,4s-2-0.1-2.4,3.4
				C60.4,21.9,56.7,27.4,50.6,31.1z"/>
		</g>
	</g>
	<path class="st3" d="M72.5,33c0,0,3.5-1.4,9,3.7l-14,3.5L72.5,33z"/>
	<circle class="st4" cx="67" cy="33.9" r="1.2"/>
	<g>
		<g>
			<path class="st5" d="M67.4,29c0,0,6.2-5,8.1-11c2-6-1.1-13.4-4.2-17.3c0,0-1.4,1-0.9,2.8c0,0-1.7-1.7-2.4-0.3
				c-0.5,1,0.4,2.4,0.4,2.4s-1.6-1.7-2.5-0.8c-0.8,0.8,0.3,2.5,0.3,2.5s-1.4-0.9-1.9,0.3c-0.6,1.1,0.6,2.9,0.6,2.9s-1.2-0.8-2,0.5
				s0.3,4,0.3,4s-2-0.1-2.4,3.4c-0.3,3.4-4,8.9-10.1,12.7C50.6,31.1,57.7,36.1,67.4,29z"/>
		</g>
	</g>
</g>
</svg>
