<?xml version="1.0" encoding="utf-8"?>
<!-- Generator: Adobe Illustrator 21.0.2, SVG Export Plug-In . SVG Version: 6.00 Build 0)  -->
<svg version="1.1" id="greencandy" xmlns="http://www.w3.org/2000/svg" xmlns:xlink="http://www.w3.org/1999/xlink" x="0px" y="0px"
	 viewBox="0 0 48.2 49" style="enable-background:new 0 0 48.2 49;" xml:space="preserve">
<style type="text/css">
	.st0{fill:#FFFFFF;}
	.st1{fill:#009245;}
	.st2{opacity:0.2;enable-background:new    ;}
</style>
<g>
	<path class="st0" d="M15.2,12.2l20.2,20.2c0.4-0.6,0.8-1.3,1.1-1.9L17.1,11.1C16.5,11.4,15.8,11.8,15.2,12.2z"/>
	<g>
		<path class="st0" d="M18.3,26c-0.3,0.3-0.5,0.4-0.8,0.6l11.2,11.2c0.7-0.3,1.3-0.6,1.9-0.9L18.9,25.2C18.7,25.4,18.5,25.7,18.3,26
			z"/>
		<path class="st0" d="M13.4,21.1c0.2-0.2,0.5-0.4,0.8-0.6L10.7,17c-0.4,0.6-0.7,1.4-0.9,2l3,3.9C13,22.6,13.1,21.3,13.4,21.1z"/>
		<path class="st0" d="M18.6,26.3c0.2-0.2,0.4-0.5,0.6-0.8L14,20.3c-0.3,0.2-0.6,0.3-0.8,0.6c-0.3,0.3-0.4,1.5-0.6,1.8l5.2,5.2
			C18.1,27.7,18.4,26.5,18.6,26.3z"/>
	</g>
</g>
<g>
	<path class="st1" d="M13,14c-0.9,0.9-1.7,1.9-2.3,3l3.5,3.5c1.3-0.7,3-0.5,4.1,0.6s1.3,2.8,0.6,4.1l11.7,11.7
		c1.1-0.6,2.1-1.4,3-2.3c0.7-0.7,1.3-1.4,1.8-2.2L15.2,12.2C14.4,12.7,13.7,13.3,13,14z"/>
	<path class="st1" d="M13.4,26c-1.1-1.1-1.3-2.7-0.6-4l-3-3c-1.6,4.2-1.3,8.9,1.1,12.8h-0.1l-6,1.5c-3,0.8-5.5,2.9-4,4.4
		c1.1,1.1,3.8,1,6,0.1v0.1c-1.6,1.6-2.3,3.9-1.2,5c0.6,0.6,1.5,0.7,2.4,0.4c0.9-0.2,1.8-0.8,2.6-1.5c0.1,0,0.1,0,0.2,0
		c-0.9,2.3-1.1,5.1,0,6.3c1.5,1.5,3.7-1.1,4.5-4.2l1.6-6.2l0.1-0.4c3.7,1.8,8,2,11.8,0.5L17.6,26.6C16.1,27.2,14.5,27,13.4,26z"/>
	<path class="st1" d="M47.5,10.9c-1.2-1.2-4-1-6.3,0c0-0.1,0-0.1,0-0.2c0.7-0.8,1.3-1.7,1.5-2.6c0.3-1,0.2-1.8-0.4-2.4
		c-1.1-1.1-3.4-0.4-5,1.2h-0.1c0.9-2.2,1-4.9-0.1-6c-1.5-1.5-3.6,1-4.4,4l-1.5,6L31,11.8c-4.2-2.6-9.5-2.8-13.9-0.7l19.4,19.4
		c2-4.2,1.9-9.3-0.4-13.4l1-0.3l6.2-1.6C46.4,14.6,49,12.4,47.5,10.9z"/>
	<path class="st1" d="M18.2,20.1c-1.1-1.1-2.7-0.3-4,0.4l4.9,4.9C19.9,24.2,19.3,21.2,18.2,20.1z"/>
	<path class="st1" d="M13.5,26.9c1.1,1.1,2.8,0.3,4.1-0.3l-4.9-4.7C12,23.1,12.4,25.8,13.5,26.9z"/>
</g>
<path class="st2" d="M13.1,34.4C7.4,29.2,7.3,19.7,13,14s15.1-5.7,20.7,0c0,0-9.5-0.5-15.3,5.2C12.7,25,13.1,34.4,13.1,34.4z"/>
<path class="st2" d="M33.7,14c0,0-1.8-1.7-2.7-2.2l0.2-0.9l1.5-6c0.8-3,2.9-5.5,4.4-4c1.1,1.1,1,3.8,0.1,6L33.7,14"/>
<path class="st2" d="M6.8,37.8c-2.2,0.9-4.9,1-6-0.1c-1.5-1.5,1-3.6,4-4.4l6.1-1.5c0,0,1.5,1.9,2.2,2.6L6.8,37.8z"/>
</svg>
