<?xml version="1.0" encoding="utf-8"?>
<!-- Generator: Adobe Illustrator 21.0.2, SVG Export Plug-In . SVG Version: 6.00 Build 0)  -->
<svg version="1.1" id="orangelollipop" xmlns="http://www.w3.org/2000/svg" xmlns:xlink="http://www.w3.org/1999/xlink" x="0px"
	 y="0px" viewBox="0 0 35.5 56.6" style="enable-background:new 0 0 35.5 56.6;" xml:space="preserve">
<style type="text/css">
	.st0{fill:#FFFFFF;}
	.st1{fill:#FF5722;}
	.st2{opacity:0.2;fill:#221F1F;enable-background:new    ;}
</style>
<g>
	<path class="st0" d="M17.5,0.3C27.1,0.3,35,8.1,35,17.8s-7.8,17.4-17.5,17.4S1,27.4,1,17.8S7.8,0.3,17.5,0.3z"/>
	<g>
		<path class="st1" d="M21.3,0.7c2.7,1,5.2,2.4,7.1,4.3c5.7,5.7,6.1,14.6,1.2,20.7c-0.4,0.5-0.8,1-1.2,1.4c-2.4,2.4-5.6,3.7-9,3.7
			s-6.6-1.3-9-3.7c-2-2-3.1-4.6-3.1-7.4s1.1-5.4,3.1-7.4c3.3-3.3,8.8-3.3,12.1,0c1.3,1.3,2.1,3.1,2.1,5s-0.7,3.7-2.1,5
			c-2.3,2.3-6.1,2.3-8.4,0c-0.9-0.9-1.5-2.2-1.5-3.5s0.5-2.6,1.5-3.5c0.5-0.5,1.2-0.5,1.7,0c0.2,0.2,0.3,0.5,0.3,0.8
			s-0.1,0.6-0.3,0.8c-0.5,0.5-0.8,1.2-0.8,1.9c0,0.7,0.3,1.4,0.8,1.9c1.4,1.4,3.7,1.4,5.1,0c0.9-0.9,1.4-2.1,1.4-3.4
			s-0.5-2.5-1.4-3.4c-2.4-2.4-6.4-2.4-8.8,0c-1.5,1.5-2.4,3.6-2.4,5.7c0,2.2,0.8,4.2,2.4,5.7c2,2,4.6,3.1,7.4,3.1s5.4-1.1,7.4-3.1
			c2.6-2.6,3.9-6,3.9-9.4s-1.3-6.8-3.9-9.4c-3.6-3.6-10-5.4-14.7-5.4C5.1,3.5,0.3,10,0.3,17.6c0,9.3,6.5,16.9,15.6,17.5v20
			c0,0.6,1.3,1.2,1.9,1.2s1.9-0.5,1.9-1.2v-20c9.1-0.6,15.6-8.2,15.6-17.5C35.3,9.5,29.2,2.4,21.3,0.7z"/>
	</g>
	<path class="st2" d="M17.9,0.2C8.2,0.2,0.4,8,0.4,17.7s7.4,17.9,17.5,17.5c0,0-10.6-6.9-10.6-17.5S17.9,0.2,17.9,0.2z"/>
	<path class="st2" d="M17.7,56.3V35.1h-1.8v20c0,0,0,0.5,0.9,0.9C16.8,56.1,17.3,56.3,17.7,56.3z"/>
</g>
</svg>
