<?xml version="1.0" encoding="utf-8"?>
<!-- Generator: Adobe Illustrator 21.0.2, SVG Export Plug-In . SVG Version: 6.00 Build 0)  -->
<svg version="1.1" id="rock" xmlns="http://www.w3.org/2000/svg" xmlns:xlink="http://www.w3.org/1999/xlink" x="0px" y="0px"
	 viewBox="0 0 46.7 48.6" style="enable-background:new 0 0 46.7 48.6;" xml:space="preserve">
<style type="text/css">
	.st0{fill:#66463E;}
	.st1{fill:#7F574D;}
	.st2{fill:#8B5F55;}
	.st3{fill:#98695D;}
	.st4{fill:#A47366;}
</style>
<g>
	<polygon class="st0" points="14,0.3 3.3,8.8 0.2,24.5 18.2,14.1 	"/>
	<polygon class="st0" points="5.3,41.2 0.2,24.5 18.2,14.1 16.7,27.3 	"/>
	<polygon class="st1" points="9.4,45.1 5.3,41.2 16.7,27.3 21.7,34.5 	"/>
	<polygon class="st2" points="27.9,48.3 9.4,45.1 21.7,34.5 30.1,36.6 	"/>
	<polygon class="st3" points="27.9,48.3 39.4,44.4 43.9,36.1 46.5,26.4 30.1,36.6 	"/>
	<polygon class="st3" points="14,0.3 31.5,4.3 42.4,12.7 18.2,14.1 	"/>
	<polygon class="st4" points="42.4,12.7 46.5,26.4 30.1,36.6 21.7,34.5 16.7,27.3 18.2,14.1 	"/>
</g>
</svg>
