<?xml version="1.0" encoding="utf-8"?>
<!-- Generator: Adobe Illustrator 21.0.2, SVG Export Plug-In . SVG Version: 6.00 Build 0)  -->
<svg version="1.1" id="time" xmlns="http://www.w3.org/2000/svg" xmlns:xlink="http://www.w3.org/1999/xlink" x="0px" y="0px"
	 viewBox="0 0 35 45" style="enable-background:new 0 0 35 45;" xml:space="preserve">
<style type="text/css">
	.st0{fill:#FFFFFF;}
	.st1{fill:#FBC32D;}
	.st2{fill:#7C3119;}
	.st3{opacity:0.2;}
</style>
<g>
	<polygon class="st0" points="5.1,2.7 5.9,9.1 27.7,15.5 29.5,9.7 29.3,2.3 	"/>
	<polygon class="st1" points="5.9,9.1 27.7,15.5 20.4,19.9 20.5,23.4 27.8,29.5 29.6,35.3 29.7,41.7 4.5,42.1 5.5,35.4 8.8,26.6 
		14.1,23 13.3,19.6 5.9,12.2 	"/>
	<g>
		<path class="st2" d="M34.8,0.2H0.1v5.3h3.5c-0.1,2.6,0.3,11,9,16.3V22v1.1v0.2c-8.8,5.3-9.1,13.8-9,16.3H0.1v5.3h34.7v-5.3h-3.5
			c0.1-2.5-0.2-11-9-16.3v-0.2V22v-0.2c8.7-5.2,9.1-13.7,9-16.3h3.5V0.2z M20.3,19.8l-0.7,0.4V22v1.1v1.8l0.7,0.4
			c8.5,4.7,8.4,12.6,8.3,14.3H6.4c-0.1-1.7-0.3-9.6,8.3-14.3l0.7-0.4v-1.8V22v-1.8l-0.7-0.4C6.3,15.2,6.3,7.4,6.4,5.6h22.2
			C28.7,7.4,28.7,15.1,20.3,19.8z"/>
	</g>
	<g class="st3">
		<path d="M13.5,44.9c-1.2-13.8,1.9-20,1.9-20v-4.7c-4.3-8.7-1.9-20-1.9-20H0.1v5.3h3.5c-0.1,2.6,0.3,11,9,16.3V22v1.1v0.2
			c-8.8,5.3-9.1,13.8-9,16.3H0.1v5.3L13.5,44.9z"/>
	</g>
</g>
</svg>
