<?xml version="1.0" encoding="utf-8"?>
<!-- Generator: Adobe Illustrator 21.0.2, SVG Export Plug-In . SVG Version: 6.00 Build 0)  -->
<svg version="1.1" id="Layer_1" xmlns="http://www.w3.org/2000/svg" xmlns:xlink="http://www.w3.org/1999/xlink" x="0px" y="0px"
	 viewBox="0 0 32 24" style="enable-background:new 0 0 32 24;" xml:space="preserve">
<path style="fill:#FFFFFF;" d="M29.4,9L14,6V2c0-1.1-0.9-2-2-2c-0.7,0-1.1,0.2-2,1.2L1.1,10C0.5,10.7,0,11.1,0,12
	c0,0.9,0.5,1.3,1.1,2l8.9,8.8c0.9,1,1.3,1.2,2,1.2c1.1,0,2-0.9,2-2v-4l15.4-3c2.5-0.6,2.6-2.5,2.6-3S31.9,9.6,29.4,9z"/>
</svg>
