<?xml version="1.0" encoding="utf-8"?>
<!-- Generator: Adobe Illustrator 21.0.2, SVG Export Plug-In . SVG Version: 6.00 Build 0)  -->
<svg version="1.1" id="Layer_1" xmlns="http://www.w3.org/2000/svg" xmlns:xlink="http://www.w3.org/1999/xlink" x="0px" y="0px"
	 viewBox="0 0 314.1 184.7" style="enable-background:new 0 0 314.1 184.7;" xml:space="preserve">
<g>
	<path style="opacity:0.5;fill:#F2D1AD;enable-background:new    ;" d="M203.7,128.8h-96.1c0,0-44.4,1-31.1,8.6
		c13.3,7.6-10.3,5.9-43.2,6.5c-32.8,0.6-28.5,13,0,13s34.1,12,1.2,11.4c-32.8-0.6-52.9,16.4-10.3,16.4s55.9,0,97.8,0
		c41.9,0,31.1-11.7,0-11.7s-28.6-17.6,16.8-14.7c42.5,2.7,68.2-6.7,25.8-9.9c-43-3.3-1.8-9.9,33.5-9.9
		C233.5,138.4,248,129.8,203.7,128.8z"/>
	<path style="opacity:0.5;fill:#F2D1AD;enable-background:new    ;" d="M115.9,134.1c35.3,0,76.4,6.7,33.5,9.9
		c-42.4,3.2-16.6,12.6,25.8,9.9c45.4-2.8,47.8,14.7,16.8,14.7c-31.1,0-41.9,11.7,0,11.7s55.2,0,97.8,0s22.5-17.1-10.3-16.4
		c-32.8,0.6-27.3-11.4,1.2-11.4s32.8-12.4,0-13s-56.5,1-43.2-6.5c13.3-7.6-31.1-8.6-31.1-8.6h-96.1C66,125.5,80.6,134.1,115.9,134.1
		z"/>
	<g>
		<path style="fill:#4C874C;" d="M130.6,174.8c29-29,60.6,0,60.6,0H130.6z"/>
		<path style="fill:#66BB6A;" d="M160.7,174.8c36.2-36.2,75.4,0,75.4,0H160.7z"/>
	</g>
	<g>
		<path style="fill:#4C874C;" d="M237.2,17.1c20.2-16.7,42.2,0,42.2,0H237.2z"/>
		<path style="fill:#66BB6A;" d="M255.6,17.1c21.7-15.3,45.2,0,45.2,0H255.6z"/>
	</g>
	<g>
		<ellipse style="opacity:0.15;enable-background:new    ;" cx="39.3" cy="165.3" rx="18.9" ry="1.2"/>
		<g>
			<g>
				<ellipse style="fill:#58A05A;" cx="36.9" cy="149.8" rx="7.7" ry="8.5"/>
				<ellipse style="fill:#58A05A;" cx="25.4" cy="149.6" rx="7.7" ry="8.5"/>
				<ellipse style="fill:#58A05A;" cx="32.2" cy="141.2" rx="7.7" ry="8.5"/>
			</g>
			<line style="fill:none;stroke:#A67C52;stroke-width:5.2091;stroke-miterlimit:10;" x1="32.2" y1="155.2" x2="32.2" y2="165.6"/>
			<line style="fill:none;stroke:#8C6746;stroke-width:5.2091;stroke-miterlimit:10;" x1="32.2" y1="153.9" x2="32.2" y2="158.2"/>
			<g>
				<ellipse style="fill:#66BB6A;" cx="38.4" cy="149.2" rx="6.7" ry="7.4"/>
				<ellipse style="fill:#66BB6A;" cx="28.4" cy="149.1" rx="6.7" ry="7.4"/>
				<ellipse style="fill:#66BB6A;" cx="34.3" cy="141.9" rx="6.7" ry="7.4"/>
			</g>
		</g>
		<g>
			<g>
				<ellipse style="fill:#58A05A;" cx="53" cy="152.5" rx="6.4" ry="7"/>
				<ellipse style="fill:#58A05A;" cx="43.5" cy="152.4" rx="6.4" ry="7"/>
				<ellipse style="fill:#58A05A;" cx="49.2" cy="145.5" rx="6.4" ry="7"/>
			</g>
			<line style="fill:none;stroke:#A67C52;stroke-width:4.3098;stroke-miterlimit:10;" x1="49" y1="157" x2="49" y2="165.6"/>
			<line style="fill:none;stroke:#8C6746;stroke-width:4.3098;stroke-miterlimit:10;" x1="49" y1="155.8" x2="49" y2="159.5"/>
			<g>
				<ellipse style="fill:#66BB6A;" cx="54.3" cy="152" rx="5.5" ry="6.1"/>
				<ellipse style="fill:#66BB6A;" cx="46" cy="152" rx="5.5" ry="6.1"/>
				<ellipse style="fill:#66BB6A;" cx="50.9" cy="146" rx="5.5" ry="6.1"/>
			</g>
		</g>
	</g>
	<g id="bigballoonarea">
		<g id="bigballoonnails">
			<line style="fill:none;stroke:#000000;stroke-width:1.628;stroke-miterlimit:10;" x1="77.3" y1="168.2" x2="77.3" y2="178.1"/>
			<line style="fill:none;stroke:#000000;stroke-width:1.628;stroke-miterlimit:10;" x1="107.8" y1="147.7" x2="107.8" y2="157.6"/>
			<line style="fill:none;stroke:#000000;stroke-width:1.628;stroke-miterlimit:10;" x1="255" y1="147.7" x2="255" y2="157.6"/>
			<line style="fill:none;stroke:#000000;stroke-width:1.628;stroke-miterlimit:10;" x1="284.7" y1="168.2" x2="284.7" y2="178.1"/>
		</g>
		<g id="bigballoonbs">
			
				<line style="fill:none;stroke:#000000;stroke-width:1.2277;stroke-linecap:round;stroke-miterlimit:10;" x1="254.3" y1="152.8" x2="225.5" y2="61.3"/>
			
				<line style="fill:none;stroke:#010101;stroke-width:1.2277;stroke-linecap:round;stroke-miterlimit:10;" x1="108.2" y1="152.8" x2="134.5" y2="70.1"/>
		</g>
		<g id="bigballoon">
			
				<rect x="160.9" y="132.1" transform="matrix(0.2381 -0.9712 0.9712 0.2381 0.3453 266.6697)" style="fill:#7B3118;" width="18.5" height="2.1"/>
			
				<rect x="160.9" y="132.1" transform="matrix(0.2381 -0.9712 0.9712 0.2381 0.3453 266.6697)" style="opacity:0.2;enable-background:new    ;" width="18.5" height="2.1"/>
			
				<rect x="192.4" y="123.3" transform="matrix(0.9712 -0.2382 0.2382 0.9712 -26.0149 49.9007)" style="fill:#7B3118;" width="2.1" height="18.6"/>
			<g>
				<g>
					<circle style="fill:#010101;" cx="185.3" cy="136.8" r="0.3"/>
				</g>
				<g>
					<circle style="fill:#010101;" cx="187" cy="136.8" r="0.3"/>
				</g>
				<g>
					<path style="fill:#010101;" d="M186.8,137.8c-0.1-0.1-0.1-0.1-0.2-0.1c0,0-0.2,0.1-0.4,0.1s-0.4-0.1-0.4-0.1
						c-0.1-0.1-0.2,0-0.2,0.1c-0.1,0.1,0,0.2,0.1,0.2c0,0,0.2,0.1,0.6,0.1s0.6-0.1,0.6-0.1C186.8,138,186.8,137.9,186.8,137.8z"/>
				</g>
				<path style="fill:#010101;" d="M189.4,141.2c0,0-0.4-1.5-0.3-3c0-0.2,0.1-0.3,0.1-0.5c0.2-2.2-0.2-4.6-3.2-4.1
					c-3.3,0.6-3.1,4.6-2.3,6.8l0,0c0.1,0.2,0.1,0.2,0.2,0.5c0,0.1,0,0.2,0.1,0.3c-0.3,0.7-0.4,1.6-0.4,2.3h0.7
					c0-0.5,0.1-1.2,0.2-1.7c0.4,0.5,0.8,0.7,0.8,0.7s-0.7-2,0.4-2.6c0.1-0.1,0.3-0.1,0.4-0.1c0.2,0,0.5,0.1,0.7,0.2
					c1.1,0.9,0,3.3,0,3.3s0.6-0.3,1.1-1.3c0.1,0.5,0.2,1,0.2,2.1h0.7c0-0.9,0-1.2-0.1-1.6c-0.1-0.7-0.1-1.4,0-2.1
					C189.1,141,189.4,141.2,189.4,141.2z M186.4,134.5c1,0.7,1.6,1.6,1.9,2.5c-0.2,1-1.1,1.8-2.1,1.8c-0.9,0-1.7-0.6-2-1.4
					C184.6,136.2,185.3,135,186.4,134.5z"/>
				<path style="fill:#010101;" d="M181.1,136.6c-0.1-0.1-0.2-0.1-0.3-0.5h-0.1l0,0c0,0,0.1-0.3,0.1-0.6s-0.2-0.8-0.7-0.9
					c0,0-0.4-1-2.5-0.7c0,0,0.2,0.1,0.2,0.2c0.1,0.1,0.1,0.1,0.1,0.1s-0.5,0-0.8,0.2c0,0,0.2,0.1,0.2,0.2c0,0-0.6,0.1-0.9,0.2
					c0,0,0.3,0.1,0.3,0.8c0,0.2,0.1,0.6,0.2,1.2l0,0h-0.2c-0.1-0.3-0.2-0.2-0.3-0.2c-0.1,0.1-0.1,0.2-0.1,0.4c0,0.7,0.5,0.9,0.7,1
					c0.3,0.9,1,1.5,1.7,1.5c0.8,0,1.4-0.6,1.7-1.5c0.2-0.1,0.7-0.3,0.7-1C181.2,136.9,181.1,136.8,181.1,136.6z M180,137.7
					L180,137.7L180,137.7c-0.4,0.9-0.9,1.5-1.5,1.5c-0.7,0-1.2-0.6-1.5-1.5l0,0l0,0c0,0-0.5-0.1-0.5-0.8c0-0.4,0.1-0.4,0.2-0.4
					c0.2,0,0.9,0.1,0.9,0.1v-0.2c0,0-0.5-0.4-0.5-0.6c0.2-0.6,0.4-0.7,0.5-0.7s0.5,0.1,0.7,0.1c0.6,0,0.7-0.2,1.1-0.2
					c0.4,0,0.6,0.9,0.6,0.9c0,0.1,0.1,0.3,0.1,0.4v0.2c0,0,0.2-0.1,0.4-0.1c0.1,0,0.2,0,0.2,0.4C180.6,137.6,180,137.7,180,137.7z"
					/>
				<g>
					<circle style="fill:#010101;" cx="178.1" cy="136.7" r="0.3"/>
				</g>
				<g>
					<circle style="fill:#010101;" cx="179.5" cy="136.7" r="0.3"/>
				</g>
				<g>
					<path style="fill:#010101;" d="M179.4,137.9c-0.1-0.1-0.1-0.1-0.2-0.1c0,0-0.1,0.1-0.4,0.1s-0.4-0.1-0.4-0.1
						c-0.1-0.1-0.1,0-0.2,0.1c-0.1,0.1,0,0.1,0.1,0.2c0,0,0.2,0.1,0.6,0.1c0.3,0,0.5-0.1,0.6-0.1C179.4,138.1,179.4,138,179.4,137.9
						z"/>
				</g>
				<path style="fill:#010101;" d="M175.4,141.5c0,0,0.7-2.3,3.3-2.3s3.4,2.3,3.4,2.3"/>
			</g>
			<polyline style="fill:none;stroke:#7B3118;stroke-width:0.6138;stroke-miterlimit:10;" points="172.2,123.7 181.8,130.3 
				191.3,123.7 			"/>
			
				<line style="opacity:0.2;fill:none;stroke:#000000;stroke-width:0.6138;stroke-miterlimit:10;enable-background:new    ;" x1="172.2" y1="123.7" x2="181.8" y2="130.3"/>
			<path style="fill:#7B3118;" d="M178.3,126.9h6.9c0,0,1.4,4.1-3.5,4.1C176.9,131,178.3,126.9,178.3,126.9z"/>
			<path style="opacity:0.2;enable-background:new    ;" d="M178.5,126.9c0,0-1.4,4.1,3.4,4.1v-4.1H178.5z"/>
			<g>
				<path style="fill:#EF4538;" d="M181.8,0c26.9,0,38.3,24.9,38.3,47.4c0,30.8-18.5,50.6-27.4,66H171c-8.8-15.5-27.4-35.2-27.4-66
					C143.5,24.9,154.9,0,181.8,0c-38.9,0-56.5,25.1-56.5,48.4c0,24.6,16.8,41.9,30.2,56c4.1,4.2,7.9,8.2,10.7,11.8
					c0.3,0.4,5.4,8.8,5.9,8.8h19.2c0.6,0,5.6-8.3,5.9-8.8c2.8-3.7,6.6-7.6,10.7-11.8c13.4-13.9,30.2-31.3,30.2-56
					C238.2,25.2,220.6,0,181.8,0z"/>
				<path style="fill:#FDC113;" d="M181.8,1.2c-36.5,0-51.9,24.7-51.9,47.2c0,30.6,25.2,50.3,37.2,65.7h29.5
					c11.9-15.4,37.1-35.1,37.1-65.7C233.7,25.9,218.3,1.2,181.8,1.2z"/>
				<path style="fill:#FFFFFF;" d="M143.8,48.4c0,30.6,18.5,50.3,27.2,65.7h21.6c8.7-15.4,27.2-35.1,27.2-65.7
					c0-22.5-11.3-47.2-38.1-47.2C155.1,1.2,143.8,25.9,143.8,48.4z"/>
				<path style="fill:#EF4538;" d="M135.2,48.4c0,30.6,22.7,50.3,33.5,65.7h26.5c10.7-15.4,33.5-35.1,33.5-65.7
					c0-22.5-13.9-47.2-46.8-47.2C149,1.2,135.2,25.9,135.2,48.4z"/>
				<path style="fill:#FDC113;" d="M143.8,48.4c0,30.6,18.5,50.3,27.2,65.7h21.6c8.7-15.4,27.2-35.1,27.2-65.7
					c0-22.5-11.3-47.2-38.1-47.2C155.1,1.2,143.8,25.9,143.8,48.4z"/>
				<path style="fill:#EF4538;" d="M188.9,113.5c5.8-15.4,19.9-35.1,19.9-66.4c0-22.1-8-46.5-26.8-46.5S155.2,25,155.2,47.1
					c0,31.3,14.1,51,19.9,66.4L188.9,113.5L188.9,113.5z"/>
				<path style="fill:#FDC113;" d="M184.5,113.5c2.1-15.4,7.3-35.1,7.3-66.4c0-22.1-2.9-46.5-9.8-46.5c-6.9,0-9.8,24.4-9.8,46.5
					c0,31.3,5.2,51,7.3,66.4H184.5z"/>
			</g>
			<rect x="163.5" y="141.7" style="fill:#7B3118;" width="36.2" height="1.8"/>
			<rect x="164.1" y="141.7" style="opacity:0.2;enable-background:new    ;" width="17.8" height="1.8"/>
			<polygon style="fill:#7B3118;" points="194.8,165.6 168.7,165.6 165.7,141.7 197.8,141.7 			"/>
			
				<line style="fill:none;stroke:#A53D23;stroke-width:0.6138;stroke-miterlimit:10;" x1="166.6" y1="150.6" x2="197.3" y2="150.6"/>
			
				<line style="fill:none;stroke:#A53D23;stroke-width:0.6138;stroke-miterlimit:10;" x1="167.2" y1="156.1" x2="196.7" y2="156.1"/>
			
				<line style="fill:none;stroke:#A53D23;stroke-width:0.6138;stroke-miterlimit:10;" x1="167.8" y1="161.6" x2="195.4" y2="161.6"/>
			<path style="fill:none;stroke:#FDC113;stroke-width:0.6138;stroke-miterlimit:10;" d="M164,141.6c6.3,9.6,11.8,0,11.8,0"/>
			<path style="fill:none;stroke:#FDC113;stroke-width:0.6138;stroke-miterlimit:10;" d="M187.6,141.6c0,0-5.5,9.6-11.8,0"/>
			<path style="fill:none;stroke:#FDC113;stroke-width:0.6138;stroke-miterlimit:10;" d="M187.6,141.6c6.3,9.6,11.8,0,11.8,0"/>
			<path style="fill:#ED2314;" d="M175.9,141.4c0,0-3.7,5.8,0,5.8C179.5,147.2,175.9,141.4,175.9,141.4z"/>
			<path style="fill:#ED2314;" d="M164.2,141.4c0,0-3.7,5.8,0,5.8C167.9,147.1,164.2,141.4,164.2,141.4z"/>
			<path style="fill:#ED2314;" d="M187.6,141.5c0,0-3.7,5.8,0,5.8S187.6,141.5,187.6,141.5z"/>
			<path style="fill:#ED2314;" d="M199.5,141.4c0,0-3.7,5.8,0,5.8S199.5,141.4,199.5,141.4z"/>
			<path style="opacity:0.2;enable-background:new    ;" d="M181.7,0.7c-38.6,0-56.2,25-56.2,48.2c0,24.5,16.7,41.7,30.1,55.7
				c4.1,4.2,7.9,8.2,10.7,11.8c0.3,0.4,5.3,8.8,5.9,8.8h9.8L181.8,0.6"/>
			<polyline style="opacity:0.2;enable-background:new    ;" points="198.5,141.7 165.9,141.7 168.9,165.6 181.9,165.6 181.9,141.7 
				166,141.7 			"/>
		</g>
		<g id="bigballoonfs">
			
				<line style="fill:none;stroke:#010101;stroke-width:1.2277;stroke-linecap:round;stroke-miterlimit:10;" x1="77.9" y1="174.5" x2="130.7" y2="57.1"/>
			
				<line style="fill:none;stroke:#000000;stroke-width:1.2277;stroke-linecap:round;stroke-miterlimit:10;" x1="284.1" y1="174.2" x2="232.5" y2="58.1"/>
		</g>
	</g>
</g>
</svg>
