<?xml version="1.0" encoding="utf-8"?>
<!-- Generator: Adobe Illustrator 21.0.2, SVG Export Plug-In . SVG Version: 6.00 Build 0)  -->
<svg version="1.1" id="Layer_1" xmlns="http://www.w3.org/2000/svg" xmlns:xlink="http://www.w3.org/1999/xlink" x="0px" y="0px"
	 viewBox="0 0 352.1 312.9" style="enable-background:new 0 0 352.1 312.9;" xml:space="preserve">
<g>
	<g id="disneybackground_1_">
		<path style="opacity:0.5;fill:#F2D1AD;enable-background:new    ;" d="M310.1,124.5H163.7c0,0-67.5,1.7-47.2,13.6
			s-15.7,9.2-65.8,10.3c-50,1.1-43.5,20.5,0,20.5s51.9,19,1.9,17.9s-80.6,25.9-15.7,25.9s85.2,0,149.1,0s47.2-18.4,0-18.4
			s-69.4-22.1,0-22.1s130.7-16.8,64.9-16.8s-2.8-15.7,50.9-15.7S377.6,126.1,310.1,124.5z"/>
		<path style="fill:#8ADAFD;" d="M110.9,312.9c27.4,0,78.7-1.2,101.8-1.2s18.4-24.9,6.2-24.9c-12.1,0-3.2,0-15.1,0
			c-11.8,0-10-9.9,0-9.9s27,0,55,0c28.1,0,20.6-19.1,9.4-19.1s-13.4,0-27.5,0s-15.1-9.3-5.2-9.3s18.2,0,37.7,0
			c25.9,0,21.5-20.3,7-20.3c-14.7,0-50.9,0-65.3,0c0,0-0.5,0-8.7,0c-6.1,0-6.5-8.7-0.5-8.7c16.7,0,14.8-14.5-1.7-14.5
			c-11.3,0-44.9,0.5-44.9,0.5s-71.4,1.4-87.4,1.4s-16.3,16.6-0.8,15.5c0,0,3.3,0,8.5,0s4.6,7.5,0,7.5c0,0,0.6,0,0.5,0
			c0,0-28.9,0-41.4,0s-18.3,28.2,5,27.2c0,0,10.3,0,26.9,0c11.5,0,8.8,11,4.9,11c-7,0-9.9,0-17.9,0s-12.3,18.5,2.3,18.5
			c0,0,30.5,0,46.5,0c8.1,0,7,8.1,1.3,8.1c0,0,9.4,0-4.5,0c-13.9,0-11.4,18,1,18h6.9L110.9,312.9L110.9,312.9z"/>
		<ellipse style="fill:#F6E6D2;" cx="166.8" cy="234.2" rx="86.9" ry="16"/>
		<g>
			<ellipse style="opacity:0.15;enable-background:new    ;" cx="257" cy="207.9" rx="10.1" ry="1.1"/>
			<g>
				<g>
					<ellipse style="fill:#58A05A;" cx="253.4" cy="197" rx="5.8" ry="5.5"/>
					<ellipse style="fill:#58A05A;" cx="260.5" cy="197" rx="5.8" ry="5.5"/>
					<ellipse style="fill:#58A05A;" cx="255.4" cy="191.6" rx="4.9" ry="4.7"/>
					<ellipse style="fill:#58A05A;" cx="258.9" cy="191.6" rx="4.9" ry="4.7"/>
					<ellipse style="fill:#58A05A;" cx="257.4" cy="186.5" rx="3.9" ry="3.7"/>
				</g>
				
					<line style="fill:none;stroke:#A67C52;stroke-width:3.6532;stroke-miterlimit:10;" x1="257.4" y1="199.9" x2="257.4" y2="208.6"/>
				
					<line style="fill:none;stroke:#8C6746;stroke-width:3.6532;stroke-miterlimit:10;" x1="257.4" y1="199.9" x2="257.4" y2="202.8"/>
				<g>
					<circle style="fill:#66BB6A;" cx="255.3" cy="196.4" r="4.9"/>
					<circle style="fill:#66BB6A;" cx="261.4" cy="196.4" r="4.9"/>
					<circle style="fill:#66BB6A;" cx="257" cy="191.5" r="4.2"/>
					<circle style="fill:#66BB6A;" cx="260" cy="191.5" r="4.2"/>
					<circle style="fill:#66BB6A;" cx="258.7" cy="186.9" r="3.3"/>
				</g>
			</g>
			<ellipse style="opacity:0.15;enable-background:new    ;" cx="270.2" cy="212" rx="13.5" ry="1.1"/>
			<g>
				<g>
					<ellipse style="fill:#58A05A;" cx="266.1" cy="198.8" rx="6.9" ry="6.6"/>
					<ellipse style="fill:#58A05A;" cx="274.6" cy="198.8" rx="6.9" ry="6.6"/>
					<ellipse style="fill:#58A05A;" cx="268.5" cy="192.3" rx="5.9" ry="5.6"/>
					<ellipse style="fill:#58A05A;" cx="272.7" cy="192.3" rx="5.9" ry="5.6"/>
					<ellipse style="fill:#58A05A;" cx="270.8" cy="186.2" rx="4.6" ry="4.4"/>
				</g>
				
					<line style="fill:none;stroke:#A67C52;stroke-width:4.3566;stroke-miterlimit:10;" x1="270.7" y1="202.2" x2="270.7" y2="212.6"/>
				
					<line style="fill:none;stroke:#8C6746;stroke-width:4.3566;stroke-miterlimit:10;" x1="270.7" y1="202.2" x2="270.7" y2="205.7"/>
				<g>
					<circle style="fill:#66BB6A;" cx="268.3" cy="198.1" r="5.9"/>
					<circle style="fill:#66BB6A;" cx="275.6" cy="198.1" r="5.9"/>
					<circle style="fill:#66BB6A;" cx="270.5" cy="192.2" r="5"/>
					<circle style="fill:#66BB6A;" cx="273.9" cy="192.2" r="5"/>
					<circle style="fill:#66BB6A;" cx="272.4" cy="186.7" r="3.9"/>
				</g>
			</g>
		</g>
		<g>
			<path style="fill:#58A05A;" d="M224.8,123.9c16.4-15.2,34.3,0,34.3,0H224.8z"/>
			<path style="fill:#4C874C;" d="M269.3,123.9c16.4-15.2,34.3,0,34.3,0H269.3z"/>
			<path style="fill:#66BB6A;" d="M241.8,123.9c20.4-19,42.6,0,42.6,0H241.8z"/>
		</g>
		<g>
			<path style="fill:#58A05A;" d="M143.3,241.6c27.4-26.3,57.2,0,57.2,0H143.3z"/>
			<path style="fill:#4C874C;" d="M217.7,241.6c27.4-26.3,57.2,0,57.2,0H217.7z"/>
			<path style="fill:#66BB6A;" d="M171.7,242.2c34.1-32.8,71.2,0,71.2,0H171.7z"/>
		</g>
		<g>
			<path style="fill:#58A05A;" d="M38.8,256.7c27.4-26.3,57.2,0,57.2,0H38.8z"/>
			<path style="fill:#4C874C;" d="M113.1,256.7c27.4-26.3,57.2,0,57.2,0H113.1z"/>
			<path style="fill:#66BB6A;" d="M67.2,257.3c34.1-32.8,71.2,0,71.2,0H67.2z"/>
		</g>
	</g>
	<g id="disneycastle_1_">
		<polygon style="fill:#FFEF95;" points="136.6,106.5 139.2,84.6 141.8,106.5 		"/>
		<rect x="125.8" y="168" style="fill:#BABCBE;" width="9.9" height="9.9"/>
		<polygon style="fill:#476BB1;" points="125.7,162.8 131.1,136.4 135.8,162.8 		"/>
		<polygon style="fill:#FFEE95;" points="130.3,140.2 131,136.6 131.6,140.2 		"/>
		<rect x="124.6" y="162.2" style="fill:#BABCBE;" width="11.6" height="9.3"/>
		<rect x="126.4" y="162.8" style="fill:#808083;" width="2.3" height="1.7"/>
		<rect x="131" y="162.8" style="fill:#808083;" width="2.3" height="1.7"/>
		<rect x="103.7" y="158.1" style="fill:#CFD1D2;" width="5.8" height="18.5"/>
		<polygon style="fill:#476BB1;" points="103.9,158.1 107.1,141.1 109.9,158.1 		"/>
		<polygon style="fill:#FFEE95;" points="106.2,146 107.1,141.2 107.9,146 		"/>
		<rect x="104.9" y="159.9" style="fill:#808083;" width="1.7" height="2.3"/>
		<rect x="188.4" y="162.2" style="fill:#CFD1D2;" width="18" height="5.2"/>
		<g>
			<rect x="190.7" y="162.2" style="fill:#808083;" width="2.9" height="1.7"/>
			<rect x="195.9" y="162.2" style="fill:#808083;" width="2.9" height="1.7"/>
			<rect x="200.6" y="162.2" style="fill:#808083;" width="2.9" height="1.7"/>
		</g>
		<rect x="190.1" y="151.8" style="fill:#BABCBE;" width="15.1" height="11"/>
		<rect x="190.1" y="156.4" style="fill:#A6A7AA;" width="15.1" height="1.2"/>
		<polygon style="fill:#476BB1;" points="190,151.8 197.9,120.2 204.8,151.8 		"/>
		<polygon style="fill:#FFEE95;" points="196.8,124.5 197.9,120.3 198.8,124.5 		"/>
		<g>
			<rect x="191.9" y="151.8" style="fill:#808083;" width="2.3" height="1.7"/>
			<rect x="195.9" y="151.8" style="fill:#808083;" width="2.3" height="1.7"/>
			<rect x="200.6" y="151.8" style="fill:#808083;" width="2.3" height="1.7"/>
		</g>
		<rect x="188.4" y="167.4" style="fill:#CFD1D2;" width="18" height="9.3"/>
		<rect x="188.4" y="167.4" style="fill:#A6A7AA;" width="18" height="1.2"/>
		<rect x="153" y="83.4" style="fill:#BABCBE;" width="7" height="30.1"/>
		<polygon style="fill:#476BB1;" points="153.2,83.4 156.6,58.5 160,83.4 		"/>
		<polygon style="fill:#FFEF95;" points="156,63.1 156.6,58.5 157.3,63.1 		"/>
		<g>
			<rect x="158.2" y="83.4" style="fill:#808083;" width="1.2" height="1.2"/>
			<rect x="155.9" y="83.4" style="fill:#808083;" width="1.2" height="1.2"/>
		</g>
		<rect x="178.5" y="90.9" style="fill:#BABCBE;" width="8.7" height="38.8"/>
		<rect x="178.5" y="90.9" style="fill:#A6A7AA;" width="2.9" height="38.8"/>
		<polygon style="fill:#476BB1;" points="178.6,90.9 182.9,65.6 187,90.9 		"/>
		<polygon style="fill:#FFEF95;" points="182.3,68.9 182.9,65.3 183.5,68.9 		"/>
		<polygon style="fill:#A6A7AA;" points="176.7,98.4 189.1,98.4 187.2,101.9 178.4,101.9 		"/>
		<rect x="177.4" y="96.1" style="fill:#E5E6E6;" width="11.6" height="2.3"/>
		<rect x="176.8" y="96.1" style="fill:#A6A7AA;" width="4.6" height="2.3"/>
		<rect x="174.5" y="129.2" style="fill:#BABCBE;" width="13.9" height="35.4"/>
		<rect x="175" y="124.5" style="fill:#BABCBE;" width="11.6" height="4.6"/>
		<rect x="175" y="129.2" style="fill:#A6A7AA;" width="11.6" height="2.3"/>
		<g>
			<rect x="183.2" y="124.5" style="fill:#808083;" width="1.7" height="1.7"/>
			<rect x="176.8" y="124.5" style="fill:#808083;" width="1.7" height="1.7"/>
			<rect x="180.3" y="124.5" style="fill:#808083;" width="1.7" height="1.7"/>
		</g>
		<polygon style="fill:#476BB1;" points="160,110.7 154.8,81 144.1,81 138.9,110.6 		"/>
		<rect x="132.7" y="108.9" style="fill:#BABCBE;" width="30.7" height="59.7"/>
		<rect x="132.7" y="124.5" style="fill:#A6A7AA;" width="30.7" height="2.9"/>
		<rect x="145.5" y="98.4" style="fill:#CFD1D2;" width="7.5" height="18"/>
		<rect x="133.3" y="115.8" style="fill:#476BB1;" width="30.7" height="4.1"/>
		<polygon style="fill:#CFD1D2;" points="145.5,98.4 149,86.1 153,98.4 		"/>
		<rect x="144.3" y="79.3" style="fill:#FFEF95;" width="10.4" height="1.7"/>
		<rect x="140.8" y="119.9" style="fill:#808083;" width="1.7" height="1.7"/>
		<rect x="144.3" y="119.9" style="fill:#808083;" width="1.7" height="1.7"/>
		<rect x="147.8" y="119.9" style="fill:#808083;" width="1.7" height="1.7"/>
		<rect x="151.9" y="119.9" style="fill:#808083;" width="1.7" height="1.7"/>
		<rect x="155.3" y="119.9" style="fill:#808083;" width="1.7" height="1.7"/>
		<rect x="158.8" y="119.9" style="fill:#808083;" width="1.7" height="1.7"/>
		<line style="fill:none;stroke:#CFD1D2;stroke-width:0.6657;stroke-miterlimit:10;" x1="145.8" y1="98.4" x2="145.8" y2="88.6"/>
		<line style="fill:none;stroke:#CFD1D2;stroke-width:0.6657;stroke-miterlimit:10;" x1="152.7" y1="98.4" x2="152.7" y2="88.6"/>
		<line style="fill:none;stroke:#CFD1D2;stroke-width:0.6657;stroke-miterlimit:10;" x1="149.3" y1="86.3" x2="149.3" y2="83.4"/>
		<rect x="133.3" y="106.5" style="fill:#CFD1D2;" width="7" height="19.7"/>
		<rect x="133.3" y="106.5" style="fill:#A6A7AA;" width="2.9" height="19.7"/>
		<polygon style="fill:#476BB1;" points="133.1,106.5 136.7,91.6 140.2,106.5 		"/>
		<polygon style="fill:#FFEF95;" points="135.7,95.5 136.7,91.5 137.6,95.5 		"/>
		<polygon style="fill:#CFD1D2;" points="133.2,126.3 134.8,132 138.2,132 140.1,126.3 		"/>
		<rect x="135.6" y="132" style="fill:#CFD1D2;" width="1.7" height="35.9"/>
		<rect x="135.1" y="132" style="fill:#A6A7AA;" width="1.2" height="35.9"/>
		<g>
			<rect x="133.9" y="119.3" style="fill:#808083;" width="1.2" height="1.7"/>
			<rect x="136.2" y="119.3" style="fill:#808083;" width="1.2" height="1.7"/>
			<rect x="138.5" y="119.3" style="fill:#808083;" width="1.2" height="1.7"/>
		</g>
		<rect x="185.5" y="121.6" style="fill:#CFD1D2;" width="5.2" height="10.4"/>
		<rect x="185.5" y="121.6" style="fill:#A6A7AA;" width="2.3" height="10.4"/>
		<polygon style="fill:#476BB1;" points="185.6,121.6 188.4,109.6 191,121.6 		"/>
		<polygon style="fill:#FFEF95;" points="187.6,112.9 188.4,109.7 189.1,112.9 		"/>
		<polygon style="fill:#CFD1D2;" points="185.5,132 186.8,136.1 189.7,136.1 191.2,132 		"/>
		<g>
			<rect x="189" y="121.6" style="fill:#808083;" width="1.2" height="1.2"/>
			<rect x="186.6" y="121.6" style="fill:#808083;" width="1.2" height="1.2"/>
		</g>
		<rect x="187.8" y="136.1" style="fill:#CFD1D2;" width="1.2" height="24.9"/>
		<rect x="186.6" y="136.1" style="fill:#A6A7AA;" width="1.2" height="24.9"/>
		<rect x="163.5" y="62.5" style="fill:#CFD1D2;" width="11.6" height="43.5"/>
		<rect x="167.5" y="62.5" style="fill:#BABCBE;" width="4.6" height="43.5"/>
		<rect x="163.5" y="62.5" style="fill:#A6A7AA;" width="4.6" height="43.5"/>
		<rect x="161.7" y="111.8" style="fill:#CFD1D2;" width="13.9" height="37.7"/>
		<rect x="163.5" y="44.5" style="fill:#CFD1D2;" width="11.6" height="9.9"/>
		<polygon style="fill:#FFEF95;" points="163.8,44.5 169.4,4.3 175,44.5 		"/>
		<polygon style="fill:#E4D586;" points="164.1,44.5 169.8,4.3 169.8,44.5 		"/>
		<rect x="165.8" y="110.6" style="fill:#BABCBE;" width="5.8" height="43.5"/>
		<rect x="161.7" y="110.6" style="fill:#A6A7AA;" width="4.1" height="43.5"/>
		<polygon style="fill:#919395;" points="160.6,107.1 177.8,107.1 176,111.8 161.8,111.8 		"/>
		<rect x="160.6" y="103.6" style="fill:#F1F1F1;" width="16.8" height="4.1"/>
		<rect x="161.1" y="103.6" style="fill:#BABCBE;" width="7" height="4.1"/>
		<rect x="168.1" y="103.6" style="fill:#CFD1D2;" width="4.1" height="4.1"/>
		<polygon style="fill:#919395;" points="161.7,58.4 177.1,58.4 175.5,63.1 162.9,63.1 		"/>
		<rect x="162.3" y="54.4" style="fill:#F1F1F1;" width="14.5" height="4.1"/>
		<rect x="162.3" y="54.4" style="fill:#BABCBE;" width="5.8" height="4.1"/>
		<rect x="168.1" y="54.4" style="fill:#CFD1D2;" width="4.1" height="4.1"/>
		<polygon style="fill:#F1F1F1;" points="160.3,155.2 177.4,155.2 175.6,150 161.5,150 		"/>
		<rect x="160.6" y="154.7" style="fill:#CFD1D2;" width="15.1" height="37.7"/>
		<g>
			<rect x="147.2" y="100.2" style="fill:#A6C8DE;" width="4.6" height="4.1"/>
			<rect x="147.2" y="107.7" style="fill:#A6C8DE;" width="4.6" height="6.4"/>
			<g>
				<g>
					<rect x="167.5" y="118.1" style="fill:#A6C8DE;" width="2.9" height="5.8"/>
					<path style="fill:#A6C8DE;" d="M170.4,118.1c0,0,0-2.8-1.6-2.8s-1.6,2.8-1.6,2.8H170.4z"/>
				</g>
				<g>
					<rect x="171.6" y="130.9" style="fill:#A6C8DE;" width="2.3" height="5.8"/>
					<path style="fill:#A6C8DE;" d="M173.9,130.9c0,0,0-2.8-1-2.8s-1,2.8-1,2.8H173.9z"/>
				</g>
				<g>
					<rect x="164" y="141.3" style="fill:#A6C8DE;" width="2.3" height="5.8"/>
					<path style="fill:#A6C8DE;" d="M166,141.3c0,0,0-2.8-1-2.8s-1,2.8-1,2.8H166z"/>
				</g>
			</g>
		</g>
		<rect x="160" y="154.7" style="fill:#A6A7AA;" width="5.8" height="43.5"/>
		<rect x="164.6" y="154.7" style="fill:#BABCBE;" width="7.5" height="43.5"/>
		<rect x="91" y="179" style="fill:#CFD1D2;" width="140.9" height="53.9"/>
		<rect x="97.4" y="176.1" style="fill:#476BB1;" width="128.1" height="5.8"/>
		<rect x="97.4" y="189.4" style="fill:#A6A7AA;" width="128.1" height="5.8"/>
		<g>
			<g>
				<rect x="128.1" y="181.9" style="fill:#808083;" width="2.9" height="3.5"/>
			</g>
			<rect x="197.7" y="181.9" style="fill:#808083;" width="2.9" height="3.5"/>
			<rect x="212.1" y="181.9" style="fill:#808083;" width="2.9" height="3.5"/>
			<rect x="191.3" y="181.9" style="fill:#808083;" width="2.9" height="3.5"/>
			<rect x="108.4" y="181.9" style="fill:#808083;" width="2.9" height="3.5"/>
			<rect x="169.3" y="181.9" style="fill:#808083;" width="2.9" height="3.5"/>
		</g>
		<polygon style="fill:#476BB1;" points="136.2,174.1 143.9,132.6 156.3,132.6 163.5,174.4 		"/>
		<rect x="132.7" y="167.4" style="fill:#E5E6E6;" width="34.2" height="65.5"/>
		<rect x="139.1" y="176.7" style="fill:#F1F1F1;" width="21.4" height="14.5"/>
		<polygon style="fill:#F1F1F1;" points="139.3,176.7 149.7,139.6 160.9,176.7 		"/>
		<circle style="fill:none;stroke:#476BB1;stroke-width:0.6657;stroke-miterlimit:10;" cx="150.1" cy="165.8" r="4.5"/>
		<rect x="134.5" y="197.6" style="fill:#CFD1D2;" width="31.3" height="35.9"/>
		<rect x="143.7" y="130.3" style="fill:#FFEF95;" width="12.2" height="2.3"/>
		<path style="fill:#808083;" d="M136.2,232.8v-15.2c0,0,1.9-15,13.6-15c11.8,0,13,15,13,15v15.3
			C162.9,232.9,136.7,232.8,136.2,232.8z"/>
		<path style="fill:#919395;" d="M137.9,232.8v-11.4c0,0,1.6-11.3,11.8-11.3s11.4,11.3,11.4,11.3v11.5
			C161.1,232.9,138.3,232.8,137.9,232.8z"/>
		<line style="fill:none;stroke:#F1F1F1;stroke-width:0.6657;stroke-miterlimit:10;" x1="149.8" y1="134.4" x2="149.8" y2="140.2"/>
		<path style="fill:#808083;" d="M139.3,181.9c0,0,1-6.2,5.6-6.2c4.5,0,5,5.7,5,5.7s1.2-5.7,5.5-5.7c4.4,0,5.4,6.2,5.4,6.2h-21.7"/>
		<line style="fill:none;stroke:#919395;stroke-width:0.6657;stroke-miterlimit:10;" x1="145.2" y1="176.1" x2="145.2" y2="172"/>
		<line style="fill:none;stroke:#919395;stroke-width:0.6657;stroke-miterlimit:10;" x1="155.6" y1="176.1" x2="155.6" y2="172"/>
		<rect x="139.1" y="181.9" style="fill:#808083;" width="21.4" height="9.3"/>
		<rect x="140.3" y="185.4" style="fill:#919395;" width="19.7" height="5.8"/>
		<polygon style="fill:#476BB1;" points="188.6,169.1 174.8,169.1 172.2,173.2 191.6,173.2 		"/>
		<rect x="173.9" y="183.1" style="fill:#E5E6E6;" width="15.1" height="49.9"/>
		<polygon style="fill:#A6A7AA;" points="172.3,179.6 191.5,179.6 189.5,183.1 173.7,183.1 		"/>
		<rect x="172.7" y="173.2" style="fill:#E5E6E6;" width="18.5" height="7"/>
		<rect x="172.7" y="173.2" style="fill:#BABCBE;" width="7" height="7"/>
		<rect x="174.5" y="159.3" style="fill:#E5E6E6;" width="14.5" height="9.3"/>
		<rect x="174.5" y="159.3" style="fill:#BABCBE;" width="5.2" height="9.3"/>
		<path style="fill:#476BB1;" d="M182.2,121.3l-7.7,38H189L182.2,121.3z"/>
		<g>
			<rect x="174.5" y="159.3" style="fill:#808083;" width="1.7" height="2.3"/>
			<rect x="172.7" y="173.2" style="fill:#808083;" width="1.7" height="2.3"/>
			<rect x="187.8" y="159.3" style="fill:#808083;" width="1.2" height="2.3"/>
			<rect x="189.5" y="173.2" style="fill:#808083;" width="1.2" height="2.3"/>
			<rect x="177.9" y="159.3" style="fill:#808083;" width="2.9" height="2.3"/>
			<rect x="177.4" y="173.2" style="fill:#808083;" width="2.9" height="2.3"/>
			<rect x="184.9" y="173.2" style="fill:#808083;" width="2.9" height="2.3"/>
			<rect x="183.2" y="159.3" style="fill:#808083;" width="2.9" height="2.3"/>
		</g>
		<polygon style="fill:#FFEE95;" points="182.1,121.7 181.1,126.8 183,126.8 		"/>
		<rect x="202.9" y="175.5" style="fill:#E5E6E6;" width="11" height="20.3"/>
		<rect x="202.9" y="175.5" style="fill:#BABCBE;" width="5.2" height="20.3"/>
		<polygon style="fill:#476BB1;" points="202.8,175.5 208.1,151.6 213.5,175.5 		"/>
		<polygon style="fill:#FFEE95;" points="207.2,156.4 208.1,152 209.1,156.4 		"/>
		<polygon style="fill:#E5E6E6;" points="202.9,196.4 205.8,203.3 210,203.3 213.3,196.4 		"/>
		<polygon style="fill:#BABCBE;" points="205.8,203 202.7,195.8 208.1,195.8 208.1,203.1 		"/>
		<polygon style="fill:#A6A7AA;" points="135,132 133.4,126.3 136.2,126.3 136.2,132 		"/>
		<polygon style="fill:#A6A7AA;" points="186.9,136.1 185.5,132 187.8,132 187.8,136.1 		"/>
		<g>
			<rect x="209.8" y="176.1" style="fill:#808083;" width="1.7" height="2.3"/>
			<rect x="205.2" y="176.1" style="fill:#808083;" width="1.7" height="2.3"/>
		</g>
		<rect x="206.3" y="203.3" style="fill:#E5E6E6;" width="2.9" height="13.9"/>
		<polygon style="fill:#BABCBE;" points="208.1,217.1 206.3,218.1 206.3,203.3 208.1,203.3 		"/>
		<rect x="217.4" y="184.2" style="fill:#E5E6E6;" width="14.5" height="48.7"/>
		<rect x="216.8" y="184.2" style="fill:#BABCBE;" width="5.8" height="48.7"/>
		<rect x="174.5" y="183.1" style="fill:#BABCBE;" width="5.2" height="49.9"/>
		<polygon style="fill:#A6A7AA;" points="215,181.3 234.3,181.3 232.3,184.8 216.4,184.8 		"/>
		<rect x="217.4" y="169.7" style="fill:#CFD1D2;" width="13.9" height="7"/>
		<rect x="217.4" y="169.7" style="fill:#BABCBE;" width="5.2" height="7"/>
		<polygon style="fill:#476BB1;" points="217.5,169.7 225,139.8 231.6,169.7 		"/>
		<rect x="215.6" y="176.1" style="fill:#E5E6E6;" width="18" height="5.2"/>
		<rect x="215.6" y="176.1" style="fill:#BABCBE;" width="7" height="5.2"/>
		<g>
			<rect x="217.9" y="176.7" style="fill:#808083;" width="2.9" height="1.7"/>
			<rect x="223.2" y="176.7" style="fill:#808083;" width="2.9" height="1.7"/>
			<rect x="228.4" y="176.7" style="fill:#808083;" width="2.9" height="1.7"/>
		</g>
		<g>
			<rect x="219.1" y="169.7" style="fill:#808083;" width="2.3" height="1.7"/>
			<rect x="223.2" y="169.7" style="fill:#808083;" width="2.3" height="1.7"/>
			<rect x="227.2" y="169.7" style="fill:#808083;" width="2.3" height="1.7"/>
		</g>
		<polygon style="fill:#FFEE95;" points="224,143.6 225,139.6 225.9,143.6 		"/>
		<polygon style="fill:#476BB1;" points="125.3,169.1 111.5,169.1 108.9,173.2 128.3,173.2 		"/>
		<rect x="110.7" y="183.1" style="fill:#E5E6E6;" width="15.1" height="49.9"/>
		<polygon style="fill:#A6A7AA;" points="108.9,179.6 128.2,179.6 126.2,183.1 110.4,183.1 		"/>
		<rect x="109" y="173.2" style="fill:#E5E6E6;" width="18.5" height="7"/>
		<rect x="109" y="173.2" style="fill:#BABCBE;" width="7.5" height="7"/>
		<rect x="111.3" y="159.3" style="fill:#E5E6E6;" width="14.5" height="9.3"/>
		<rect x="111.3" y="159.3" style="fill:#BABCBE;" width="5.2" height="9.3"/>
		<path style="fill:#476BB1;" d="M118.8,121.3l-7.7,38h14.5L118.8,121.3z"/>
		<g>
			<rect x="111.3" y="159.3" style="fill:#808083;" width="1.7" height="2.3"/>
			<rect x="109.5" y="173.2" style="fill:#808083;" width="1.7" height="2.3"/>
			<rect x="124.6" y="159.3" style="fill:#808083;" width="1.2" height="2.3"/>
			<rect x="126.4" y="173.2" style="fill:#808083;" width="1.2" height="2.3"/>
			<rect x="114.8" y="159.3" style="fill:#808083;" width="2.9" height="2.3"/>
			<rect x="113.6" y="173.2" style="fill:#808083;" width="2.9" height="2.3"/>
			<rect x="121.1" y="173.2" style="fill:#808083;" width="2.9" height="2.3"/>
			<rect x="120" y="159.3" style="fill:#808083;" width="2.9" height="2.3"/>
		</g>
		<polygon style="fill:#FFEE95;" points="118.8,121.7 117.8,126.8 119.7,126.8 		"/>
		<polygon style="fill:#476BB1;" points="104.6,174.9 90.9,174.9 88.2,179 107.6,179 		"/>
		<rect x="90.4" y="187.7" style="fill:#E5E6E6;" width="13.9" height="45.2"/>
		<rect x="89.3" y="179" style="fill:#E5E6E6;" width="16.8" height="5.8"/>
		<rect x="89.8" y="179" style="fill:#BABCBE;" width="5.2" height="5.8"/>
		<rect x="91" y="166.2" style="fill:#E5E6E6;" width="13.3" height="8.7"/>
		<rect x="91" y="166.2" style="fill:#BABCBE;" width="2.9" height="8.7"/>
		<path style="fill:#476BB1;" d="M98.1,131.9l-7,34.4h13.2L98.1,131.9z"/>
		<g>
			<rect x="91" y="166.2" style="fill:#808083;" width="1.7" height="2.3"/>
			<rect x="89.3" y="179" style="fill:#808083;" width="1.7" height="2.3"/>
			<rect x="103.2" y="166.2" style="fill:#808083;" width="1.2" height="2.3"/>
			<rect x="104.9" y="179" style="fill:#808083;" width="1.2" height="2.3"/>
			<rect x="94.5" y="166.2" style="fill:#808083;" width="2.3" height="2.3"/>
			<rect x="93.9" y="179" style="fill:#808083;" width="2.3" height="2.3"/>
			<rect x="100.9" y="179" style="fill:#808083;" width="2.3" height="2.3"/>
			<rect x="99.1" y="166.2" style="fill:#808083;" width="2.3" height="2.3"/>
		</g>
		<polygon style="fill:#FFEE95;" points="98.1,132 97.3,136.7 98.9,136.7 		"/>
		<rect x="132.7" y="164.5" style="fill:#F1F1F1;" width="1.7" height="68.4"/>
		<rect x="165.8" y="164.5" style="fill:#F1F1F1;" width="1.7" height="69"/>
		<rect x="110.7" y="183.1" style="fill:#BABCBE;" width="5.8" height="49.9"/>
		<rect x="91" y="187.7" style="fill:#BABCBE;" width="4.1" height="45.2"/>
		<polygon style="fill:#A6A7AA;" points="89.8,184.8 105.9,184.8 104.3,187.7 90.9,187.7 		"/>
		<line style="fill:none;stroke:#FFEE95;stroke-width:0.9986;stroke-miterlimit:10;" x1="144.3" y1="81" x2="144.3" y2="71.2"/>
		<line style="fill:none;stroke:#FFEE95;stroke-width:0.9986;stroke-miterlimit:10;" x1="154.8" y1="81" x2="154.8" y2="71.2"/>
		<line style="fill:none;stroke:#FFEE95;stroke-width:0.9986;stroke-miterlimit:10;" x1="143.7" y1="132.6" x2="143.7" y2="122.8"/>
		<line style="fill:none;stroke:#FFEE95;stroke-width:0.9986;stroke-miterlimit:10;" x1="156.5" y1="132.6" x2="156.5" y2="122.8"/>
		<line style="fill:none;stroke:#F1F1F1;stroke-width:0.9986;stroke-miterlimit:10;" x1="139.1" y1="183.6" x2="139.1" y2="170.3"/>
		<line style="fill:none;stroke:#F1F1F1;stroke-width:0.9986;stroke-miterlimit:10;" x1="161.1" y1="183.6" x2="161.1" y2="170.3"/>
		<g>
			<g>
				<path style="fill:#FFEE95;" d="M169.5,0c-0.2,0-0.2,0.1-0.2,0.2v6.4c0,0.1,0.1,0.2,0.2,0.2c0.2,0,0.2-0.1,0.3-0.2V0.2
					C169.7,0.1,169.6,0,169.5,0z"/>
			</g>
		</g>
		<path style="fill:#F06A25;" d="M171.7,2.8c2.4,0.6,4.1-1.6,4.1-1.6s-1.3,0.9-3-0.4s-3-0.6-3-0.6v2.7l0.5-0.1
			C170.8,2.7,171.3,2.7,171.7,2.8z"/>
		<g>
			<g>
				<path style="fill:#FFEE95;" d="M156.6,50c-0.2,0-0.2,0.1-0.1,0.2v9.7c-0.1,0.2,0,0.2,0.1,0.2s0.2-0.1,0.5-0.2v-9.7
					C156.9,50,156.8,50,156.6,50z"/>
			</g>
		</g>
		<path style="fill:#F06A25;" d="M159,52.9c2.4,0.6,4.1-1.6,4.1-1.6s-1.3,0.9-3-0.4s-3-0.6-3-0.6V53l0.5-0.1
			C158.1,52.7,158.5,52.7,159,52.9z"/>
		<g>
			<g>
				<g>
					<path style="fill:#FFEE95;" d="M197.9,112.7c-0.2,0-0.2,0.1-0.2,0.2v9.7c0,0.2,0.1,0.2,0.2,0.2s0.2-0.1,0.3-0.2v-9.7
						C198.1,112.9,198,112.7,197.9,112.7z"/>
				</g>
			</g>
			<path style="fill:#F06A25;" d="M200.1,115.6c2.4,0.6,4.1-1.6,4.1-1.6s-1.3,0.9-3-0.4s-3-0.6-3-0.6v2.7l0.5-0.1
				C199.2,115.5,199.7,115.5,200.1,115.6z"/>
		</g>
		<g>
			<g>
				<g>
					<path style="fill:#FFEE95;" d="M139,77.1c0.2,0,0.2,0.1,0.2,0.2l0.5,9.7c0,0.2-0.1,0.2-0.2,0.2s-0.2-0.1-0.2-0.2l-0.5-9.7
						C138.8,77.2,138.9,77.1,139,77.1z"/>
				</g>
			</g>
			<path style="fill:#F06A25;" d="M136.9,80.1c-2.4,0.7-4.2-1.4-4.2-1.4s1.3,0.8,3-0.5s3-0.8,3-0.8l0.1,2.7l-0.5-0.1
				C137.8,79.8,137.4,79.9,136.9,80.1z"/>
		</g>
		<g>
			<g>
				<g>
					<path style="fill:#FFEE95;" d="M183,57.7c-0.2,0-0.2,0.1-0.4,0.2v9.7c0.2,0.2,0.3,0.2,0.4,0.2c0.2,0,0.2-0.1,0.2-0.2v-9.7
						C183.2,57.7,183.1,57.7,183,57.7z"/>
				</g>
			</g>
			<path style="fill:#F06A25;" d="M185.1,60.5c2.4,0.6,4.1-1.6,4.1-1.6s-1.3,0.9-3-0.4s-3-0.6-3-0.6v2.7l0.5-0.1
				C184.1,60.3,184.6,60.3,185.1,60.5z"/>
		</g>
		<g>
			<g>
				<g>
					<path style="fill:#FFEE95;" d="M225,131.5c-0.2,0-0.2,0.1-0.1,0.2v9.7c-0.2,0.2-0.1,0.2,0.1,0.2s0.2-0.1,0.5-0.2v-9.7
						C225.2,131.6,225.1,131.5,225,131.5z"/>
				</g>
			</g>
			<path style="fill:#FFEF95;" d="M227.4,134.4c2.4,0.6,4.1-1.6,4.1-1.6s-1.3,0.9-3-0.4s-3-0.6-3-0.6v2.7l0.5-0.1
				C226.5,134.2,226.9,134.2,227.4,134.4z"/>
		</g>
		<g>
			<g>
				<g>
					<path style="fill:#FFEE95;" d="M208.1,144.2c-0.2,0-0.2,0.1-0.1,0.2v9.7c-0.2,0.2-0.1,0.2,0.1,0.2c0.1,0,0.2-0.1,0.5-0.2v-9.7
						C208.4,144.3,208.3,144.2,208.1,144.2z"/>
				</g>
			</g>
			<path style="fill:#FFEF95;" d="M210.6,147.1c2.4,0.6,4.1-1.6,4.1-1.6s-1.3,0.9-3-0.4s-3-0.6-3-0.6v2.7l0.5-0.1
				C209.7,146.9,210.1,146.9,210.6,147.1z"/>
		</g>
		<g>
			<g>
				<g>
					<path style="fill:#FFEE95;" d="M98.3,123.2c0.2,0,0.2,0.1,0.2,0.2v9.7c0,0.2-0.1,0.2-0.2,0.2s-0.2-0.1-0.3-0.2v-9.6
						C98,123.4,98.1,123.2,98.3,123.2z"/>
				</g>
			</g>
			<path style="fill:#FFEF95;" d="M96,126.1c-2.4,0.6-4.1-1.6-4.1-1.6s1.3,0.9,3-0.4s3-0.6,3-0.6v2.7l-0.5-0.1
				C97,126,96.5,126,96,126.1z"/>
		</g>
		<g>
			<g>
				<g>
					<path style="fill:#FFEE95;" d="M119,112.8c0.2,0,0.2,0.1,0.4,0.2v9.7c-0.2,0.2-0.3,0.2-0.4,0.2s-0.2-0.1-0.2-0.2V113
						C118.7,112.9,118.8,112.8,119,112.8z"/>
				</g>
			</g>
			<path style="fill:#FFEF95;" d="M116.9,115.6c-2.4,0.6-4.1-1.6-4.1-1.6s1.3,0.9,3-0.4s3-0.6,3-0.6v2.7l-0.5-0.1
				C117.8,115.5,117.4,115.5,116.9,115.6z"/>
		</g>
		<g>
			<g>
				<g>
					<path style="fill:#FFEE95;" d="M107.1,135.2c0.2,0,0.2,0.1,0.1,0.2v9.7c0.1,0.2,0,0.2-0.1,0.2c-0.2,0-0.2-0.1-0.5-0.2v-9.7
						C106.9,135.2,107,135.2,107.1,135.2z"/>
				</g>
			</g>
			<path style="fill:#FFEF95;" d="M104.7,138.1c-2.4,0.6-4.1-1.6-4.1-1.6s1.3,0.9,3-0.4s3-0.6,3-0.6v2.7l-0.5-0.1
				C105.7,137.8,105.2,137.8,104.7,138.1z"/>
		</g>
		<g>
			<g>
				<g>
					<path style="fill:#FFEE95;" d="M182.3,113c0.2,0,0.2,0.1,0.3,0.2v9.7c-0.1,0.2-0.2,0.2-0.3,0.2c-0.2,0-0.2-0.1-0.3-0.2v-9.7
						C182.1,113,182.2,113,182.3,113z"/>
				</g>
			</g>
			<path style="fill:#FFEF95;" d="M180.1,115.8c-2.4,0.6-4.1-1.6-4.1-1.6s1.3,0.9,3-0.4s3-0.6,3-0.6v2.7l-0.5-0.1
				C181,115.6,180.6,115.6,180.1,115.8z"/>
		</g>
		<g>
			<g>
				<g>
					<path style="fill:#FFEE95;" d="M131,129.7c0.2,0,0.2,0.1,0,0.2v9.7c0.2,0.2,0.1,0.2,0,0.2c-0.2,0-0.2-0.1,0.6-0.2v-9.7
						C130.7,129.8,130.9,129.7,131,129.7z"/>
				</g>
			</g>
			<path style="fill:#FFEF95;" d="M129.1,132.5c-2.4,0.6-4.1-1.6-4.1-1.6s1.3,0.9,3-0.4c1.7-1.3,3-0.6,3-0.6v2.7l-0.5-0.1
				C130,132.3,129.5,132.3,129.1,132.5z"/>
		</g>
		<g>
			<g>
				<g>
					<path style="fill:#FFEE95;" d="M188.6,101.7c-0.2,0-0.2,0.1-0.2,0.2v9.7c-0.1,0.2,0.1,0.2,0.2,0.2c0.2,0,0.2-0.1,0.4-0.2v-9.7
						C188.8,101.8,188.7,101.7,188.6,101.7z"/>
				</g>
			</g>
			<path style="fill:#F06A25;" d="M190.9,104.6c2.4,0.6,4.1-1.6,4.1-1.6s-1.3,0.9-3-0.4s-3-0.6-3-0.6v2.7l0.5-0.1
				C189.9,104.4,190.4,104.4,190.9,104.6z"/>
		</g>
		<polyline style="fill:#BABCBE;" points="165.7,155 160.3,155.1 161.4,150 165.9,150 165.7,155 		"/>
		<polygon style="fill:#CFD1D2;" points="172.5,154.7 164.7,154.7 165.8,149.4 171.6,149.4 		"/>
		<rect x="164" y="45.1" style="fill:#A6A7AA;" width="4.1" height="9.3"/>
		<rect x="168.1" y="45.1" style="fill:#BABCBE;" width="4.1" height="9.3"/>
		<polygon style="fill:#BABCBE;" points="209.3,216.7 208.9,217.8 206.5,217.8 208.1,216.7 		"/>
		<g>
			<rect x="228.4" y="194.1" style="fill:#F1F1F1;" width="3.5" height="2.3"/>
			<rect x="226.1" y="196.4" style="fill:#F1F1F1;" width="3.5" height="2.3"/>
			<rect x="224.3" y="206.8" style="fill:#F1F1F1;" width="3.5" height="2.3"/>
			<rect x="225.5" y="209.1" style="fill:#F1F1F1;" width="3.5" height="2.3"/>
			<rect x="228.4" y="216.1" style="fill:#F1F1F1;" width="3.5" height="2.3"/>
			<rect x="224.9" y="222.5" style="fill:#F1F1F1;" width="3.5" height="2.3"/>
			<rect x="217.4" y="201.6" style="fill:#CFD1D2;" width="3.5" height="2.3"/>
			<rect x="219.1" y="218.4" style="fill:#CFD1D2;" width="3.5" height="2.3"/>
			<rect x="217.9" y="216.1" style="fill:#CFD1D2;" width="3.5" height="2.3"/>
			<rect x="223.2" y="187.1" style="fill:#F1F1F1;" width="3.5" height="2.3"/>
		</g>
		<rect x="185.5" y="197" style="fill:#F1F1F1;" width="3.5" height="2.3"/>
		<rect x="183.2" y="199.3" style="fill:#F1F1F1;" width="3.5" height="2.3"/>
		<rect x="181.4" y="209.1" style="fill:#F1F1F1;" width="3.5" height="2.3"/>
		<rect x="182.6" y="211.5" style="fill:#F1F1F1;" width="3.5" height="2.3"/>
		<rect x="184.9" y="219" style="fill:#F1F1F1;" width="3.5" height="2.3"/>
		<rect x="182" y="225.4" style="fill:#F1F1F1;" width="3.5" height="2.3"/>
		<rect x="174.5" y="204.5" style="fill:#CFD1D2;" width="3.5" height="2.3"/>
		<rect x="176.2" y="197.6" style="fill:#CFD1D2;" width="3.5" height="2.3"/>
		<rect x="175" y="219" style="fill:#CFD1D2;" width="3.5" height="2.3"/>
		<rect x="179.7" y="189.4" style="fill:#F1F1F1;" width="3.5" height="2.3"/>
		<rect x="122.3" y="198.7" style="fill:#F1F1F1;" width="3.5" height="2.3"/>
		<rect x="120" y="201" style="fill:#F1F1F1;" width="3.5" height="2.3"/>
		<rect x="118.2" y="210.9" style="fill:#F1F1F1;" width="3.5" height="2.3"/>
		<rect x="120" y="213.8" style="fill:#F1F1F1;" width="3.5" height="2.3"/>
		<rect x="122.3" y="220.7" style="fill:#F1F1F1;" width="3.5" height="2.3"/>
		<rect x="118.8" y="227.1" style="fill:#F1F1F1;" width="3.5" height="2.3"/>
		<rect x="111.9" y="202.2" style="fill:#CFD1D2;" width="3.5" height="2.3"/>
		<rect x="111.3" y="223.6" style="fill:#CFD1D2;" width="3.5" height="2.3"/>
		<rect x="110.7" y="186.5" style="fill:#CFD1D2;" width="3.5" height="2.3"/>
		<rect x="117.1" y="191.2" style="fill:#F1F1F1;" width="3.5" height="2.3"/>
		<rect x="100.9" y="197.6" style="fill:#F1F1F1;" width="3.5" height="2.3"/>
		<rect x="98.5" y="199.9" style="fill:#F1F1F1;" width="3.5" height="2.3"/>
		<rect x="96.8" y="210.3" style="fill:#F1F1F1;" width="3.5" height="2.3"/>
		<rect x="98.5" y="212.6" style="fill:#F1F1F1;" width="3.5" height="2.3"/>
		<rect x="100.9" y="219.6" style="fill:#F1F1F1;" width="3.5" height="2.3"/>
		<rect x="98" y="226.5" style="fill:#F1F1F1;" width="3.5" height="2.3"/>
		<rect x="91.6" y="197" style="fill:#CFD1D2;" width="3.5" height="2.3"/>
		<rect x="91" y="217.3" style="fill:#CFD1D2;" width="3.5" height="2.3"/>
		<rect x="96.2" y="190.6" style="fill:#F1F1F1;" width="3.5" height="2.3"/>
		<rect x="201.7" y="205.1" style="fill:#E5E6E6;" width="3.5" height="2.3"/>
		<rect x="199.4" y="207.4" style="fill:#E5E6E6;" width="3.5" height="2.3"/>
		<rect x="193.6" y="221.9" style="fill:#E5E6E6;" width="3.5" height="2.3"/>
		<rect x="195.3" y="227.7" style="fill:#E5E6E6;" width="3.5" height="2.3"/>
		<rect x="212.1" y="209.7" style="fill:#E5E6E6;" width="3.5" height="2.3"/>
		<rect x="191.9" y="210.3" style="fill:#E5E6E6;" width="3.5" height="2.3"/>
		<rect x="106.6" y="208.6" style="fill:#E5E6E6;" width="3.5" height="2.3"/>
		<rect x="104.9" y="227.7" style="fill:#E5E6E6;" width="3.5" height="2.3"/>
		<rect x="126.4" y="206.8" style="fill:#E5E6E6;" width="3.5" height="2.3"/>
		<rect x="128.7" y="202.8" style="fill:#E5E6E6;" width="3.5" height="2.3"/>
		<rect x="138.5" y="198.7" style="fill:#E5E6E6;" width="3.5" height="2.3"/>
		<rect x="158.8" y="200.4" style="fill:#E5E6E6;" width="3.5" height="2.3"/>
		<rect x="161.7" y="205.7" style="fill:#E5E6E6;" width="3.5" height="2.3"/>
		<rect x="167.5" y="199.3" style="fill:#E5E6E6;" width="3.5" height="2.3"/>
		<rect x="151.3" y="198.7" style="fill:#E5E6E6;" width="3.5" height="2.3"/>
		<rect x="136.2" y="202.2" style="fill:#E5E6E6;" width="3.5" height="2.3"/>
		<rect x="126.4" y="228.3" style="fill:#E5E6E6;" width="3.5" height="2.3"/>
		<rect x="127.5" y="217.3" style="fill:#E5E6E6;" width="3.5" height="2.3"/>
		<rect x="209.2" y="226" style="fill:#E5E6E6;" width="3.5" height="2.3"/>
		<rect x="205.2" y="222.5" style="fill:#E5E6E6;" width="3.5" height="2.3"/>
		<rect x="200" y="215.5" style="fill:#E5E6E6;" width="3.5" height="2.3"/>
		<rect x="170.4" y="211.5" style="fill:#E5E6E6;" width="3.5" height="2.3"/>
		<rect x="168.1" y="227.1" style="fill:#E5E6E6;" width="3.5" height="2.3"/>
		<rect x="196.5" y="198.1" style="fill:#E5E6E6;" width="3.5" height="2.3"/>
		<path style="fill:#919395;" d="M140.3,185.4c0,0,0.9-5.3,5-5.3s4.6,5,4.6,5s1-5,5-5s4.9,5.3,4.9,5.3H140.3"/>
	</g>
</g>
</svg>
