<?xml version="1.0" encoding="utf-8"?>
<!-- Generator: Adobe Illustrator 21.0.2, SVG Export Plug-In . SVG Version: 6.00 Build 0)  -->
<svg version="1.1" id="Layer_1" xmlns="http://www.w3.org/2000/svg" xmlns:xlink="http://www.w3.org/1999/xlink" x="0px" y="0px"
	 viewBox="0 0 374.7 392.6" style="enable-background:new 0 0 374.7 392.6;" xml:space="preserve">
<g>
	<g>
		<g style="opacity:0.2;">
			<circle cx="136.6" cy="127.7" r="94.7"/>
			<circle cx="236.1" cy="135.1" r="92.6"/>
			<circle cx="166.5" cy="210.9" r="92.6"/>
			<circle cx="47.8" cy="164.4" r="47.8"/>
			<circle cx="63.9" cy="255.5" r="62.2"/>
			<circle cx="127.2" cy="320.5" r="62.2"/>
			<circle cx="225.9" cy="317.5" r="75.1"/>
			<circle cx="290.7" cy="246.4" r="69.6"/>
			<circle cx="320.3" cy="170.6" r="50.6"/>
			<circle cx="195.4" cy="69.8" r="52.2"/>
		</g>
		<g>
			<circle style="fill:#FFFFFF;" cx="140.4" cy="110.1" r="94.7"/>
			<circle style="fill:#FFFFFF;" cx="239.9" cy="117.4" r="92.6"/>
			<circle style="fill:#FFFFFF;" cx="170.4" cy="193.3" r="92.6"/>
			<circle style="fill:#FFFFFF;" cx="51.5" cy="146.7" r="47.8"/>
			<circle style="fill:#FFFFFF;" cx="67.8" cy="237.9" r="62.2"/>
			<circle style="fill:#FFFFFF;" cx="130.9" cy="302.9" r="62.2"/>
			<circle style="fill:#FFFFFF;" cx="229.7" cy="299.9" r="75.1"/>
			<circle style="fill:#FFFFFF;" cx="294.5" cy="228.7" r="69.6"/>
			<circle style="fill:#FFFFFF;" cx="324.1" cy="153" r="50.6"/>
			<circle style="fill:#FFFFFF;" cx="199.2" cy="52.2" r="52.2"/>
		</g>
	</g>
</g>
</svg>
