<?xml version="1.0" encoding="utf-8"?>
<!-- Generator: Adobe Illustrator 21.0.2, SVG Export Plug-In . SVG Version: 6.00 Build 0)  -->
<svg version="1.1" id="Layer_1" xmlns="http://www.w3.org/2000/svg" xmlns:xlink="http://www.w3.org/1999/xlink" x="0px" y="0px"
	 viewBox="0 0 25.6 30.5" style="enable-background:new 0 0 25.6 30.5;" xml:space="preserve">
<g>
	<g>
		<path style="fill:#FF1744;" d="M12.8,0C5.7,0,0,5.7,0,12.8c0,3.6,1.5,6.9,3.9,9.2c2.3,2.2,8.9,8.5,8.9,8.5s6.8-6.3,9.1-8.7
			c2.3-2.3,3.7-5.5,3.7-9.1C25.6,5.7,19.8,0,12.8,0z M12.8,20.4c-4.3,0-7.7-3.5-7.7-7.7S8.6,5,12.8,5s7.7,3.5,7.7,7.7
			S17,20.4,12.8,20.4z"/>
	</g>
	<path style="fill:#FFFFFF;" d="M12.9,22.3c-5.3,0-9.6-4.3-9.6-9.6s4.3-9.6,9.6-9.6s9.6,4.3,9.6,9.6S18.2,22.3,12.9,22.3z"/>
	<circle style="fill:#FF1744;" cx="12.7" cy="8.5" r="1.5"/>
	<path style="fill:none;stroke:#FF1744;stroke-width:2.2347;stroke-linecap:round;stroke-miterlimit:10;" d="M12.7,13.3v4.8"/>
</g>
</svg>
