<?xml version="1.0" encoding="utf-8"?>
<!-- Generator: Adobe Illustrator 21.0.2, SVG Export Plug-In . SVG Version: 6.00 Build 0)  -->
<svg version="1.1" id="Layer_1" xmlns="http://www.w3.org/2000/svg" xmlns:xlink="http://www.w3.org/1999/xlink" x="0px" y="0px"
	 viewBox="0 0 532.9 217.9" style="enable-background:new 0 0 532.9 217.9;" xml:space="preserve">
<g>
	<g id="rollercoasterbackground">
		<path style="opacity:0.5;fill:#F2D1AD;enable-background:new    ;" d="M444,100.1H234.4c0,0-96.8,2.2-67.6,17.7
			s-22.5,12-94.2,13.5c-71.6,1.4-62.3,26.8,0,26.8s74.3,24.8,2.7,23.3C3.7,180-40.1,215.3,52.8,215.3s122.1,0,213.5,0s67.6-24,0-24
			s-99.4-29,0-29s187.1-22,92.9-22s-4-20.5,72.9-20.5S540.8,102.2,444,100.1z"/>
		<path style="opacity:0.5;fill:#F2D1AD;enable-background:new    ;" d="M481.1,14.3H301c0,0-83.1,2.6-58.1,21
			c25.1,18.4-19.3,14.2-80.9,16C100.4,53,108.5,83,162,83s63.8,29.3,2.3,27.6c-61.6-1.7-99.1,40.1-19.3,40.1s104.9,0,183.5,0
			s58.1-28.4,0-28.4s-85.4-34.3,0-34.3s160.8-26,79.8-26s-3.5-24.3,62.6-24.3S564.2,16.8,481.1,14.3z"/>
		<path style="fill:#8ADAFD;" d="M301.3,175.1c21.1,0,61.4-0.7,79.4-0.7c17.9,0,14.3-14.8,4.8-14.8s-2.4,0-11.7,0
			c-9.2,0-7.9-5.9,0-5.9s20.7,0,42.9,0s16.3-11.5,7.4-11.5s-10.7,0-21.6,0s-11.7-5.5-4-5.5c7.6,0,14.1,0,29.4,0
			c20.4,0,16.9-12.1,5.5-12.1c-11.5,0-39.8,0-51,0c0,0-0.4,0-6.7,0c-4.7,0-5-5.1-0.4-5.1c12.9,0,11.4-8.6-1.4-8.6
			c-8.8,0-35.2,0.3-35.2,0.3s-55.5,0.8-67.9,0.8s-12.7,9.8-0.6,9.2c0,0,2.5,0,6.5,0s3.6,4.5,0,4.5c0,0,0.7,0,0.6,0
			c0,0-22.8,0-32.7,0s-14.4,17,3.9,16.4c0,0,8.4,0,21,0c8.7,0,6.7,6.4,3.7,6.4c-5.3,0-7.5,0-13.8,0s-9.7,11.1,1.7,11.1
			c0,0,23.6,0,36.3,0c6.4,0,5.6,4.9,1.1,4.9c0,0,7.2,0-3.5,0s-8.8,10.5,0.8,10.5L301.3,175.1z"/>
		<ellipse style="opacity:0.15;fill:#231F20;enable-background:new    ;" cx="251.9" cy="129.4" rx="231.6" ry="8"/>
		<g>
			<path style="fill:#58A05A;" d="M5.1,217.5c35.8-34.4,74.7,0,74.7,0H5.1z"/>
			<path style="fill:#4C874C;" d="M102.3,217.5c35.8-34.4,74.7,0,74.7,0H102.3z"/>
			<path style="fill:#66BB6A;" d="M42.2,217.9c44.6-42.9,93.1,0,93.1,0H42.2z"/>
		</g>
		<g>
			<ellipse style="opacity:0.15;enable-background:new    ;" cx="263.5" cy="209.1" rx="23.3" ry="1.4"/>
			<g>
				<g>
					<ellipse style="fill:#58A05A;" cx="260.5" cy="189.9" rx="9.5" ry="10.4"/>
					<ellipse style="fill:#58A05A;" cx="246.4" cy="189.7" rx="9.5" ry="10.4"/>
					<ellipse style="fill:#58A05A;" cx="254.8" cy="179.4" rx="9.5" ry="10.4"/>
				</g>
				
					<line style="fill:none;stroke:#A67C52;stroke-width:6.426;stroke-miterlimit:10;" x1="254.6" y1="196.5" x2="254.6" y2="209.1"/>
				
					<line style="fill:none;stroke:#8C6746;stroke-width:6.426;stroke-miterlimit:10;" x1="254.6" y1="194.6" x2="254.6" y2="200.2"/>
				<g>
					<ellipse style="fill:#66BB6A;" cx="262.4" cy="189.2" rx="8.3" ry="9.1"/>
					<ellipse style="fill:#66BB6A;" cx="250.1" cy="189.1" rx="8.3" ry="9.1"/>
					<ellipse style="fill:#66BB6A;" cx="257.3" cy="180.1" rx="8.3" ry="9.1"/>
				</g>
			</g>
			<g>
				<g>
					<ellipse style="fill:#58A05A;" cx="280.4" cy="193.2" rx="7.9" ry="8.6"/>
					<ellipse style="fill:#58A05A;" cx="268.7" cy="193.1" rx="7.9" ry="8.6"/>
					<ellipse style="fill:#58A05A;" cx="275.7" cy="184.6" rx="7.9" ry="8.6"/>
				</g>
				
					<line style="fill:none;stroke:#A67C52;stroke-width:5.3166;stroke-miterlimit:10;" x1="275.6" y1="198.8" x2="275.6" y2="209.2"/>
				
					<line style="fill:none;stroke:#8C6746;stroke-width:5.3166;stroke-miterlimit:10;" x1="275.6" y1="197.1" x2="275.6" y2="201.8"/>
				<g>
					<ellipse style="fill:#66BB6A;" cx="282" cy="192.7" rx="6.8" ry="7.5"/>
					<ellipse style="fill:#66BB6A;" cx="271.8" cy="192.6" rx="6.8" ry="7.5"/>
					<ellipse style="fill:#66BB6A;" cx="277.9" cy="185.2" rx="6.8" ry="7.5"/>
				</g>
			</g>
		</g>
	</g>
	<g id="rollercoasterarea">
		<g id="support">
			<g id="backsupport">
				<line style="fill:none;stroke:#FFFFFF;stroke-width:2.4926;stroke-miterlimit:10;" x1="394.2" y1="81" x2="388.2" y2="132.1"/>
				<line style="fill:none;stroke:#FFFFFF;stroke-width:2.4926;stroke-miterlimit:10;" x1="342.4" y1="30.5" x2="359" y2="132.1"/>
				<line style="fill:none;stroke:#FFFFFF;stroke-width:2.4926;stroke-miterlimit:10;" x1="87.3" y1="87.2" x2="83.5" y2="132.1"/>
				<line style="fill:none;stroke:#FFFFFF;stroke-width:2.4926;stroke-miterlimit:10;" x1="159.1" y1="51" x2="136.7" y2="132.7"/>
				<line style="fill:none;stroke:#FFFFFF;stroke-width:2.4926;stroke-miterlimit:10;" x1="260.6" y1="29.6" x2="244" y2="132.1"/>
				<line style="fill:none;stroke:#FFFFFF;stroke-width:2.4926;stroke-miterlimit:10;" x1="189.4" y1="51.2" x2="211" y2="132.1"/>
			</g>
			<g id="frontsupport">
				<path style="fill:none;stroke:#CFD1D2;stroke-width:2.4926;stroke-miterlimit:10;" d="M443.7,78.4"/>
				
					<line style="fill:none;stroke:#FFFFFF;stroke-width:2.4926;stroke-miterlimit:10;" x1="443.7" y1="78.4" x2="448.8" y2="132.4"/>
				<line style="fill:none;stroke:#FFFFFF;stroke-width:2.4926;stroke-miterlimit:10;" x1="65.8" y1="98.5" x2="61.5" y2="132.3"/>
				
					<line style="fill:none;stroke:#FFFFFF;stroke-width:2.4926;stroke-miterlimit:10;" x1="109.9" y1="117.8" x2="112.7" y2="132.6"/>
				<line style="fill:none;stroke:#FFFFFF;stroke-width:2.4926;stroke-miterlimit:10;" x1="167.8" y1="113" x2="164.1" y2="132.4"/>
				
					<line style="fill:none;stroke:#FFFFFF;stroke-width:2.4926;stroke-miterlimit:10;" x1="416.1" y1="103.7" x2="420.4" y2="132.1"/>
				
					<line style="fill:none;stroke:#FFFFFF;stroke-width:2.4926;stroke-miterlimit:10;" x1="320.7" y1="104.9" x2="325.2" y2="132.1"/>
				
					<line style="fill:none;stroke:#FFFFFF;stroke-width:2.4926;stroke-miterlimit:10;" x1="287.4" y1="103.3" x2="281.9" y2="132.1"/>
			</g>
		</g>
		<g id="rollercoaster">
			<g id="rollercoasterpath">
				<path style="fill:none;stroke:#C8E1B3;stroke-width:4.9851;stroke-miterlimit:10;" d="M201.5,105.2c-11.2,5.8-28.2,3.8-41.6,0.8
					c-9.4-2.1-18.4-5.4-27-9.5c-11.7-5.6-35.4-16.6-50.4-14.6c-6.4,0.8-11.1,4.3-11.9,11.1l-0.5,0.8c-0.2,0.8-1,2.1-1.1,3
					c-0.1,1.7-1.1,4.5,0,6c5.5,7,11.6,11.1,18.5,12.2c9.3,1.5,20.2,1.3,27.8-4.5c12-9.2,23.1-30.2,36.9-61.6c1.6-3.6,2.5-6,4.5-8.9
					c22.5-32.7,42.3,17.9,48.2,28.3c2.6,4.5,5.9,8.5,8.7,12.9c12.8,20.2,65.4,29.4,99.8,4.2c48.5-35.6,24.8-80.6-11-82
					c-42.3-1.6-54.6,43.6-20.7,78.1c18.6,18.9,42.6,20.1,60.8,17.1c12.3-2,24-6.4,34.7-12.8c12.4-7.4,37.6-21.4,52.8-17.3
					c2.8,0.8,5.8,2,7.3,4.5c7.3,11.6-11.4,22-11.4,22s-33.4,20.2-91.1-16.3C276,40.6,243,80.2,243,80.2"/>
				<path style="fill:none;stroke:#4FAD4A;stroke-width:4.9851;stroke-miterlimit:10;" d="M201.5,109.4c-12.3,7.7-32.2,4.2-46,0.3
					c-7-2-13.9-4.7-20.4-8c-14.2-7-54.4-25.1-64.6-8.9c-1.5,2.4-2,5.4-1.7,8.3c1.3,12,10.1,16.6,18.6,18.2
					c9.5,1.7,19.3-0.2,27.8-4.8c13.2-7.3,25.7-25.9,40.1-61.9c18.8-46.9,40.7,8.3,46.8,19.2c2.6,4.5,5.3,9,8.4,13.2
					c14.3,19.7,66.1,32.1,103,4.9c48.2-35.5,26.9-80.3-10.4-82c-42.4-2-57.2,41.4-21.4,77.5c19.2,19.3,43.2,20.4,61.2,17.4
					c11.8-2,23.2-6.4,33.5-12.6c13.3-8,43.2-24,57.8-16c19.4,10.6-8.3,24.8-8.3,24.8s-32.9,21.4-91.2-16.1s-91.8,1.5-91.8,1.5"/>
				<path style="fill:none;stroke:#4FAD4A;stroke-width:0.8308;stroke-miterlimit:10;" d="M201.5,101.9c-11.4,7.2-29.3,4.7-42.9,1.1
					c-8.3-2.2-16.4-5.3-24-9.1c-14.8-7.3-54-24.5-64-8.6c-1.5,2.4-2,5.4-1.7,8.3c1.3,12,10.1,16.6,18.6,18.2
					c9.5,1.7,20.3,1.4,27.8-4.8c11.7-9.7,21.7-28.4,35.6-61.1c1.4-3.3,3.1-6.5,5.2-9.4c22.7-31.9,43.5,17.4,49.4,27.9
					c2.6,4.5,5.3,9,8.4,13.2c14.3,19.7,62.8,32.1,99.7,4.9c48.2-35.5,26.9-80.3-10.4-82c-42.4-2-57.2,41.4-21.4,77.5
					C301,97.3,325,98.4,343,95.4c11.8-2,23.2-6.4,33.5-12.6c13.3-8,43.2-24,57.8-16c19.4,10.6-8.3,24.8-8.3,24.8
					s-32.9,21.4-91.2-16.1S242.2,78,242.2,78"/>
				<g style="opacity:0.3;">
					
						<line style="fill:none;stroke:#4FAD4A;stroke-width:1.6617;stroke-miterlimit:10;" x1="256.9" y1="66.6" x2="259.6" y2="74.3"/>
					<line style="fill:none;stroke:#4FAD4A;stroke-width:1.6617;stroke-miterlimit:10;" x1="279.3" y1="59.6" x2="282" y2="66.6"/>
					
						<line style="fill:none;stroke:#4FAD4A;stroke-width:1.6617;stroke-miterlimit:10;" x1="295.7" y1="60.3" x2="299.1" y2="67.6"/>
					
						<line style="fill:none;stroke:#4FAD4A;stroke-width:1.6617;stroke-miterlimit:10;" x1="315.5" y1="65.5" x2="318.1" y2="71.8"/>
					<line style="fill:none;stroke:#4FAD4A;stroke-width:1.6617;stroke-miterlimit:10;" x1="339.6" y1="79" x2="342.3" y2="86.7"/>
					
						<line style="fill:none;stroke:#4FAD4A;stroke-width:1.6617;stroke-miterlimit:10;" x1="352.7" y1="86.1" x2="354.6" y2="91.8"/>
					
						<line style="fill:none;stroke:#4FAD4A;stroke-width:1.6617;stroke-miterlimit:10;" x1="385.5" y1="96.8" x2="389.5" y2="103.1"/>
					
						<line style="fill:none;stroke:#4FAD4A;stroke-width:1.6617;stroke-miterlimit:10;" x1="404.2" y1="97.1" x2="409.2" y2="101.8"/>
					
						<line style="fill:none;stroke:#4FAD4A;stroke-width:1.6617;stroke-miterlimit:10;" x1="423.5" y1="93.3" x2="427.6" y2="97.7"/>
					<line style="fill:none;stroke:#4FAD4A;stroke-width:1.6617;stroke-miterlimit:10;" x1="429" y1="65" x2="430.4" y2="73.4"/>
					<line style="fill:none;stroke:#4FAD4A;stroke-width:1.6617;stroke-miterlimit:10;" x1="411.6" y1="66.3" x2="413" y2="75.3"/>
					<line style="fill:none;stroke:#4FAD4A;stroke-width:1.6617;stroke-miterlimit:10;" x1="393.2" y1="73.4" x2="394.2" y2="81"/>
					
						<line style="fill:none;stroke:#4FAD4A;stroke-width:1.6617;stroke-miterlimit:10;" x1="376.5" y1="82.4" x2="378.4" y2="90.4"/>
					
						<line style="fill:none;stroke:#4FAD4A;stroke-width:1.6617;stroke-miterlimit:10;" x1="338.3" y1="96.5" x2="338.3" y2="102.4"/>
					
						<line style="fill:none;stroke:#4FAD4A;stroke-width:1.6617;stroke-miterlimit:10;" x1="321.9" y1="96.8" x2="320.5" y2="102.4"/>
					
						<line style="fill:none;stroke:#4FAD4A;stroke-width:1.6617;stroke-miterlimit:10;" x1="290.1" y1="85.7" x2="286.3" y2="88.1"/>
					<line style="fill:none;stroke:#4FAD4A;stroke-width:1.6617;stroke-miterlimit:10;" x1="278.7" y1="76" x2="275.3" y2="77"/>
					<line style="fill:none;stroke:#4FAD4A;stroke-width:1.6617;stroke-miterlimit:10;" x1="279.3" y1="5" x2="279.3" y2="11.7"/>
					<line style="fill:none;stroke:#4FAD4A;stroke-width:1.6617;stroke-miterlimit:10;" x1="294.7" y1="1" x2="295" y2="8.7"/>
					<line style="fill:none;stroke:#4FAD4A;stroke-width:1.6617;stroke-miterlimit:10;" x1="311.8" y1="1.7" x2="311.5" y2="8.7"/>
					<line style="fill:none;stroke:#4FAD4A;stroke-width:1.6617;stroke-miterlimit:10;" x1="326.9" y1="8.7" x2="326.9" y2="15.4"/>
					<line style="fill:none;stroke:#4FAD4A;stroke-width:1.6617;stroke-miterlimit:10;" x1="309.4" y1="85" x2="313.5" y2="88.4"/>
					<line style="fill:none;stroke:#4FAD4A;stroke-width:1.6617;stroke-miterlimit:10;" x1="275.7" y1="97.1" x2="279" y2="102.1"/>
					
						<line style="fill:none;stroke:#4FAD4A;stroke-width:1.6617;stroke-miterlimit:10;" x1="260.9" y1="98.4" x2="263.6" y2="104.8"/>
					
						<line style="fill:none;stroke:#4FAD4A;stroke-width:1.6617;stroke-miterlimit:10;" x1="243.5" y1="95.8" x2="246.2" y2="103.8"/>
					<line style="fill:none;stroke:#4FAD4A;stroke-width:1.6617;stroke-miterlimit:10;" x1="209" y1="71.3" x2="208.3" y2="78.4"/>
					
						<line style="fill:none;stroke:#4FAD4A;stroke-width:1.6617;stroke-miterlimit:10;" x1="200.8" y1="56.9" x2="200.5" y2="63.6"/>
					
						<line style="fill:none;stroke:#4FAD4A;stroke-width:1.6617;stroke-miterlimit:10;" x1="192.9" y1="41.7" x2="191.2" y2="47.1"/>
					
						<line style="fill:none;stroke:#4FAD4A;stroke-width:1.6617;stroke-miterlimit:10;" x1="182.2" y1="30.5" x2="181.5" y2="34.8"/>
					
						<line style="fill:none;stroke:#4FAD4A;stroke-width:1.6617;stroke-miterlimit:10;" x1="166.2" y1="27.1" x2="166.2" y2="33.5"/>
					
						<line style="fill:none;stroke:#4FAD4A;stroke-width:1.6617;stroke-miterlimit:10;" x1="154.7" y1="37.8" x2="155.8" y2="44.9"/>
					
						<line style="fill:none;stroke:#4FAD4A;stroke-width:1.6617;stroke-miterlimit:10;" x1="147.7" y1="53.6" x2="149.7" y2="60.3"/>
					<line style="fill:none;stroke:#4FAD4A;stroke-width:1.6617;stroke-miterlimit:10;" x1="140.3" y1="69" x2="142.4" y2="75"/>
					<line style="fill:none;stroke:#4FAD4A;stroke-width:1.6617;stroke-miterlimit:10;" x1="133" y1="83.7" x2="136.3" y2="88.7"/>
					
						<line style="fill:none;stroke:#4FAD4A;stroke-width:1.6617;stroke-miterlimit:10;" x1="115.4" y1="107.1" x2="116.6" y2="112.5"/>
					
						<line style="fill:none;stroke:#4FAD4A;stroke-width:1.6617;stroke-miterlimit:10;" x1="101.5" y1="112.5" x2="101.5" y2="118.2"/>
					
						<line style="fill:none;stroke:#4FAD4A;stroke-width:1.6617;stroke-miterlimit:10;" x1="87.6" y1="111.9" x2="84.8" y2="120.2"/>
					<line style="fill:none;stroke:#4FAD4A;stroke-width:1.6617;stroke-miterlimit:10;" x1="83.1" y1="78.7" x2="83.4" y2="85"/>
					<line style="fill:none;stroke:#4FAD4A;stroke-width:1.6617;stroke-miterlimit:10;" x1="100.1" y1="81" x2="101.2" y2="89.4"/>
					
						<line style="fill:none;stroke:#4FAD4A;stroke-width:1.6617;stroke-miterlimit:10;" x1="115.6" y1="86.1" x2="117.3" y2="92.4"/>
					
						<line style="fill:none;stroke:#4FAD4A;stroke-width:1.6617;stroke-miterlimit:10;" x1="146.4" y1="99.8" x2="146.7" y2="105.2"/>
					
						<line style="fill:none;stroke:#4FAD4A;stroke-width:1.6617;stroke-miterlimit:10;" x1="159.8" y1="103.5" x2="161.1" y2="110.5"/>
					
						<line style="fill:none;stroke:#4FAD4A;stroke-width:1.6617;stroke-miterlimit:10;" x1="175.2" y1="106.2" x2="176.5" y2="110.8"/>
				</g>
			</g>
			<g id="rollercoastershadow">
				<path style="opacity:0.3;fill:#3C7C3C;enable-background:new    ;" d="M267.9,72l6.1,8.6l11,0.2c0,0-9.6-9.7-9.7-10.5L267.9,72z
					"/>
				<path style="opacity:0.5;fill:#459243;enable-background:new    ;" d="M314.1,92.7l1.1-11.5l12,0.3
					C327.3,81.5,317.8,90.6,314.1,92.7z"/>
				<path style="opacity:0.3;fill:#3C7C3C;enable-background:new    ;" d="M342,95.2l6.5-1.3l13.9,6.4c0,0-14,5.3-26.7,6.1L342,95.2
					z"/>
				<path style="opacity:0.3;fill:#3C7C3C;enable-background:new    ;" d="M122.8,98.7l9.1,4.2c0,0-6.9,9.7-17.9,15.1
					c0,0,2-7.7,2.9-12.3L122.8,98.7z"/>
				<path style="opacity:0.5;fill:#459243;enable-background:new    ;" d="M315.3,81.2l4.2-3.8c0.5-0.1,7.8,4.1,7.8,4.1"/>
				<path style="opacity:0.3;fill:#3C7C3C;enable-background:new    ;" d="M375,93.9c0,0-7,4.4-13.2,6.4c0,0,17.3,6.5,30.5,7.1
					l-5.8-10.9C386.7,96.6,376.9,94.9,375,93.9z"/>
				<path style="opacity:0.3;fill:#3C7C3C;enable-background:new    ;" d="M238.9,93.7v1.1l-9.9,5.3l0.3,1.5c0,0,2.7,1.1,9.2,3.3
					l11.6-8.3C250.1,96.6,241.9,94.9,238.9,93.7z"/>
			</g>
		</g>
		<g id="station">
			<path style="fill:#9A7285;" d="M243.9,88.1l-45.3,24.1c-3,1.6-6.7,0.3-8.4-2.7l-2.9-5.4c-1.7-3.1-0.6-6.9,2.3-8.5L235,71.4
				l9.6,4.4c1.1,0.5,1.7,1.8,1.4,3L243.9,88.1z"/>
			<path style="fill:#C0BFA9;" d="M243.9,88l-47.1,25.3c-1.4,0.7-3,0.2-3.7-1.1l-0.4-0.8l49.5-26.6L243.9,88z"/>
			<path style="fill:none;stroke:#4BAE4A;stroke-width:1.6617;stroke-linecap:round;stroke-miterlimit:10;" d="M228.2,75.1
				c0,0-1.8,12.8,8.9,16.6"/>
			<path style="fill:#409445;" d="M243.9,88.1c-10.8-3.8-8.9-16.6-8.9-16.6l14.2,3.3L243.9,88.1z"/>
			<path style="fill:#367E3D;" d="M249.2,74.7l-5.3,13.4c0,0-1.4-0.2-3.9-2"/>
			<path style="fill:none;stroke:#4BAE4A;stroke-width:1.6617;stroke-linecap:round;stroke-miterlimit:10;" d="M221.3,78.8
				c0,0-1.8,12.8,8.9,16.6"/>
			<path style="fill:none;stroke:#4BAE4A;stroke-width:1.6617;stroke-linecap:round;stroke-miterlimit:10;" d="M214.5,82.5
				c0,0-1.8,12.8,8.9,16.6"/>
			<path style="fill:none;stroke:#4BAE4A;stroke-width:1.6617;stroke-linecap:round;stroke-miterlimit:10;" d="M207.7,86.2
				c0,0-1.8,12.8,8.9,16.6"/>
			<path style="fill:none;stroke:#4BAE4A;stroke-width:1.6617;stroke-linecap:round;stroke-miterlimit:10;" d="M200.8,89.8
				c0,0-1.8,12.8,8.9,16.6"/>
			<path style="fill:none;stroke:#4BAE4A;stroke-width:1.6617;stroke-linecap:round;stroke-miterlimit:10;" d="M194,93.6
				c0,0-1.8,12.8,8.9,16.6"/>
			<path style="fill:none;stroke:#4BAE4A;stroke-width:1.6617;stroke-linecap:round;stroke-miterlimit:10;" d="M187.1,97.2
				c0,0-1.8,12.8,8.9,16.6"/>
			<line style="fill:none;stroke:#9A7285;stroke-width:2.4926;stroke-miterlimit:10;" x1="233.8" y1="131.9" x2="227.4" y2="98"/>
			
				<line style="fill:none;stroke:#9A7285;stroke-width:2.4926;stroke-miterlimit:10;" x1="220.8" y1="102.8" x2="214.4" y2="131.1"/>
			<polygon style="fill:#9A7285;" points="238.9,94.7 204,113.4 200.8,111 239.1,90.6 			"/>
		</g>
		<g id="supporttips">
			
				<rect x="84.8" y="86.3" transform="matrix(7.970462e-02 -0.9968 0.9968 7.970462e-02 -8.1973 168.2881)" style="fill:#4FAD4A;" width="4.5" height="4.5"/>
			
				<rect x="107.9" y="116.5" transform="matrix(0.9783 -0.2071 0.2071 0.9783 -22.1985 25.3941)" style="fill:#4FAD4A;" width="4.5" height="4.5"/>
			
				<rect x="164.9" y="112.1" transform="matrix(0.186 -0.9825 0.9825 0.186 23.681 257.376)" style="fill:#4FAD4A;" width="4.5" height="4.5"/>
			
				<rect x="284.7" y="102.3" transform="matrix(0.186 -0.9825 0.9825 0.186 130.8798 367.002)" style="fill:#4FAD4A;" width="4.5" height="4.5"/>
			
				<rect x="318.5" y="103.5" transform="matrix(0.998 -6.254812e-02 6.254812e-02 0.998 -5.9836 20.2709)" style="fill:#4FAD4A;" width="4.5" height="4.5"/>
			
				<rect x="414.1" y="102.8" transform="matrix(0.998 -6.254812e-02 6.254812e-02 0.998 -5.7527 26.2489)" style="fill:#4FAD4A;" width="4.5" height="4.5"/>
			
				<rect x="392" y="81.2" transform="matrix(0.186 -0.9825 0.9825 0.186 238.8923 455.3378)" style="fill:#4FAD4A;" width="4.5" height="4.5"/>
			<line style="fill:none;stroke:#4FAD4A;stroke-width:4.1543;stroke-miterlimit:10;" x1="190.7" y1="56.3" x2="188.4" y2="48.1"/>
			<line style="fill:none;stroke:#4FAD4A;stroke-width:4.4933;stroke-miterlimit:10;" x1="157.3" y1="55.5" x2="159.6" y2="45.9"/>
			
				<rect x="440.7" y="77.6" transform="matrix(0.9933 -0.1156 0.1156 0.9933 -6.2589 51.745)" style="fill:#4FAD4A;" width="4.5" height="4.5"/>
			<line style="fill:none;stroke:#4DAE4A;stroke-width:3.2414;stroke-miterlimit:10;" x1="261.4" y1="26.7" x2="259.1" y2="37.8"/>
			<line style="fill:none;stroke:#4DAE4A;stroke-width:3.2414;stroke-miterlimit:10;" x1="341.8" y1="27.2" x2="344.1" y2="38.2"/>
			
				<rect x="64" y="96" transform="matrix(7.970462e-02 -0.9968 0.9968 7.970462e-02 -36.8928 156.4686)" style="fill:#4FAD4A;" width="4.5" height="4.5"/>
		</g>
	</g>
	<g id="coaster">
		<line style="fill:none;stroke:#ED4338;stroke-width:2.1491;stroke-miterlimit:10;" x1="321.9" y1="67.8" x2="329.4" y2="71.3"/>
		<line style="fill:none;stroke:#ED4338;stroke-width:2.1491;stroke-miterlimit:10;" x1="297.4" y1="60.5" x2="305.3" y2="62.8"/>
		<line style="fill:none;stroke:#ED4338;stroke-width:2.1491;stroke-miterlimit:10;" x1="270.4" y1="60.8" x2="278.8" y2="60.3"/>
		<g>
			
				<ellipse transform="matrix(0.9256 -0.3786 0.3786 0.9256 -2.6268 101.2405)" style="fill:#59595C;" cx="256.2" cy="57.3" rx="1.5" ry="1.5"/>
			<path style="fill:#59595C;" d="M256.6,63.7l3.7-1.5l-3-3c-0.3-0.3-0.9-0.2-0.9,0.4L256.6,63.7z"/>
			
				<ellipse transform="matrix(0.9256 -0.3786 0.3786 0.9256 -1.431 103.3252)" style="fill:#59595C;" cx="262.1" cy="55.3" rx="1.5" ry="1.5"/>
			<path style="fill:#59595C;" d="M262.3,61.8l3.7-1.5l-3-3c-0.3-0.3-0.9-0.2-0.9,0.4L262.3,61.8z"/>
			<g>
				<path style="fill:#ED4338;" d="M255.3,69.7l15.8-5.5c0,0,4.7-3,3.6-5.8c-1.3-2.6-7.3-2.4-8.4-1.4l1.3,2.5l-11.8,4.2l-2.2-2.3
					l-1.8,0.6L255.3,69.7z"/>
				
					<ellipse transform="matrix(1.877730e-02 -0.9998 0.9998 1.877730e-02 188.2577 326.5915)" style="fill:#ED4338;" cx="260.5" cy="67.4" rx="2.1" ry="2.1"/>
				
					<ellipse transform="matrix(1.877730e-02 -0.9998 0.9998 1.877730e-02 197.76 331.4295)" style="fill:#ED4338;" cx="267.7" cy="65" rx="2.1" ry="2.1"/>
			</g>
			
				<line style="fill:none;stroke:#FFFFFF;stroke-width:0.5373;stroke-linecap:round;stroke-miterlimit:10;" x1="254.2" y1="66.9" x2="274.4" y2="60"/>
		</g>
		<g>
			
				<ellipse transform="matrix(0.9999 -1.430467e-02 1.430467e-02 0.9999 -0.7104 4.0484)" style="fill:#59595C;" cx="282.6" cy="51.7" rx="1.5" ry="1.5"/>
			<path style="fill:#59595C;" d="M280.6,57.9l4-0.1l-1.7-3.8c-0.2-0.4-0.8-0.5-1,0L280.6,57.9z"/>
			
				<ellipse transform="matrix(0.9999 -1.430467e-02 1.430467e-02 0.9999 -0.714 4.1371)" style="fill:#59595C;" cx="288.8" cy="52" rx="1.5" ry="1.5"/>
			<path style="fill:#59595C;" d="M286.7,58.2l4-0.1l-1.7-3.8c-0.2-0.4-0.8-0.5-1,0L286.7,58.2z"/>
			<g>
				<path style="fill:#ED4338;" d="M277.3,63.1l16.7,0.7c0,0,5.5-1.1,5.4-4.1c-0.2-2.9-6-4.9-7.3-4.4l0.3,2.8l-12.5-0.5l-1.2-3
					l-1.9-0.1L277.3,63.1z"/>
				
					<ellipse transform="matrix(0.3827 -0.9239 0.9239 0.3827 116.933 300.747)" style="fill:#ED4338;" cx="283.5" cy="62.9" rx="2.1" ry="2.1"/>
				
					<ellipse transform="matrix(0.3827 -0.9239 0.9239 0.3827 121.5007 307.5853)" style="fill:#ED4338;" cx="290.9" cy="62.9" rx="2.1" ry="2.1"/>
			</g>
			
				<line style="fill:none;stroke:#FFFFFF;stroke-width:0.5373;stroke-linecap:round;stroke-miterlimit:10;" x1="277.3" y1="60.1" x2="298.6" y2="60.9"/>
		</g>
		<g>
			
				<ellipse transform="matrix(0.2723 -0.9622 0.9622 0.2723 172.0877 338.0689)" style="fill:#59595C;" cx="309.6" cy="55.3" rx="1.5" ry="1.5"/>
			<path style="fill:#59595C;" d="M305.9,60.6l3.9,1.1l-0.5-4.2c0-0.5-0.5-0.7-1-0.3L305.9,60.6z"/>
			
				<ellipse transform="matrix(0.2723 -0.9622 0.9622 0.2723 174.3967 345.1199)" style="fill:#59595C;" cx="315.4" cy="57.3" rx="1.5" ry="1.5"/>
			<path style="fill:#59595C;" d="M311.6,62.6l3.9,1.1l-0.5-4.2c0-0.5-0.5-0.7-1-0.3L311.6,62.6z"/>
			<g>
				<path style="fill:#ED4338;" d="M301.2,64.6L317,70c0,0,5.6,0.5,6.4-2.3c0.6-2.9-4.3-6.4-5.8-6.3l-0.5,2.8l-11.9-4l-0.3-3.2
					l-1.8-0.6L301.2,64.6z"/>
				
					<ellipse transform="matrix(0.631 -0.7758 0.7758 0.631 62.1433 262.6465)" style="fill:#ED4338;" cx="307.2" cy="66" rx="2.1" ry="2.1"/>
				
					<ellipse transform="matrix(0.631 -0.7758 0.7758 0.631 62.8889 268.9519)" style="fill:#ED4338;" cx="314.2" cy="68.4" rx="2.1" ry="2.1"/>
			</g>
			
				<line style="fill:none;stroke:#FFFFFF;stroke-width:0.5373;stroke-linecap:round;stroke-miterlimit:10;" x1="302.1" y1="61.7" x2="322.2" y2="68.6"/>
		</g>
		<g>
			
				<ellipse transform="matrix(0.4823 -0.876 0.876 0.4823 116.1948 327.1657)" style="fill:#59595C;" cx="334.9" cy="65.3" rx="1.5" ry="1.5"/>
			<path style="fill:#59595C;" d="M330.1,69.7l3.6,2l0.5-4.2c0.1-0.5-0.4-0.8-0.9-0.5L330.1,69.7z"/>
			
				<ellipse transform="matrix(0.4823 -0.876 0.876 0.4823 115.8771 333.4956)" style="fill:#59595C;" cx="340.1" cy="68.7" rx="1.5" ry="1.5"/>
			<path style="fill:#59595C;" d="M335.3,73l3.6,2l0.5-4.2c0.1-0.5-0.4-0.8-0.9-0.5L335.3,73z"/>
			<g>
				<path style="fill:#ED4338;" d="M324.7,72.5l14.2,8.9c0,0,5.3,1.7,6.7-0.8c1.2-2.7-2.7-7.2-4.2-7.4l-1.1,2.6l-10.7-6.6l0.5-3.2
					l-1.6-1L324.7,72.5z"/>
				
					<ellipse transform="matrix(0.7897 -0.6135 0.6135 0.7897 23.278 218.2888)" style="fill:#ED4338;" cx="330" cy="75.2" rx="2.1" ry="2.1"/>
				
					<ellipse transform="matrix(0.7897 -0.6135 0.6135 0.7897 22.1743 223.0576)" style="fill:#ED4338;" cx="336.4" cy="79.2" rx="2.1" ry="2.1"/>
			</g>
			
				<line style="fill:none;stroke:#FFFFFF;stroke-width:0.5373;stroke-linecap:round;stroke-miterlimit:10;" x1="326.2" y1="70" x2="344.3" y2="81.2"/>
		</g>
	</g>
</g>
</svg>
